<svg width="16" height="16" viewBox="0 0 16 16" fill="none" xmlns="http://www.w3.org/2000/svg">
<path d="M1.05885 14.8432C1.26769 14.0253 1.45912 13.277 1.68536 12.5286C1.77237 12.2328 1.73757 12.0066 1.58094 11.7455C-1.18613 7.18594 1.56354 1.21673 6.80183 0.363985C11.7269 -0.453953 16.095 3.63574 15.5903 8.59558C15.016 14.1819 8.80316 17.2274 4.01735 14.2689C3.87813 14.1819 3.65189 14.1645 3.49527 14.1993C2.71213 14.3908 1.9116 14.617 1.05885 14.8432ZM14.2851 7.86465C14.2851 4.40147 11.5354 1.6344 8.08964 1.6344C4.60905 1.617 1.84199 4.36666 1.84199 7.84725C1.84199 11.293 4.60905 14.0601 8.05484 14.0601C11.5006 14.0601 14.2851 11.293 14.2851 7.86465ZM9.25564 6.17657C8.4377 6.29839 7.63717 6.40281 6.81923 6.52463C6.74962 6.54203 6.68 6.66385 6.59299 6.75087C7.34132 6.87269 7.44573 6.99451 7.2543 7.70803C7.04547 8.45636 6.81923 9.18728 6.61039 9.93561C6.45377 10.5099 6.26233 11.1016 6.17532 11.6933C6.0883 12.2154 6.47117 12.5809 7.01066 12.6157C7.46314 12.6505 7.86341 12.4938 8.17666 12.198C8.57693 11.7977 8.92498 11.3452 9.29045 10.9276C9.11642 10.7013 9.0294 10.7187 8.90758 10.8928C8.71615 11.1538 8.50731 11.3975 8.28108 11.6237C8.22887 11.6759 8.07224 11.7107 8.02003 11.6759C7.95042 11.6411 7.91561 11.5193 7.91561 11.4323C7.91561 11.3278 7.93302 11.2408 7.96782 11.1364C8.21146 10.2837 8.45511 9.43092 8.69875 8.57818C8.92498 7.79504 9.15122 7.01191 9.37746 6.21137C9.30785 6.17657 9.27304 6.17657 9.25564 6.17657ZM8.97719 3.06144C8.4203 3.06144 7.98523 3.51392 7.98523 4.07081C7.98523 4.6103 8.4377 5.04538 8.97719 5.02797C9.53409 5.01057 9.95176 4.5929 9.95176 4.03601C9.95176 3.47911 9.53409 3.06144 8.97719 3.06144Z" fill="#10ABBD"/>
</svg>
