<svg width="18" height="14" viewBox="0 0 18 14" fill="none" xmlns="http://www.w3.org/2000/svg">
<path d="M0.289062 12.1668C0.289062 8.74326 0.289062 5.31289 0.289062 1.88933C0.476515 1.17467 0.903131 0.725458 1.58184 0.528076C6.3845 0.528076 11.1936 0.528076 15.9963 0.528076C16.6685 0.725458 17.1016 1.17467 17.2891 1.88933C17.2891 5.31289 17.2891 8.74326 17.2891 12.1668C17.1016 12.8815 16.6685 13.3307 15.9963 13.5281C11.1936 13.5281 6.3845 13.5281 1.58184 13.5281C0.909595 13.3307 0.470051 12.8815 0.289062 12.1668ZM1.58184 1.37206C1.66587 1.48096 1.71758 1.54902 1.77575 1.61028C3.9153 3.85635 6.06131 6.10923 8.20731 8.3553C8.60161 8.76368 8.98944 8.76368 9.38374 8.3485C11.5297 6.10242 13.6693 3.84954 15.8088 1.60347C15.867 1.54221 15.9123 1.47415 15.9898 1.37206C11.1678 1.37206 6.40389 1.37206 1.58184 1.37206ZM11.1484 7.62022C10.7347 8.05582 10.3275 8.50504 9.90085 8.94064C9.22861 9.63488 8.33659 9.63488 7.66435 8.93384C7.2442 8.49823 6.83697 8.04221 6.44267 7.61342C4.83317 9.32179 3.24952 11.0098 1.6788 12.6773C6.40389 12.6773 11.1742 12.6773 15.9123 12.6773C14.3351 11.0098 12.7579 9.3286 11.1484 7.62022ZM1.07119 12.0035C2.66777 10.3087 4.23203 8.64797 5.71226 7.07572C4.17385 5.44221 2.61606 3.78148 1.07119 2.13436C1.07119 5.38776 1.07119 8.66839 1.07119 12.0035ZM11.8659 7.00766C13.3849 8.62075 14.9491 10.2815 16.494 11.9286C16.494 8.66839 16.494 5.38096 16.494 2.07991C14.9233 3.75425 13.359 5.42179 11.8659 7.00766Z" fill="#10ABBD"/>
</svg>
