<svg width="76" height="76" viewBox="0 0 76 76" fill="none" xmlns="http://www.w3.org/2000/svg">
<circle cx="38.1729" cy="37.9275" r="37.5" fill="#0B8491"/>
<g clip-path="url(#clip0_201_87)">
<path d="M57.041 29.0091C52.9726 29.0091 48.9561 29.0091 44.8704 29.0091C44.8704 24.998 44.8704 21.0039 44.8704 17.0099C38.4994 17.0099 32.1977 17.0099 25.8267 17.0099C25.8267 19.0069 25.8267 20.9869 25.8267 22.9839C25.7921 22.9839 25.7748 23.001 25.7401 23.001C25.6882 22.8815 25.6189 22.7791 25.567 22.6425C25.0823 21.4819 24.6148 20.27 24.0954 19.1093C23.8184 18.4948 23.6973 17.8804 23.7319 17.1976C23.7665 16.4637 23.7319 15.7297 23.7319 14.9275C23.9569 14.9275 24.1301 14.9275 24.3205 14.9275C31.2801 14.9275 38.2397 14.9275 45.182 14.9275C45.4936 14.9275 45.7014 15.0128 45.9264 15.2347C50.2372 19.5019 54.5653 23.769 58.8761 28.0362C59.032 28.1898 59.1531 28.4288 59.1531 28.6336C59.1705 39.3186 59.1705 49.9865 59.1705 60.6715C59.1705 60.7568 59.1705 60.8251 59.1531 60.9446C47.3634 60.9446 35.5736 60.9446 23.7665 60.9446C23.7665 53.7416 23.7665 46.5386 23.7665 39.2674C23.8531 39.3869 23.905 39.4722 23.9396 39.5575C24.5283 40.9913 25.1342 42.408 25.7228 43.8588C25.8094 44.0637 25.8267 44.3197 25.8267 44.5416C25.8267 49.1331 25.8267 53.7075 25.8267 58.2989C25.8267 58.4867 25.8267 58.6744 25.8267 58.8963C36.2488 58.8963 46.6362 58.8963 57.0583 58.8963C57.041 48.9453 57.041 39.0113 57.041 29.0091ZM47.1556 19.7238C47.1556 22.0622 47.1556 24.4006 47.1556 26.7561C49.5621 26.7561 51.9512 26.7561 54.3057 26.7561C51.9165 24.4006 49.5447 22.0622 47.1556 19.7238ZM35.9891 53.9806C35.9891 53.3661 35.9718 52.7516 35.9891 52.1542C36.0064 51.5568 35.8852 50.9935 35.6428 50.4303C35.0715 49.1331 34.5522 47.8017 33.9982 46.4874C30.1029 37.0655 26.1903 27.6436 22.295 18.2217C22.1911 17.9486 22.0353 17.6755 21.8448 17.4707C20.9792 16.549 19.5423 16.4807 18.3131 17.2488C17.3955 17.8121 16.8588 19.0069 17.3955 20.27C21.9141 31.1086 26.398 41.9813 30.8819 52.8199C30.9512 53.0076 31.0551 53.1954 31.1762 53.349C32.3189 54.578 33.4615 55.7898 34.6041 57.0017C34.8465 57.2577 35.1408 57.3943 35.5044 57.2577C35.8679 57.1212 36.0237 56.831 36.0064 56.4384C35.9891 55.6191 36.0064 54.8169 36.0064 53.9976C36.0064 53.9805 35.9891 53.9806 35.9891 53.9806ZM36.1795 48.3138C36.3007 48.6893 36.4912 48.7575 36.872 48.7575C41.5983 48.7405 46.3246 48.7575 51.0682 48.7575C51.2587 48.7575 51.4318 48.7575 51.6049 48.7575C51.6049 50.362 51.6049 51.8982 51.6049 53.4856C46.8267 53.4856 42.0831 53.4856 37.3741 53.4856C37.3741 54.1171 37.3741 54.7145 37.3741 55.2948C42.7756 55.2948 48.1424 55.2948 53.5093 55.2948C53.5093 52.4785 53.5093 49.6793 53.5093 46.8971C47.5365 46.8971 41.5983 46.8971 35.6255 46.8971C35.816 47.3921 36.041 47.8358 36.1795 48.3138ZM29.6527 26.2781C29.6527 24.4177 29.6527 22.5742 29.6527 20.6967C33.4615 20.6967 37.2702 20.6967 41.1309 20.6967C41.1309 22.5401 41.1309 24.4006 41.1309 26.2781C37.3048 26.2781 33.4961 26.2781 29.6527 26.2781ZM39.2265 22.5742C36.647 22.5742 34.102 22.5742 31.5571 22.5742C31.5571 23.2058 31.5571 23.8032 31.5571 24.4006C34.1367 24.4006 36.6643 24.4006 39.2265 24.4006C39.2265 23.7861 39.2265 23.1887 39.2265 22.5742ZM30.7434 35.1368C30.8646 35.4781 31.0377 35.5976 31.4186 35.5976C38.6206 35.5806 45.8053 35.5806 53.0072 35.5806C53.1457 35.5806 53.2842 35.5635 53.4227 35.5635C53.4227 34.9319 53.4227 34.3345 53.4227 33.7201C45.6668 33.7201 37.9627 33.7201 30.1721 33.7201C30.3799 34.2492 30.5876 34.693 30.7434 35.1368ZM32.8902 40.3256C33.0979 40.8206 33.3057 41.2815 33.4615 41.7594C33.5827 42.1008 33.7558 42.1861 34.1194 42.1861C40.3865 42.169 46.6536 42.1691 52.938 42.1691C53.1111 42.1691 53.2669 42.1691 53.44 42.1691C53.44 41.5204 53.44 40.9401 53.44 40.3256C46.567 40.3256 39.7632 40.3256 32.8902 40.3256Z" fill="white"/>
</g>
<defs>
<clipPath id="clip0_201_87">
<rect width="42" height="46" fill="white" transform="translate(17.1729 14.9275)"/>
</clipPath>
</defs>
</svg>
