<svg width="14" height="14" viewBox="0 0 14 14" fill="none" xmlns="http://www.w3.org/2000/svg">
<path d="M13.117 5.88206C12.9012 5.88206 12.7235 5.72603 12.6727 5.50499C12.66 5.43997 12.6473 5.37496 12.6346 5.32295C12.5966 5.14092 12.5458 4.95888 12.495 4.78985C12.038 3.5026 11.1748 2.55341 9.90535 1.9553C9.24524 1.64324 8.54705 1.48721 7.81078 1.48721C7.63305 1.48721 7.45533 1.50021 7.27761 1.51321C7.16336 1.53922 7.03642 1.55222 6.90947 1.56522L6.83331 1.57822C6.80792 1.57822 6.78253 1.57822 6.75714 1.57822C6.52864 1.57822 6.33823 1.42219 6.30014 1.20115C6.27475 1.07113 6.30014 0.941101 6.37631 0.837081C6.45248 0.733061 6.56672 0.668048 6.69367 0.655046C6.96025 0.616038 7.21414 0.590033 7.42994 0.564028L7.64575 0.538023H7.65844C9.5626 0.57703 11.0605 1.22716 12.2284 2.52741C12.9266 3.30756 13.3836 4.24374 13.574 5.32295C13.6248 5.583 13.4598 5.81705 13.2059 5.86906C13.1678 5.88206 13.1424 5.88206 13.117 5.88206ZM10.9336 6.0901C11.0605 6.0641 11.1621 5.98608 11.2256 5.88206C11.289 5.77804 11.3144 5.64802 11.289 5.51799C11.2002 5.0629 11.0605 4.67283 10.8574 4.33476C10.1212 3.13853 9.04213 2.52741 7.54419 2.4624H7.5315C7.5315 2.4624 7.40455 2.4754 7.35378 2.4884C7.21414 2.5014 7.04911 2.52741 6.88408 2.54041C6.75714 2.56642 6.65559 2.63143 6.57942 2.73545C6.50325 2.83947 6.47786 2.9695 6.50325 3.09952C6.54134 3.32056 6.73175 3.4896 6.96025 3.4896C6.98564 3.4896 7.01103 3.4896 7.03642 3.4896C7.22683 3.46359 7.41725 3.45059 7.59497 3.45059C7.72192 3.45059 7.83616 3.46359 7.95041 3.47659C8.97866 3.59362 10.1212 4.34776 10.375 5.72603C10.4131 5.97308 10.6035 6.12911 10.832 6.12911C10.8701 6.1031 10.9082 6.1031 10.9336 6.0901ZM9.23255 6.84425C9.35949 6.81824 9.46105 6.74023 9.53721 6.63621C9.60069 6.53219 9.62607 6.38916 9.58799 6.25913C9.54991 6.11611 9.52452 5.97308 9.46105 5.84305C9.1056 4.97188 8.26777 4.41278 7.31569 4.39977H7.303L7.17606 4.41278C7.08719 4.42578 6.99833 4.42578 6.92217 4.43878C6.79522 4.45178 6.66828 4.5168 6.59211 4.62082C6.51595 4.72484 6.49056 4.84186 6.50325 4.97188C6.54134 5.20593 6.73175 5.37496 6.98564 5.37496C6.99833 5.37496 7.02372 5.37496 7.03642 5.37496C7.13797 5.36196 7.23953 5.34896 7.34108 5.34896C7.37917 5.34896 7.42994 5.34896 7.46803 5.34896C7.91233 5.40097 8.25508 5.60901 8.49627 5.98608C8.57244 6.11611 8.62322 6.25913 8.6613 6.44117C8.71208 6.67521 8.8898 6.83124 9.1183 6.83124C9.16908 6.85725 9.19447 6.84425 9.23255 6.84425ZM10.5528 13.5145C11.3779 13.2285 12.0634 12.7474 12.6727 12.1233C12.8631 11.9282 13.0409 11.7072 13.1678 11.4471C13.3075 11.1481 13.3075 10.849 13.1043 10.576C12.9647 10.3809 12.8124 10.1989 12.6346 10.0429C12.1396 9.56178 11.5683 9.1587 10.9844 8.79463C10.6289 8.57358 10.2608 8.35254 9.85457 8.20951C9.38488 8.04048 9.02944 8.17051 8.76286 8.58659C8.69938 8.69061 8.63591 8.80763 8.58513 8.92465C8.47088 9.1587 8.36933 9.39274 8.25508 9.63979C8.22969 9.6918 8.19161 9.7048 8.14083 9.6788C8.03927 9.62679 7.92503 9.58778 7.82347 9.52277C7.11258 9.11969 6.47786 8.62559 5.89392 8.06648C5.32267 7.50738 4.84029 6.88326 4.42137 6.19412C4.28173 5.97308 4.18018 5.75204 4.06593 5.51799C4.01515 5.41397 4.01515 5.40097 4.1294 5.34896C4.26904 5.28394 4.40868 5.21893 4.54832 5.15392C4.76412 5.0369 4.99262 4.93288 5.19573 4.80285C5.4877 4.59481 5.62734 4.29575 5.55117 3.91868C5.51309 3.76265 5.46231 3.60662 5.38615 3.46359C4.99262 2.59242 4.47215 1.81227 3.87551 1.08413C3.6724 0.837081 3.4566 0.616038 3.2154 0.434003C2.92343 0.21296 2.61877 0.199957 2.30141 0.381993C2.14907 0.47301 1.99674 0.564028 1.8698 0.694053C1.24777 1.22716 0.778079 1.89029 0.448025 2.64443C0.282998 3.02151 0.168748 3.42458 0.181443 3.85367C0.194137 4.21774 0.282998 4.5558 0.397248 4.89387C0.66383 5.64802 1.04466 6.32415 1.47627 6.98728C2.72032 8.87264 4.23096 10.472 6.00817 11.8242C6.80792 12.4353 7.64575 12.9814 8.58513 13.3585C8.97866 13.5145 9.38488 13.6446 9.8038 13.6446C10.0704 13.6576 10.3116 13.6056 10.5528 13.5145ZM1.1843 2.91749C1.47627 2.28036 1.8698 1.72125 2.39027 1.25316C2.46643 1.18815 2.55529 1.13614 2.64416 1.07113C2.69493 1.03212 2.73302 1.04512 2.78379 1.08413C2.96152 1.25316 3.13924 1.40919 3.29157 1.60423C3.83743 2.25436 4.30712 2.9695 4.67526 3.74965C4.72604 3.84066 4.75143 3.94468 4.78951 4.0487C4.8149 4.10071 4.8022 4.13972 4.75143 4.16573C4.61179 4.24374 4.47215 4.33476 4.31982 4.39977C4.15479 4.47779 3.97707 4.5558 3.82473 4.63382C3.71049 4.69883 3.59624 4.77685 3.49468 4.86786C3.29157 5.0499 3.2281 5.29695 3.29157 5.57C3.36774 5.90807 3.53276 6.19412 3.69779 6.49318C4.16748 7.27333 4.72604 8.01447 5.38615 8.6516C6.03356 9.27572 6.73175 9.82183 7.50611 10.2509C7.65844 10.3289 7.82347 10.4069 7.9885 10.459C8.34394 10.576 8.63591 10.485 8.85172 10.1599C8.97866 9.95185 9.08022 9.71781 9.19446 9.49676C9.27063 9.34073 9.3468 9.1717 9.43566 9.01567C9.49913 8.91165 9.51183 8.91165 9.62607 8.95066C9.99421 9.08068 10.337 9.28872 10.667 9.49676C11.1875 9.82183 11.6826 10.1859 12.1396 10.615C12.2538 10.719 12.3554 10.849 12.4569 10.966C12.5077 11.0311 12.5077 11.0831 12.4696 11.1611C12.33 11.3951 12.1523 11.5772 11.9618 11.7592C11.581 12.1103 11.1494 12.3963 10.6797 12.6304C10.1465 12.8904 9.62607 12.9164 9.06752 12.7084C8.4328 12.4613 7.83616 12.1363 7.26492 11.7592C5.09417 10.2899 3.29157 8.43056 1.89519 6.16812C1.55244 5.62201 1.26047 5.0629 1.08275 4.43878C1.01927 4.23074 0.993884 4.0227 0.968495 3.91868C0.955801 3.4896 1.04466 3.20354 1.1843 2.91749Z" fill="#10ABBD"/>
</svg>
