<svg width="15" height="14" viewBox="0 0 15 14" fill="none" xmlns="http://www.w3.org/2000/svg">
<path d="M14.367 9.87343C14.367 10.7779 14.367 11.6823 14.367 12.5867C14.367 13.2477 13.9916 13.6129 13.3433 13.6129C12.3879 13.6129 11.4496 13.6129 10.4942 13.6129C9.86295 13.6129 9.48762 13.2477 9.48762 12.5867C9.48762 11.1083 9.48762 9.61254 9.48762 8.13414C9.48762 7.82106 9.38525 7.7341 9.07816 7.7341C8.13983 7.7341 7.18443 7.7341 6.2461 7.7341C5.93901 7.7341 5.83664 7.83845 5.83664 8.15153C5.83664 9.64732 5.81958 11.1431 5.83664 12.6215C5.83664 13.1781 5.46131 13.6303 4.84713 13.6303C3.87467 13.6129 2.91928 13.6303 1.94682 13.6303C1.36676 13.6129 0.974365 13.2477 0.974365 12.6389C0.974365 10.7953 0.974365 8.9516 0.974365 7.12534C0.974365 6.79488 1.11085 6.55137 1.33264 6.32527C2.66337 4.96861 3.9941 3.61196 5.34189 2.25531C5.88783 1.69874 6.43376 1.14216 6.9797 0.585586C7.25268 0.307299 7.59389 0.168155 7.96922 0.324692C8.10571 0.37687 8.24219 0.481228 8.34455 0.585586C10.2553 2.48142 12.1491 4.41204 14.0428 6.34266C14.2646 6.56877 14.367 6.82966 14.367 7.14274C14.367 8.06456 14.367 8.969 14.367 9.87343ZM4.6424 9.36904C4.6424 8.9516 4.6424 8.55157 4.6424 8.13414C4.6424 7.14274 5.2907 6.4818 6.26316 6.4818H7.67919H9.09522C10.0506 6.4818 10.6989 7.14274 10.6989 8.11674V12.378H13.1557V9.09075C13.1557 8.44721 13.1557 7.82106 13.1557 7.17752C12.422 6.42962 11.6884 5.68173 10.9548 4.93383C9.86295 3.82068 8.77107 2.70753 7.66213 1.59438C7.33798 1.92484 5.18834 4.11636 5.18834 4.11636C4.19882 5.14254 3.19225 6.15134 2.18567 7.17752V8.79507C2.18567 9.99518 2.18567 11.1779 2.18567 12.378C2.40746 12.378 3.4311 12.378 3.70407 12.378C4.01116 12.378 4.33531 12.378 4.6424 12.378C4.62534 11.3692 4.62534 10.3604 4.6424 9.36904Z" fill="#10ABBD"/>
</svg>
