<svg width="45" height="45" viewBox="0 0 45 45" fill="none" xmlns="http://www.w3.org/2000/svg">
<path d="M44.5399 0.0354004H0.710938V44.0354H44.5399V29.5138C44.7109 29.2651 44.8042 28.9386 44.8042 28.5499C44.8042 28.099 44.7109 27.8191 44.5399 27.5859" fill="url(#paint0_radial_1_213)"/>
<path d="M4.66005 19.0658L3.82048 17.0135L2.9809 19.0658H4.66005ZM23.2396 18.2573C23.0685 18.3662 22.8664 18.3662 22.6332 18.3662H21.1406V17.2156H22.6643C22.882 17.2156 23.0996 17.2312 23.2551 17.3089C23.4106 17.3867 23.5194 17.5421 23.5194 17.7598C23.4883 17.993 23.395 18.164 23.2396 18.2573ZM33.9208 19.0658L33.0657 17.0135L32.2106 19.0658H33.9208ZM14.0198 21.3047H12.7604V17.2623L10.9724 21.3047H9.88408L8.0961 17.2623V21.3047H5.57737L5.11094 20.1542H2.54557L2.06359 21.3047H0.726485L2.93426 16.1428H4.76889L6.85228 21.0248V16.1428H8.85793L10.4749 19.6411L11.9519 16.1428H14.0042L14.0198 21.3047ZM19.0417 21.3047H14.9371V16.1428H19.0572V17.2156H16.1654V18.1485H18.9795V19.2057H16.1654V20.2319H19.0417V21.3047ZM24.8565 17.5266C24.8565 18.3506 24.3124 18.7704 23.9858 18.8948C24.2502 19.0036 24.4834 19.1746 24.5922 19.3301C24.7632 19.5789 24.7943 19.8121 24.7943 20.2785V21.2891H23.5505V20.6361C23.5505 20.3252 23.5816 19.8743 23.3484 19.6255C23.1618 19.439 22.8975 19.4079 22.4466 19.4079H21.1251V21.2891H19.8968V16.1273H22.7265C23.3484 16.1273 23.8148 16.1428 24.2191 16.3761C24.6233 16.6248 24.8565 16.9513 24.8565 17.5266ZM26.8311 21.3047H25.5717V16.1428H26.8311V21.3047ZM41.4148 21.3047H39.6735L37.3413 17.4333V21.3047H34.8381L34.3562 20.1542H31.7908L31.3244 21.3047H29.8784C29.2721 21.3047 28.5258 21.1648 28.0904 20.7294C27.6551 20.2941 27.4374 19.7033 27.4374 18.7549C27.4374 17.993 27.5774 17.2934 28.106 16.7337C28.5102 16.3294 29.1321 16.1273 29.9717 16.1273H31.1689V17.2312H30.0028C29.5519 17.2312 29.3032 17.2934 29.0544 17.5421C28.8367 17.7598 28.6968 18.164 28.6968 18.7082C28.6968 19.2679 28.8056 19.6566 29.0389 19.9209C29.2254 20.1231 29.5675 20.1853 29.894 20.1853H30.4537L32.195 16.1273H34.0452L36.1286 21.0093V16.1273H38.0099L40.171 19.7188V16.1273H41.4304V21.3047H41.4148ZM0.710938 22.3153H2.80988L3.29186 21.1648H4.3491L4.81553 22.3153H8.95122V21.4446L9.32437 22.3308H11.4699L11.8431 21.4446V22.3308H22.1357V20.4496H22.3378C22.4777 20.4496 22.5244 20.4651 22.5244 20.6983V22.3308H27.8417V21.8955C28.277 22.1287 28.9456 22.3308 29.8162 22.3308H32.0551L32.5371 21.1803H33.5943L34.0608 22.3308H38.383V21.2425L39.036 22.3308H42.4876V15.1167H39.0671V15.9718L38.5851 15.1167H35.0714V15.9718L34.636 15.1167H29.894C29.101 15.1167 28.4014 15.2255 27.8417 15.5365V15.1167H24.5611V15.5365C24.2035 15.2255 23.706 15.1167 23.1618 15.1167H11.2212L10.4283 16.9824L9.60422 15.1167H5.82613V15.9718L5.42189 15.1167H2.20352L0.710938 18.5372V22.3153Z" fill="white"/>
<path d="M44.5399 26.1089H42.3011C42.0834 26.1089 41.9279 26.1245 41.8035 26.2022C41.6791 26.2799 41.617 26.4043 41.617 26.5753C41.617 26.7775 41.7258 26.9018 41.8813 26.964C42.0056 27.0107 42.1456 27.0262 42.3632 27.0262L43.0318 27.0418C43.7004 27.0573 44.1512 27.1817 44.4311 27.4616C44.4777 27.5082 44.5088 27.5393 44.5399 27.5859V26.1089ZM44.5399 29.5139C44.2445 29.9492 43.6537 30.1669 42.8608 30.1669H40.482V29.063H42.8452C43.0784 29.063 43.2495 29.0319 43.3428 28.9386C43.436 28.8609 43.4827 28.7365 43.4827 28.5965C43.4827 28.4411 43.4205 28.3322 43.3272 28.2545C43.2339 28.1768 43.1095 28.1457 42.8919 28.1457C41.7413 28.099 40.2954 28.1768 40.2954 26.5443C40.2954 25.798 40.7774 25.005 42.0678 25.005H44.5244V23.9789H42.2389C41.5548 23.9789 41.0572 24.1499 40.6996 24.3987V23.9789H37.3258C36.7816 23.9789 36.1597 24.1188 35.8488 24.3987V23.9789H29.8318V24.3987C29.3498 24.0566 28.5413 23.9789 28.1682 23.9789H24.188V24.3987C23.8148 24.0255 22.9597 23.9789 22.4466 23.9789H18L16.9894 25.0828L16.041 23.9789H9.43321V31.1775H15.9477L16.9894 30.058L17.9844 31.1775H21.9958V29.4828H22.3844C22.9131 29.4983 23.5505 29.4672 24.0947 29.234V31.1775H27.4064V29.2962H27.5618C27.764 29.2962 27.7795 29.3117 27.7795 29.5139V31.1775H37.87C38.5074 31.1775 39.176 31.0064 39.5491 30.711V31.1775H42.7364C43.4049 31.1775 44.0424 31.0842 44.5399 30.851V29.5139ZM39.6269 27.446C39.8601 27.6948 40 28.0057 40 28.5344C40 29.6382 39.3004 30.1669 38.0721 30.1669H35.6777V29.063H38.0721C38.3053 29.063 38.4763 29.0319 38.5696 28.9386C38.6473 28.8609 38.7095 28.7365 38.7095 28.5965C38.7095 28.4411 38.6473 28.3322 38.5541 28.2545C38.4608 28.1768 38.3364 28.1457 38.1187 28.1457C36.9682 28.099 35.5223 28.1768 35.5223 26.5443C35.5223 25.798 35.9887 25.005 37.2792 25.005H39.7512V26.1089H37.4968C37.2791 26.1089 37.1237 26.1245 36.9993 26.2022C36.8594 26.2799 36.8127 26.4043 36.8127 26.5753C36.8127 26.7775 36.9215 26.9018 37.077 26.964C37.2014 27.0107 37.3413 27.0262 37.559 27.0262L38.2276 27.0418C38.8961 27.0573 39.347 27.1662 39.6269 27.446ZM28.5102 27.1351C28.3392 27.2284 28.1371 27.2439 27.9039 27.2439H26.4113V26.0934H27.935C28.1526 26.0934 28.3703 26.0934 28.5258 26.1867C28.6813 26.2644 28.7746 26.4354 28.7746 26.6531C28.7746 26.8552 28.6813 27.0418 28.5102 27.1351ZM29.2565 27.7725C29.5364 27.8814 29.7541 28.0524 29.8629 28.2079C30.0339 28.4566 30.065 28.6898 30.065 29.1563V30.1824H28.8212V29.545C28.8212 29.234 28.8523 28.7831 28.6191 28.5344C28.4325 28.3478 28.1682 28.3011 27.7173 28.3011H26.3958V30.1824H25.1519V25.0206H27.9972C28.6191 25.0206 29.07 25.0517 29.4742 25.2693C29.8629 25.5026 30.1117 25.8291 30.1117 26.4199C30.1272 27.2284 29.583 27.6481 29.2565 27.7725ZM30.8113 25.0206H34.9159V26.0934H32.024V27.0262H34.8382V28.0835H32.024V29.1096H34.9159V30.1824H30.8113V25.0206ZM22.5088 27.3994H20.923V26.0934H22.5244C22.9753 26.0934 23.2707 26.2799 23.2707 26.7308C23.2707 27.1662 22.9753 27.3994 22.5088 27.3994ZM19.6791 29.7004L17.7823 27.6015L19.6791 25.5647V29.7004ZM14.7972 29.0941H11.7654V28.0679H14.4707V27.0107H11.7654V26.0778H14.8594L16.212 27.5859L14.7972 29.0941ZM24.5922 26.7153C24.5922 28.1457 23.5194 28.4411 22.4466 28.4411H20.9074V30.1669H18.5131L16.9894 28.4566L15.4191 30.1669H10.5371V25.005H15.4968L17.0205 26.6997L18.5908 25.005H22.5244C23.4883 25.0206 24.5922 25.2849 24.5922 26.7153Z" fill="white"/>
<defs>
<radialGradient id="paint0_radial_1_213" cx="0" cy="0" r="1" gradientUnits="userSpaceOnUse" gradientTransform="translate(8.44555 7.72127) scale(41.1356)">
<stop stop-color="#C8C8C8"/>
<stop offset="0.0711" stop-color="#C5C5C5"/>
<stop offset="0.1575" stop-color="#BDBDBD"/>
<stop offset="0.2516" stop-color="#B1B1B1"/>
<stop offset="0.3514" stop-color="#9F9F9F"/>
<stop offset="0.4546" stop-color="#8A8A8A"/>
<stop offset="0.5" stop-color="#7E7E7E"/>
<stop offset="1" stop-color="#696969"/>
</radialGradient>
</defs>
</svg>
