<svg width="45" height="27" viewBox="0 0 45 27" fill="none" xmlns="http://www.w3.org/2000/svg">
<path fill-rule="evenodd" clip-rule="evenodd" d="M31.1217 26.0354L31.7949 26.0122L32.4449 25.9658L33.0949 25.8729L33.7449 25.7568L34.3717 25.6175L34.9985 25.455L35.6021 25.2461L36.1824 25.014L36.7628 24.7354L37.3199 24.4568L37.8771 24.155L38.411 23.8068L38.9217 23.4354L39.4092 23.064L39.8735 22.6461L40.3378 22.205L40.7557 21.764L41.1735 21.2997L41.5449 20.789L41.9164 20.3015L42.2646 19.7675L42.5664 19.2104L42.8682 18.6533L43.1235 18.0729L43.3557 17.4925L43.5646 16.889L43.7271 16.2622L43.8896 15.6354L43.9824 14.9854L44.0753 14.3354L44.1217 13.6854L44.1449 13.0122L44.1217 12.339L44.0753 11.689L43.9824 11.039L43.8896 10.389L43.7271 9.76219L43.5646 9.15861L43.3557 8.55504L43.1235 7.97469L42.8682 7.39433L42.5664 6.83719L42.2646 6.30326L41.9164 5.76933L41.5449 5.25861L41.1735 4.77111L40.7557 4.28361L40.3378 3.84254L39.8735 3.40147L39.4092 3.00683L38.9217 2.61219L38.411 2.26397L37.8771 1.91576L37.3199 1.61397L36.7628 1.31219L36.1824 1.05683L35.6021 0.824686L34.9985 0.615758L34.3717 0.453258L33.7449 0.290758L33.0949 0.174686L32.4449 0.105043L31.7949 0.0586147L31.1217 0.0354004L30.4485 0.0586147L29.7985 0.105043L29.1485 0.174686L28.4985 0.290758L27.8717 0.453258L27.2682 0.615758L26.6646 0.824686L26.061 1.05683L25.4807 1.31219L24.9235 1.61397L24.3896 1.91576L23.8557 2.26397L23.3449 2.61219L22.8574 3.00683L22.3932 3.40147L21.9521 3.84254L21.511 4.28361L21.1164 4.77111L20.7217 5.25861L20.3503 5.76933L20.0253 6.30326L19.7235 6.83719L19.4217 7.39433L19.1664 7.97469L18.9342 8.55504L18.7253 9.15861L18.5628 9.76219L18.4003 10.389L18.3074 11.039L18.2146 11.689L18.1682 12.339L18.1449 13.0122L18.1682 13.6854L18.2146 14.3354L18.3074 14.9854L18.4003 15.6354L18.5628 16.2622L18.7253 16.889L18.9342 17.4925L19.1664 18.0729L19.4217 18.6533L19.7235 19.2104L20.0253 19.7675L20.3503 20.3015L20.7217 20.789L21.1164 21.2997L21.511 21.764L21.9521 22.205L22.3932 22.6461L22.8574 23.064L23.3449 23.4354L23.8557 23.8068L24.3896 24.155L24.9235 24.4568L25.4807 24.7354L26.061 25.014L26.6646 25.2461L27.2682 25.455L27.8717 25.6175L28.4985 25.7568L29.1485 25.8729L29.7985 25.9658L30.4485 26.0122L31.1217 26.0354Z" fill="#B4B4B4"/>
<path fill-rule="evenodd" clip-rule="evenodd" d="M13.7342 26.0354L14.4074 26.0122L15.0574 25.9658L15.7074 25.8729L16.3574 25.7568L16.9842 25.6175L17.5877 25.455L18.1913 25.2461L18.7949 25.014L19.352 24.7354L19.9092 24.4568L20.4663 24.155L20.977 23.8068L21.4877 23.4354L21.9984 23.064L22.4627 22.6461L22.9038 22.205L23.3449 21.764L23.7395 21.2997L24.1342 20.789L24.4824 20.3015L24.8306 19.7675L25.1324 19.2104L25.4342 18.6533L25.6895 18.0729L25.9217 17.4925L26.1306 16.889L26.2931 16.2622L26.4324 15.6354L26.5484 14.9854L26.6413 14.3354L26.6877 13.6854L26.7109 13.0122L26.6877 12.339L26.6413 11.689L26.5484 11.039L26.4324 10.389L26.2931 9.76219L26.1306 9.15861L25.9217 8.55504L25.6895 7.97469L25.4342 7.39433L25.1324 6.83719L24.8306 6.30326L24.4824 5.76933L24.1342 5.25861L23.7395 4.77111L23.3449 4.28361L22.9038 3.84254L22.4627 3.40147L21.9984 3.00683L21.4877 2.61219L20.977 2.26397L20.4663 1.91576L19.9092 1.61397L19.352 1.31219L18.7949 1.05683L18.1913 0.824686L17.5877 0.615758L16.9842 0.453258L16.3574 0.290758L15.7074 0.174686L15.0574 0.105043L14.4074 0.0586147L13.7342 0.0354004L13.0609 0.0586147L12.4109 0.105043L11.7609 0.174686L11.1109 0.290758L10.4842 0.453258L9.85737 0.615758L9.25379 0.824686L8.67344 1.05683L8.09308 1.31219L7.51272 1.61397L6.97879 1.91576L6.44487 2.26397L5.93415 2.61219L5.44665 3.00683L4.98237 3.40147L4.51808 3.84254L4.10022 4.28361L3.68237 4.77111L3.28772 5.25861L2.93951 5.76933L2.59129 6.30326L2.28951 6.83719L1.98772 7.39433L1.73237 7.97469L1.50022 8.55504L1.29129 9.15861L1.12879 9.76219L0.966295 10.389L0.850223 11.039L0.78058 11.689L0.734152 12.339L0.710938 13.0122L0.734152 13.6854L0.78058 14.3354L0.850223 14.9854L0.966295 15.6354L1.12879 16.2622L1.29129 16.889L1.50022 17.4925L1.73237 18.0729L1.98772 18.6533L2.28951 19.2104L2.59129 19.7675L2.93951 20.3015L3.28772 20.789L3.68237 21.2997L4.10022 21.764L4.51808 22.205L4.98237 22.6461L5.44665 23.064L5.93415 23.4354L6.44487 23.8068L6.97879 24.155L7.51272 24.4568L8.09308 24.7354L8.67344 25.014L9.25379 25.2461L9.85737 25.455L10.4842 25.6175L11.1109 25.7568L11.7609 25.8729L12.4109 25.9658L13.0609 26.0122L13.7342 26.0354Z" fill="#4F4F4F"/>
<path fill-rule="evenodd" clip-rule="evenodd" d="M20.9075 5.02665H27.8022V4.30701H21.5111L20.9075 5.02665Z" fill="#B4B4B4"/>
<path fill-rule="evenodd" clip-rule="evenodd" d="M19.8628 6.58168H27.8021V5.88525H20.2807L19.8628 6.58168Z" fill="#B4B4B4"/>
<path fill-rule="evenodd" clip-rule="evenodd" d="M19.0968 8.16044H27.8021V7.4408H19.3985L19.0968 8.16044Z" fill="#B4B4B4"/>
<path fill-rule="evenodd" clip-rule="evenodd" d="M18.5626 9.71608H27.8018V9.01965H18.7947L18.5626 9.71608Z" fill="#B4B4B4"/>
<path fill-rule="evenodd" clip-rule="evenodd" d="M18.8644 17.3073H27.8251V16.6108H18.6554L18.8644 17.3073Z" fill="#B4B4B4"/>
<path fill-rule="evenodd" clip-rule="evenodd" d="M19.5377 18.8853H27.8252V18.1656H19.2127L19.5377 18.8853Z" fill="#B4B4B4"/>
<path fill-rule="evenodd" clip-rule="evenodd" d="M20.4663 20.4409H27.8252V19.7445H20.0252L20.4663 20.4409Z" fill="#B4B4B4"/>
<path fill-rule="evenodd" clip-rule="evenodd" d="M21.7429 22.0191H27.8251V21.2994H21.1394L21.7429 22.0191Z" fill="#B4B4B4"/>
<path fill-rule="evenodd" clip-rule="evenodd" d="M18.2609 11.2941H27.8019V10.5745H18.4002L18.2609 11.2941Z" fill="#B4B4B4"/>
<path fill-rule="evenodd" clip-rule="evenodd" d="M24.0877 15.7515H27.7323V15.0319H24.2038L24.0877 15.7515Z" fill="#B4B4B4"/>
<path fill-rule="evenodd" clip-rule="evenodd" d="M24.3663 14.1729H27.7324V13.4764H24.5056L24.3663 14.1729Z" fill="#B4B4B4"/>
<path fill-rule="evenodd" clip-rule="evenodd" d="M18.0056 13.4764H18.9574V14.1729H18.0521L18.0056 13.4764Z" fill="#B4B4B4"/>
<path fill-rule="evenodd" clip-rule="evenodd" d="M16.2412 12.6176H16.1948L16.1252 12.5944H16.0787H16.0091L15.9627 12.5712H15.893L15.8466 12.5479H15.7769H15.7305L15.6609 12.5247H15.568H15.4984H15.4055H15.2894L15.1734 12.5479H15.0573L14.9644 12.5712H14.8948L14.8019 12.5944L14.7555 12.6176L14.6859 12.664L14.6162 12.6872L14.593 12.7337L14.5466 12.7801L14.5234 12.8265L14.5002 12.8729L14.4769 12.9194V12.989L14.5002 13.0354L14.5234 13.0819L14.5466 13.1515L14.593 13.1979L14.6859 13.2908L14.7787 13.3604L14.918 13.4069L15.0341 13.4533L15.1734 13.4997L15.3359 13.5462L15.4752 13.6158L15.6144 13.6622L15.7537 13.7319L15.8698 13.8247L15.9859 13.9408L16.0787 14.0801L16.1484 14.2426L16.1716 14.4283L16.1948 14.6837L16.1716 14.9622L16.1484 15.1479L16.1019 15.3337L16.0323 15.4962L15.9394 15.6587L15.8466 15.7747L15.7305 15.8908L15.6144 15.9837L15.4752 16.0533L15.3359 16.1229L15.1734 16.1926L15.0341 16.239L14.8716 16.2622L14.7323 16.2854L14.593 16.3087H14.4537H14.3144H14.1287H13.943H13.7805H13.6412H13.5019L13.3859 16.2854H13.293H13.1769L13.1073 16.2622L13.0144 16.239H12.9216L12.8519 16.2158L12.7823 16.1926L12.7127 16.1694L12.643 16.1462L12.5734 16.1229L12.7591 15.1479H12.8055L12.8519 15.1712L12.9216 15.1944H12.9912L13.0609 15.2176L13.1537 15.2408L13.2466 15.264L13.3627 15.2872H13.4555L13.5716 15.3104L13.6877 15.3337H13.8269L13.943 15.3569H14.0823H14.1984H14.3377L14.4537 15.3104L14.5466 15.2872L14.6394 15.2408L14.6859 15.1712L14.7323 15.1015L14.7787 15.0319L14.8019 14.9622L14.8252 14.9158V14.7765L14.7787 14.6604L14.7091 14.5908L14.593 14.4979L14.4769 14.4515L14.3144 14.3819L14.1519 14.3122L13.9662 14.2426L13.8037 14.1729L13.6412 14.0801L13.4787 13.964L13.3394 13.8247L13.2234 13.6622L13.1537 13.4533L13.1073 13.2212V12.9426L13.1305 12.7801L13.1769 12.6176L13.2002 12.4551L13.2698 12.3158L13.3394 12.1997L13.4091 12.0837L13.5019 11.9676L13.618 11.8747L13.7341 11.7819L13.8734 11.7122L14.0359 11.6426L14.2216 11.5962L14.4073 11.5729L14.6162 11.5265L14.8716 11.5033H15.1269H15.2894H15.4287L15.568 11.5265H15.6841H15.8002L15.893 11.5497H15.9859H16.0787L16.1484 11.5729H16.1948L16.2644 11.5962H16.3109H16.3573L16.4037 11.6194H16.4269H16.4734L16.2412 12.6176Z" fill="white"/>
<path d="M16.2412 12.6176H16.1948L16.1252 12.5944H16.0787H16.0091L15.9627 12.5712H15.893L15.8466 12.5479H15.7769H15.7305L15.6609 12.5247H15.568H15.4984H15.4055H15.2894L15.1734 12.5479H15.0573L14.9644 12.5712H14.8948L14.8019 12.5944L14.7555 12.6176L14.6859 12.664L14.6162 12.6872L14.593 12.7337L14.5466 12.7801L14.5234 12.8265L14.5002 12.8729L14.4769 12.9194V12.989L14.5002 13.0354L14.5234 13.0819L14.5466 13.1515L14.593 13.1979L14.6859 13.2908L14.7787 13.3604L14.918 13.4069L15.0341 13.4533L15.1734 13.4997L15.3359 13.5462L15.4752 13.6158L15.6144 13.6622L15.7537 13.7319L15.8698 13.8247L15.9859 13.9408L16.0787 14.0801L16.1484 14.2426L16.1716 14.4283L16.1948 14.6837L16.1716 14.9622L16.1484 15.1479L16.1019 15.3337L16.0323 15.4962L15.9394 15.6587L15.8466 15.7747L15.7305 15.8908L15.6144 15.9837L15.4752 16.0533L15.3359 16.1229L15.1734 16.1926L15.0341 16.239L14.8716 16.2622L14.7323 16.2854L14.593 16.3087H14.4537H14.3144H14.1287H13.943H13.7805H13.6412H13.5019L13.3859 16.2854H13.293H13.1769L13.1073 16.2622L13.0144 16.239H12.9216L12.8519 16.2158L12.7823 16.1926L12.7127 16.1694L12.643 16.1462L12.5734 16.1229L12.7591 15.1479H12.8055L12.8519 15.1712L12.9216 15.1944H12.9912L13.0609 15.2176L13.1537 15.2408L13.2466 15.264L13.3627 15.2872H13.4555L13.5716 15.3104L13.6877 15.3337H13.8269L13.943 15.3569H14.0823H14.1984H14.3377L14.4537 15.3104L14.5466 15.2872L14.6394 15.2408L14.6859 15.1712L14.7323 15.1015L14.7787 15.0319L14.8019 14.9622L14.8252 14.9158V14.7765L14.7787 14.6604L14.7091 14.5908L14.593 14.4979L14.4769 14.4515L14.3144 14.3819L14.1519 14.3122L13.9662 14.2426L13.8037 14.1729L13.6412 14.0801L13.4787 13.964L13.3394 13.8247L13.2234 13.6622L13.1537 13.4533L13.1073 13.2212V12.9426L13.1305 12.7801L13.1769 12.6176L13.2002 12.4551L13.2698 12.3158L13.3394 12.1997L13.4091 12.0837L13.5019 11.9676L13.618 11.8747L13.7341 11.7819L13.8734 11.7122L14.0359 11.6426L14.2216 11.5962L14.4073 11.5729L14.6162 11.5265L14.8716 11.5033H15.1269H15.2894H15.4287L15.568 11.5265H15.6841H15.8002L15.893 11.5497H15.9859H16.0787L16.1484 11.5729H16.1948L16.2644 11.5962H16.3109H16.3573L16.4037 11.6194H16.4269H16.4734L16.2412 12.6176Z" stroke="white" stroke-width="0.216" stroke-miterlimit="2.6131"/>
<path fill-rule="evenodd" clip-rule="evenodd" d="M17.286 10.5511H18.4931L18.3306 11.5958H19.0503L18.8878 12.594L18.1217 12.5708L17.7039 15.0083V15.1011L17.7271 15.1708L17.7735 15.2404L17.8199 15.2869L17.9128 15.3101L17.9824 15.3333L18.0753 15.3565H18.1914H18.2842H18.3771L18.4467 15.3333H18.5164L18.586 15.3101L18.6092 15.2869H18.6556L18.4931 16.0994L18.4699 16.1226L18.4467 16.1458H18.4003L18.3771 16.169L18.3539 16.1922H18.3074L18.2842 16.2154H18.2378L18.1914 16.2386H18.1449L18.0985 16.2619H18.0521H17.9824L17.9128 16.2851H17.8431H17.7735H17.4485H17.2628L17.1235 16.2619L16.961 16.2386L16.8449 16.2154L16.7521 16.169L16.6592 16.1226L16.5896 16.0761L16.5431 16.0065L16.4967 15.9601L16.4735 15.8904L16.4503 15.7976L16.4271 15.7279V15.6351V15.5422V15.4261L16.4503 15.3333L17.286 10.5511Z" fill="white"/>
<path d="M17.286 10.5511H18.4931L18.3306 11.5958H19.0503L18.8878 12.594L18.1217 12.5708L17.7039 15.0083V15.1011L17.7271 15.1708L17.7735 15.2404L17.8199 15.2869L17.9128 15.3101L17.9824 15.3333L18.0753 15.3565H18.1914H18.2842H18.3771L18.4467 15.3333H18.5164L18.586 15.3101L18.6092 15.2869H18.6556L18.4931 16.0994L18.4699 16.1226L18.4467 16.1458H18.4003L18.3771 16.169L18.3539 16.1922H18.3074L18.2842 16.2154H18.2378L18.1914 16.2386H18.1449L18.0985 16.2619H18.0521H17.9824L17.9128 16.2851H17.8431H17.7735H17.4485H17.2628L17.1235 16.2619L16.961 16.2386L16.8449 16.2154L16.7521 16.169L16.6592 16.1226L16.5896 16.0761L16.5431 16.0065L16.4967 15.9601L16.4735 15.8904L16.4503 15.7976L16.4271 15.7279V15.6351V15.5422V15.4261L16.4503 15.3333L17.286 10.5511Z" stroke="white" stroke-width="0.216" stroke-miterlimit="2.6131"/>
<path fill-rule="evenodd" clip-rule="evenodd" d="M20.0254 14.2426L20.0022 14.3122V14.4051L20.0254 14.4747V14.5676L20.0719 14.6372L20.0951 14.7301L20.1415 14.7997L20.1879 14.8926L20.2576 14.9622L20.3272 15.0319L20.3969 15.1015L20.4665 15.1479L20.5594 15.1944L20.6522 15.2408L20.7219 15.264L20.8147 15.2872H20.9308L21.0469 15.3104L21.1629 15.3337H21.279H21.3719H21.5111H21.604H21.7433L21.8594 15.3104L21.9754 15.2872L22.0915 15.264L22.2076 15.2176L22.3236 15.1712L22.4629 15.1247L22.579 15.0551L22.7183 14.9622L22.5326 16.0533L22.4629 16.0765L22.3933 16.1229L22.3236 16.1462L22.254 16.1694L22.1844 16.1926L22.1147 16.2158L22.0451 16.239H21.9754L21.9058 16.2622H21.8129L21.7201 16.2854H21.6272H21.5111H21.3951H21.2558H21.1165H20.8844L20.6754 16.2622L20.4433 16.239L20.2344 16.1926L20.0254 16.1229L19.8165 16.0301L19.6076 15.9372L19.4219 15.7979L19.2594 15.6587L19.1201 15.4729L18.9808 15.264L18.8879 15.0319L18.7951 14.7765L18.7486 14.4747V14.1729L18.7719 13.8015V13.6622L18.8183 13.4997L18.8415 13.3372L18.8879 13.1515L18.9576 12.9658L19.0272 12.7569L19.1433 12.5712L19.2594 12.3854L19.3986 12.2229L19.5611 12.0372L19.7701 11.8979L19.979 11.7587L20.2344 11.6658L20.5129 11.5729L20.8379 11.5265L21.1861 11.5033H21.3719L21.5344 11.5265L21.7201 11.5729L21.9058 11.5962L22.0915 11.6658L22.254 11.7587L22.4165 11.8515L22.5558 11.9676L22.6951 12.1301L22.7879 12.2926L22.8808 12.5015L22.9504 12.7337L22.9736 12.989V13.2908L22.9504 13.639L22.8808 14.0104L22.8576 14.2658H19.6772L19.8629 13.4069H21.7897V13.2908V13.1979V13.0819L21.7665 13.0122L21.7433 12.9194L21.6969 12.8497L21.6736 12.7801L21.6272 12.7104L21.5576 12.664L21.5111 12.6176L21.4415 12.5944L21.3719 12.5479L21.3022 12.5247L21.2326 12.5015H21.1629L21.0933 12.4783H21.0004L20.9308 12.5015L20.8379 12.5247L20.7683 12.5479L20.6986 12.5712L20.629 12.6176L20.5594 12.664L20.5129 12.7104L20.4433 12.7801L20.3969 12.8497L20.3504 12.9194L20.304 12.989L20.2808 13.0587L20.2344 13.1515L20.2111 13.2444L20.1879 13.3372L20.0254 14.2426Z" fill="white"/>
<path d="M20.0254 14.2426L20.0022 14.3122V14.4051L20.0254 14.4747V14.5676L20.0719 14.6372L20.0951 14.7301L20.1415 14.7997L20.1879 14.8926L20.2576 14.9622L20.3272 15.0319L20.3969 15.1015L20.4665 15.1479L20.5594 15.1944L20.6522 15.2408L20.7219 15.264L20.8147 15.2872H20.9308L21.0469 15.3104L21.1629 15.3337H21.279H21.3719H21.5111H21.604H21.7433L21.8594 15.3104L21.9754 15.2872L22.0915 15.264L22.2076 15.2176L22.3236 15.1712L22.4629 15.1247L22.579 15.0551L22.7183 14.9622L22.5326 16.0533L22.4629 16.0765L22.3933 16.1229L22.3236 16.1462L22.254 16.1694L22.1844 16.1926L22.1147 16.2158L22.0451 16.239H21.9754L21.9058 16.2622H21.8129L21.7201 16.2854H21.6272H21.5111H21.3951H21.2558H21.1165H20.8844L20.6754 16.2622L20.4433 16.239L20.2344 16.1926L20.0254 16.1229L19.8165 16.0301L19.6076 15.9372L19.4219 15.7979L19.2594 15.6587L19.1201 15.4729L18.9808 15.264L18.8879 15.0319L18.7951 14.7765L18.7486 14.4747V14.1729L18.7719 13.8015V13.6622L18.8183 13.4997L18.8415 13.3372L18.8879 13.1515L18.9576 12.9658L19.0272 12.7569L19.1433 12.5712L19.2594 12.3854L19.3986 12.2229L19.5611 12.0372L19.7701 11.8979L19.979 11.7587L20.2344 11.6658L20.5129 11.5729L20.8379 11.5265L21.1861 11.5033H21.3719L21.5344 11.5265L21.7201 11.5729L21.9058 11.5962L22.0915 11.6658L22.254 11.7587L22.4165 11.8515L22.5558 11.9676L22.6951 12.1301L22.7879 12.2926L22.8808 12.5015L22.9504 12.7337L22.9736 12.989V13.2908L22.9504 13.639L22.8808 14.0104L22.8576 14.2658H19.6772L19.8629 13.4069H21.7897V13.2908V13.1979V13.0819L21.7665 13.0122L21.7433 12.9194L21.6969 12.8497L21.6736 12.7801L21.6272 12.7104L21.5576 12.664L21.5111 12.6176L21.4415 12.5944L21.3719 12.5479L21.3022 12.5247L21.2326 12.5015H21.1629L21.0933 12.4783H21.0004L20.9308 12.5015L20.8379 12.5247L20.7683 12.5479L20.6986 12.5712L20.629 12.6176L20.5594 12.664L20.5129 12.7104L20.4433 12.7801L20.3969 12.8497L20.3504 12.9194L20.304 12.989L20.2808 13.0587L20.2344 13.1515L20.2111 13.2444L20.1879 13.3372L20.0254 14.2426Z" stroke="white" stroke-width="0.216" stroke-miterlimit="2.6131"/>
<path fill-rule="evenodd" clip-rule="evenodd" d="M30.4715 11.8748L30.4251 11.8284L30.3554 11.8052L30.309 11.7819L30.2394 11.7355L30.1697 11.7123L30.1001 11.6891L30.0304 11.6659L29.9376 11.6427L29.8679 11.6194L29.7751 11.5962L29.6822 11.573H29.5894H29.4965L29.4037 11.5498H29.2876H29.1715H29.0787L28.9626 11.573H28.8465L28.7072 11.5962L28.5912 11.6427L28.4751 11.6891L28.3358 11.7355L28.2197 11.8284L28.1037 11.9212L27.9876 12.0373L27.8715 12.1766L27.7787 12.3391L27.6858 12.5248L27.5929 12.7569L27.5001 12.9891L27.4304 13.2677L27.4072 13.4302L27.384 13.5927V13.7319V13.8944L27.4072 14.0337L27.4304 14.173L27.4769 14.3123L27.5233 14.4284L27.5929 14.5677L27.6626 14.6605L27.7554 14.7766L27.8483 14.8694L27.9876 14.9391L28.1037 15.0087L28.2662 15.0552L28.4287 15.1016L28.4751 15.1248H28.5447L28.6376 15.148H28.7072H28.8233H28.9162H29.0322H29.1251L29.2412 15.1248L29.3572 15.1016L29.4733 15.0784L29.5894 15.0552L29.6822 15.0087L29.7983 14.9391L29.8912 14.8694L29.9608 14.7998L29.7751 15.9605L29.7519 15.9837L29.7287 16.0069L29.6822 16.0534L29.6358 16.0766L29.5894 16.0998L29.5429 16.1462L29.4733 16.1694L29.3804 16.1927L29.2876 16.2159L29.1715 16.2391L29.0322 16.2623L28.8929 16.2855H28.7072H28.5215H28.2894H28.0572L27.8483 16.2623L27.6394 16.2159L27.4537 16.1462L27.2447 16.0534L27.059 15.9605L26.8733 15.8212L26.6876 15.6587L26.5251 15.4962L26.3858 15.2873L26.2697 15.0784L26.1537 14.823L26.084 14.5677L26.0144 14.2659V13.9641V13.6159L26.0608 13.2444L26.1072 13.0587L26.1304 12.8962L26.1769 12.7337L26.2233 12.5712L26.2697 12.4087L26.3394 12.2462L26.3858 12.1069L26.4554 11.9677L26.5251 11.8284L26.5715 11.7123L26.6644 11.5962L26.734 11.4802L26.8037 11.3641L26.8965 11.248L26.9894 11.1552L27.0822 11.0623L27.1751 10.9927L27.2912 10.8998L27.384 10.8302L27.5001 10.7605L27.6162 10.6909L27.7322 10.6212L27.8483 10.5748L27.9876 10.5284L28.1269 10.4819L28.2662 10.4587L28.4054 10.4123L28.5447 10.3891L28.7072 10.3659H28.8465L29.009 10.3427H29.1715H29.3108L29.4501 10.3659H29.5894L29.7287 10.3891L29.8447 10.4123L29.9608 10.4355L30.0769 10.4587L30.1697 10.4819L30.2858 10.5052L30.3554 10.5284L30.4483 10.5516L30.5179 10.5748L30.5876 10.598L30.634 10.6212L30.6804 10.6444H30.7037L30.4715 11.8748Z" fill="white"/>
<path d="M30.4715 11.8748L30.4251 11.8284L30.3554 11.8052L30.309 11.7819L30.2394 11.7355L30.1697 11.7123L30.1001 11.6891L30.0304 11.6659L29.9376 11.6427L29.8679 11.6194L29.7751 11.5962L29.6822 11.573H29.5894H29.4965L29.4037 11.5498H29.2876H29.1715H29.0787L28.9626 11.573H28.8465L28.7072 11.5962L28.5912 11.6427L28.4751 11.6891L28.3358 11.7355L28.2197 11.8284L28.1037 11.9212L27.9876 12.0373L27.8715 12.1766L27.7787 12.3391L27.6858 12.5248L27.5929 12.7569L27.5001 12.9891L27.4304 13.2677L27.4072 13.4302L27.384 13.5927V13.7319V13.8944L27.4072 14.0337L27.4304 14.173L27.4769 14.3123L27.5233 14.4284L27.5929 14.5677L27.6626 14.6605L27.7554 14.7766L27.8483 14.8694L27.9876 14.9391L28.1037 15.0087L28.2662 15.0552L28.4287 15.1016L28.4751 15.1248H28.5447L28.6376 15.148H28.7072H28.8233H28.9162H29.0322H29.1251L29.2412 15.1248L29.3572 15.1016L29.4733 15.0784L29.5894 15.0552L29.6822 15.0087L29.7983 14.9391L29.8912 14.8694L29.9608 14.7998L29.7751 15.9605L29.7519 15.9837L29.7287 16.0069L29.6822 16.0534L29.6358 16.0766L29.5894 16.0998L29.5429 16.1462L29.4733 16.1694L29.3804 16.1927L29.2876 16.2159L29.1715 16.2391L29.0322 16.2623L28.8929 16.2855H28.7072H28.5215H28.2894H28.0572L27.8483 16.2623L27.6394 16.2159L27.4537 16.1462L27.2447 16.0534L27.059 15.9605L26.8733 15.8212L26.6876 15.6587L26.5251 15.4962L26.3858 15.2873L26.2697 15.0784L26.1537 14.823L26.084 14.5677L26.0144 14.2659V13.9641V13.6159L26.0608 13.2444L26.1072 13.0587L26.1304 12.8962L26.1769 12.7337L26.2233 12.5712L26.2697 12.4087L26.3394 12.2462L26.3858 12.1069L26.4554 11.9677L26.5251 11.8284L26.5715 11.7123L26.6644 11.5962L26.734 11.4802L26.8037 11.3641L26.8965 11.248L26.9894 11.1552L27.0822 11.0623L27.1751 10.9927L27.2912 10.8998L27.384 10.8302L27.5001 10.7605L27.6162 10.6909L27.7322 10.6212L27.8483 10.5748L27.9876 10.5284L28.1269 10.4819L28.2662 10.4587L28.4054 10.4123L28.5447 10.3891L28.7072 10.3659H28.8465L29.009 10.3427H29.1715H29.3108L29.4501 10.3659H29.5894L29.7287 10.3891L29.8447 10.4123L29.9608 10.4355L30.0769 10.4587L30.1697 10.4819L30.2858 10.5052L30.3554 10.5284L30.4483 10.5516L30.5179 10.5748L30.5876 10.598L30.634 10.6212L30.6804 10.6444H30.7037L30.4715 11.8748Z" stroke="white" stroke-width="0.216" stroke-miterlimit="2.6131"/>
<path fill-rule="evenodd" clip-rule="evenodd" d="M41.2661 16.2851H40.059L40.1518 15.8208V15.7744L40.0822 15.844L40.0126 15.9369L39.9197 16.0065L39.8501 16.0529L39.7804 16.1226L39.6875 16.169L39.6179 16.2154L39.5251 16.2386L39.4554 16.2851L39.3626 16.3083L39.2697 16.3315H39.2001L39.1072 16.3547H39.0143H38.9215H38.8518H38.6197L38.4108 16.2851L38.2251 16.2154L38.0393 16.1226L37.8768 15.9833L37.7376 15.844L37.6215 15.6815L37.5054 15.4958L37.4358 15.3101L37.3661 15.1011L37.2965 14.869L37.2733 14.6601L37.25 14.4279L37.2733 14.1958V13.9869L37.3197 13.7547L37.3893 13.4994L37.459 13.244L37.5518 13.0351L37.6679 12.8261L37.784 12.6172L37.9233 12.4547L38.0625 12.2922L38.2018 12.1529L38.3411 12.0136L38.5036 11.8976L38.6893 11.8047L38.8518 11.7351L39.0143 11.6654L39.2001 11.6422L39.3626 11.619L39.5483 11.5958H39.6875L39.8036 11.619L39.9197 11.6422L40.0126 11.6654L40.1286 11.7119L40.1983 11.7351L40.2911 11.8047L40.384 11.8511L40.4536 11.8976L40.5 11.944L40.5697 12.0136L40.6161 12.0601L40.6626 12.1297L40.709 12.1761L40.7322 12.2226L40.7554 12.2922L41.0804 10.5511H42.2643L41.2661 16.2851Z" fill="white"/>
<path d="M41.2661 16.2851H40.059L40.1518 15.8208V15.7744L40.0822 15.844L40.0126 15.9369L39.9197 16.0065L39.8501 16.0529L39.7804 16.1226L39.6875 16.169L39.6179 16.2154L39.5251 16.2386L39.4554 16.2851L39.3626 16.3083L39.2697 16.3315H39.2001L39.1072 16.3547H39.0143H38.9215H38.8518H38.6197L38.4108 16.2851L38.2251 16.2154L38.0393 16.1226L37.8768 15.9833L37.7376 15.844L37.6215 15.6815L37.5054 15.4958L37.4358 15.3101L37.3661 15.1011L37.2965 14.869L37.2733 14.6601L37.25 14.4279L37.2733 14.1958V13.9869L37.3197 13.7547L37.3893 13.4994L37.459 13.244L37.5518 13.0351L37.6679 12.8261L37.784 12.6172L37.9233 12.4547L38.0625 12.2922L38.2018 12.1529L38.3411 12.0136L38.5036 11.8976L38.6893 11.8047L38.8518 11.7351L39.0143 11.6654L39.2001 11.6422L39.3626 11.619L39.5483 11.5958H39.6875L39.8036 11.619L39.9197 11.6422L40.0126 11.6654L40.1286 11.7119L40.1983 11.7351L40.2911 11.8047L40.384 11.8511L40.4536 11.8976L40.5 11.944L40.5697 12.0136L40.6161 12.0601L40.6626 12.1297L40.709 12.1761L40.7322 12.2226L40.7554 12.2922L41.0804 10.5511H42.2643L41.2661 16.2851Z" stroke="white" stroke-width="0.216" stroke-miterlimit="2.6131"/>
<path fill-rule="evenodd" clip-rule="evenodd" d="M39.293 15.2407L39.4091 15.2175L39.5252 15.1943L39.6412 15.1711L39.7341 15.1247L39.827 15.0782L39.9198 15.0086L39.9895 14.9389L40.0591 14.8461L40.1287 14.7532L40.1984 14.6604L40.2448 14.5675L40.2912 14.4514L40.3377 14.3586L40.3841 14.2425L40.4073 14.1264L40.4305 14.0104L40.4537 13.8711L40.477 13.755V13.6389L40.4537 13.4997V13.3836L40.4305 13.2907L40.4073 13.1747L40.3609 13.0818L40.3145 12.9889L40.268 12.8961L40.2216 12.8264L40.152 12.78L40.0823 12.7336L39.9895 12.6872L39.9198 12.6639H39.827H39.7109L39.5948 12.6872L39.4787 12.7104L39.3859 12.7568L39.293 12.8264L39.2234 12.8961L39.1305 12.9657L39.0609 13.0586L38.9912 13.1514L38.9448 13.2443L38.8752 13.3604L38.8287 13.4532L38.7823 13.5925L38.7591 13.7086L38.7127 13.8247L38.6895 13.9639L38.6662 14.1497L38.6895 14.3586L38.7127 14.5675L38.7591 14.7764L38.852 14.9622L38.968 15.1014L39.1073 15.1943L39.293 15.2407Z" fill="#B4B4B4"/>
<path fill-rule="evenodd" clip-rule="evenodd" d="M12.3644 15.3334L12.1787 16.2852H11.0876L11.1108 16.1227L11.1341 15.9602L11.1573 15.8209L11.1805 15.7744L11.1108 15.8441L11.0412 15.9137L10.9483 15.9834L10.8555 16.0298L10.7626 16.0994L10.6466 16.1459L10.5305 16.1923L10.4144 16.2387L10.2983 16.2852L10.1591 16.3084L10.043 16.3316L9.9037 16.3548L9.78763 16.378H9.64834L9.53227 16.3548L9.4162 16.3316L9.2537 16.3084L9.11442 16.2619L8.99835 16.1923L8.88227 16.1459L8.78942 16.053L8.69656 15.9834L8.62692 15.8905L8.55727 15.8209L8.51084 15.728L8.46442 15.6352L8.4412 15.5191L8.41799 15.4262L8.39477 15.3334L8.37156 15.2405V15.1244V15.0316L8.39477 14.8691L8.41799 14.7066L8.46442 14.5441L8.51084 14.4048L8.58049 14.2655L8.65013 14.1262L8.74299 14.0102L8.85906 13.8941L8.97513 13.8012L9.0912 13.7084L9.20727 13.6155L9.34656 13.5459L9.48584 13.4994L9.62513 13.453L9.78763 13.4066L9.92692 13.3834H9.95013H9.97335H9.99656L10.043 13.3602H10.0894H10.1591L10.2287 13.3369H10.2983H10.368L10.4376 13.3137H10.5305H10.6001L10.6698 13.2905H10.7394H10.7858H10.8323H10.9483H11.0412H11.1341H11.2501L11.3198 13.3137H11.3894H11.4358L11.4591 13.2905L11.4823 13.1977L11.5055 13.1048V13.0352L11.4823 12.9423L11.4591 12.8494L11.3894 12.7566L11.3198 12.7102L11.2501 12.6405L11.1573 12.5941L11.0412 12.5709H10.9251H10.8091H10.6698H10.5305H10.3912H10.2519L10.1126 12.5941H9.97335L9.83406 12.6173L9.71799 12.6405L9.5787 12.6637L9.46263 12.6869L9.36977 12.7102L9.2537 12.7334L9.18406 12.7566L9.11442 12.7798L9.06799 12.803L9.39299 11.7584L9.48584 11.7119L9.5787 11.6887L9.69477 11.6423L9.78763 11.6191L9.9037 11.5959H10.0198L10.1126 11.5727H10.2519L10.368 11.5494H10.4841H10.6233H10.7626H10.9019H11.0412H11.2037H11.343L11.4823 11.5727H11.5983L11.7376 11.6191L11.8769 11.6423L12.0162 11.7119L12.1555 11.7584L12.2716 11.8512L12.4108 11.9209L12.5037 12.0137L12.6198 12.1298L12.6894 12.2459L12.7591 12.3852L12.8055 12.5244L12.8287 12.6637V12.8262L12.8055 13.0119L12.3644 15.3334Z" fill="white"/>
<path d="M12.3644 15.3334L12.1787 16.2852H11.0876L11.1108 16.1227L11.1341 15.9602L11.1573 15.8209L11.1805 15.7744L11.1108 15.8441L11.0412 15.9137L10.9483 15.9834L10.8555 16.0298L10.7626 16.0994L10.6466 16.1459L10.5305 16.1923L10.4144 16.2387L10.2983 16.2852L10.1591 16.3084L10.043 16.3316L9.9037 16.3548L9.78763 16.378H9.64834L9.53227 16.3548L9.4162 16.3316L9.2537 16.3084L9.11442 16.2619L8.99835 16.1923L8.88227 16.1459L8.78942 16.053L8.69656 15.9834L8.62692 15.8905L8.55727 15.8209L8.51084 15.728L8.46442 15.6352L8.4412 15.5191L8.41799 15.4262L8.39477 15.3334L8.37156 15.2405V15.1244V15.0316L8.39477 14.8691L8.41799 14.7066L8.46442 14.5441L8.51084 14.4048L8.58049 14.2655L8.65013 14.1262L8.74299 14.0102L8.85906 13.8941L8.97513 13.8012L9.0912 13.7084L9.20727 13.6155L9.34656 13.5459L9.48584 13.4994L9.62513 13.453L9.78763 13.4066L9.92692 13.3834H9.95013H9.97335H9.99656L10.043 13.3602H10.0894H10.1591L10.2287 13.3369H10.2983H10.368L10.4376 13.3137H10.5305H10.6001L10.6698 13.2905H10.7394H10.7858H10.8323H10.9483H11.0412H11.1341H11.2501L11.3198 13.3137H11.3894H11.4358L11.4591 13.2905L11.4823 13.1977L11.5055 13.1048V13.0352L11.4823 12.9423L11.4591 12.8494L11.3894 12.7566L11.3198 12.7102L11.2501 12.6405L11.1573 12.5941L11.0412 12.5709H10.9251H10.8091H10.6698H10.5305H10.3912H10.2519L10.1126 12.5941H9.97335L9.83406 12.6173L9.71799 12.6405L9.5787 12.6637L9.46263 12.6869L9.36977 12.7102L9.2537 12.7334L9.18406 12.7566L9.11442 12.7798L9.06799 12.803L9.39299 11.7584L9.48584 11.7119L9.5787 11.6887L9.69477 11.6423L9.78763 11.6191L9.9037 11.5959H10.0198L10.1126 11.5727H10.2519L10.368 11.5494H10.4841H10.6233H10.7626H10.9019H11.0412H11.2037H11.343L11.4823 11.5727H11.5983L11.7376 11.6191L11.8769 11.6423L12.0162 11.7119L12.1555 11.7584L12.2716 11.8512L12.4108 11.9209L12.5037 12.0137L12.6198 12.1298L12.6894 12.2459L12.7591 12.3852L12.8055 12.5244L12.8287 12.6637V12.8262L12.8055 13.0119L12.3644 15.3334Z" stroke="white" stroke-width="0.216" stroke-miterlimit="2.6131"/>
<path fill-rule="evenodd" clip-rule="evenodd" d="M11.2967 14.1728V14.1496V14.1264H11.2502L11.227 14.1031H11.1574H11.111H11.0413H10.9717H10.902H10.8324L10.7627 14.1264H10.6931L10.6235 14.1496H10.577L10.5074 14.1728H10.461L10.4377 14.196H10.3913L10.3449 14.2192L10.2985 14.2424L10.252 14.2656L10.1824 14.2889L10.136 14.3353L10.0663 14.3585L10.0199 14.4049L9.95025 14.4514L9.90382 14.4978L9.85739 14.5674L9.81096 14.6139L9.78775 14.6835L9.74132 14.7532V14.8228V14.9621L9.76453 15.0782L9.81096 15.171L9.85739 15.2406L9.92703 15.2871L9.99667 15.3103H10.0663L10.136 15.3335L10.2752 15.3103H10.3913L10.5074 15.2871L10.6002 15.2639L10.6931 15.2406L10.7627 15.1942L10.8556 15.1478L10.902 15.1014L10.9717 15.0549L11.0181 15.0085L11.0645 14.9621L11.111 14.9156L11.1342 14.846L11.1574 14.7996L11.1806 14.7532L11.2038 14.7067L11.227 14.5674L11.2502 14.4281L11.2967 14.2889V14.1728Z" fill="#4F4F4F"/>
<path fill-rule="evenodd" clip-rule="evenodd" d="M3.14853 16.2851H1.94138L2.9396 10.5511H5.00567L5.2146 13.9636L6.65388 10.5511H8.81281L7.79138 16.2851H6.60745L7.35031 11.9904H7.30388L5.51638 16.2851H4.16995V16.1226L4.14674 15.6351L4.10031 14.9619L4.05388 14.1726L4.00745 13.3833L3.98424 12.7101L3.93781 12.1994V11.9904H3.9146H3.89138H3.86817L3.14853 16.2851Z" fill="white"/>
<path d="M3.14853 16.2851H1.94138L2.9396 10.5511H5.00567L5.2146 13.9636L6.65388 10.5511H8.81281L7.79138 16.2851H6.60745L7.35031 11.9904H7.30388L5.51638 16.2851H4.16995V16.1226L4.14674 15.6351L4.10031 14.9619L4.05388 14.1726L4.00745 13.3833L3.98424 12.7101L3.93781 12.1994V11.9904H3.9146H3.89138H3.86817L3.14853 16.2851Z" stroke="white" stroke-width="0.216" stroke-miterlimit="2.6131"/>
<path fill-rule="evenodd" clip-rule="evenodd" d="M34.1163 15.3334L33.9538 16.2852H32.8395L32.8628 16.1227V15.9602V15.8441V15.7977L32.8163 15.8441L32.7467 15.9137L32.6538 15.9834L32.5842 16.053L32.4913 16.0994L32.3753 16.1459L32.2592 16.2155L32.1663 16.2387L32.0503 16.2852L31.911 16.3084L31.7949 16.3316L31.6788 16.3548L31.5395 16.378H31.4235L31.3074 16.3548L31.1913 16.3316L31.0288 16.3084L30.8895 16.2619L30.7735 16.1923L30.6574 16.1459L30.5645 16.053L30.4717 15.9834L30.402 15.8905L30.3324 15.8209L30.286 15.728L30.2395 15.6352L30.2163 15.5191L30.1931 15.4262L30.1699 15.3334V15.2405L30.1467 15.1244V15.0316L30.1699 14.8691L30.1931 14.7066L30.2163 14.5441L30.286 14.4048L30.3556 14.2655L30.4253 14.1262L30.5181 14.0102L30.6342 13.8941L30.7503 13.8012L30.8663 13.7084L30.9824 13.6155L31.1217 13.5459L31.261 13.4994L31.4003 13.453L31.5395 13.4066L31.702 13.3834H31.7253H31.7485L31.7949 13.3602H31.8645H31.911L31.9806 13.3369H32.0503H32.1199L32.2128 13.3137H32.2824H32.352L32.4217 13.2905H32.4913H32.561H32.6074H32.7003H32.8163H32.9092H33.002L33.0949 13.3137H33.1645H33.1878H33.211L33.2342 13.2905V13.1977L33.2574 13.1048V13.0352L33.2342 12.9423L33.211 12.8494L33.1413 12.7566L33.0949 12.7102L33.002 12.6405L32.9092 12.5941L32.8163 12.5709H32.7235H32.5842H32.4681H32.3288H32.1895H32.027L31.8878 12.5941H31.7485L31.6092 12.6173L31.4931 12.6405L31.3538 12.6637L31.2378 12.6869L31.1449 12.7102L31.052 12.7334L30.9592 12.7566L30.9128 12.7798L30.8663 12.803L31.1681 11.7584L31.261 11.7119L31.3538 11.6887L31.4699 11.6423L31.5628 11.6191L31.6788 11.5959H31.7949L31.911 11.5727H32.027L32.1431 11.5494H32.2592H32.3985H32.5378H32.677H32.8163H32.9556H33.0949L33.2342 11.5727H33.3503L33.4895 11.6191L33.6288 11.6423L33.7681 11.7119L33.9074 11.7584L34.0467 11.8512L34.1628 11.9209L34.2788 12.0137L34.3717 12.1298L34.4645 12.2459L34.5342 12.3852L34.5806 12.5244L34.6038 12.6637V12.8262L34.5806 13.0119L34.1163 15.3334Z" fill="white"/>
<path fill-rule="evenodd" clip-rule="evenodd" d="M33.9539 16.332L33.9772 16.3088L34.1397 15.3338L34.0932 15.3105L33.9075 16.2855L33.9539 16.2623V16.332H33.9772V16.3088L33.9539 16.332Z" fill="white"/>
<path fill-rule="evenodd" clip-rule="evenodd" d="M32.8164 16.2852L32.8396 16.3316H33.9539V16.262H32.8396L32.8628 16.2852H32.8164V16.3316H32.8396L32.8164 16.2852Z" fill="white"/>
<path fill-rule="evenodd" clip-rule="evenodd" d="M32.886 15.7981L32.8396 15.7749V15.8445L32.8164 15.9606V16.1231V16.2856H32.8628L32.886 16.1231V15.9606V15.8445V15.7981L32.8396 15.7749L32.886 15.7981Z" fill="white"/>
<path fill-rule="evenodd" clip-rule="evenodd" d="M31.1914 16.3785H31.3075L31.4235 16.4017H31.5396L31.6789 16.3785H31.7949L31.9342 16.3553L32.0503 16.3088L32.1664 16.2856L32.2825 16.2392L32.3985 16.1695L32.4914 16.1231L32.5842 16.0535L32.6771 16.007L32.77 15.9374L32.8396 15.8678L32.886 15.7981L32.8396 15.7749L32.7932 15.8445L32.7235 15.891L32.6539 15.9606L32.561 16.0303L32.4682 16.0767L32.3753 16.1231L32.2592 16.1695L32.1432 16.216L32.0271 16.2624L31.911 16.2856L31.7949 16.3088L31.6789 16.332H31.5396L31.4235 16.3553L31.3075 16.332L31.1914 16.3088V16.3785Z" fill="white"/>
<path fill-rule="evenodd" clip-rule="evenodd" d="M30.1236 15.0319V15.1247V15.2408L30.1469 15.3336L30.1701 15.4265L30.1933 15.5426L30.2165 15.6354L30.2629 15.7283L30.3094 15.8211L30.379 15.914L30.4486 16.0069L30.5415 16.0765L30.6344 16.1461L30.7504 16.2158L30.8897 16.2854L31.029 16.3319L31.1915 16.3783V16.3086L31.029 16.2854L30.8897 16.239L30.7736 16.1694L30.6576 16.1229L30.5647 16.0533L30.4951 15.9604L30.4254 15.8908L30.3558 15.7979L30.3094 15.7051L30.2629 15.6122L30.2397 15.5194L30.2165 15.4265L30.1933 15.3336V15.2408L30.1701 15.1247L30.1933 15.0319H30.1236Z" fill="white"/>
<path fill-rule="evenodd" clip-rule="evenodd" d="M31.7022 13.3608L31.5397 13.3841L31.4004 13.4305L31.2379 13.4769L31.0986 13.5233L30.9826 13.593L30.8433 13.6858L30.7272 13.7787L30.6111 13.8948L30.4951 13.9876L30.4022 14.1269L30.3326 14.243L30.2629 14.4055L30.1933 14.5448L30.1701 14.7073L30.1236 14.8698V15.0323H30.1933V14.8698L30.2165 14.7073L30.2629 14.568L30.3094 14.4055L30.379 14.2662L30.4486 14.1501L30.5415 14.0341L30.6344 13.918L30.7504 13.8251L30.8665 13.7323L31.0058 13.6626L31.1451 13.593L31.2611 13.5233L31.4004 13.4769L31.5397 13.4305L31.7022 13.4073V13.3608Z" fill="white"/>
<path fill-rule="evenodd" clip-rule="evenodd" d="M32.6072 13.2672H32.5608H32.4912H32.4215L32.3519 13.2904H32.2822H32.2126H32.1197L32.0501 13.3136H31.9804L31.9108 13.3369H31.8644H31.7947H31.7483L31.7251 13.3601H31.7019V13.4065H31.7251H31.7483L31.7947 13.3833H31.8644H31.9108H31.9804L32.0501 13.3601H32.1197L32.2126 13.3369H32.2822H32.3519H32.4215L32.4912 13.3136H32.5608H32.6072V13.2672Z" fill="white"/>
<path fill-rule="evenodd" clip-rule="evenodd" d="M33.1876 13.3136L33.2108 13.2904H33.1876H33.1644H33.0947L33.0019 13.2672H32.909H32.8162H32.7001H32.6072V13.3136H32.7001H32.8162L32.909 13.3369H33.0019H33.0947H33.1644H33.1876H33.2108L33.234 13.3136L33.2108 13.3369H33.234V13.3136H33.1876Z" fill="white"/>
<path fill-rule="evenodd" clip-rule="evenodd" d="M33.234 13.0354V13.105L33.2108 13.1979L33.1875 13.2908V13.314H33.234L33.2572 13.2908V13.2211L33.2804 13.105V13.0354H33.234Z" fill="white"/>
<path fill-rule="evenodd" clip-rule="evenodd" d="M32.7235 12.5948H32.8164L32.9092 12.6412L33.0021 12.6644L33.0717 12.7341L33.1181 12.7805L33.1878 12.8501L33.211 12.943L33.2342 13.0358H33.2806L33.2574 12.9198L33.2342 12.8269L33.1646 12.7573L33.0949 12.6876L33.0253 12.618L32.9324 12.5716L32.8164 12.5483H32.7235V12.5948Z" fill="white"/>
<path fill-rule="evenodd" clip-rule="evenodd" d="M30.8199 12.8035L30.8663 12.8267L30.9127 12.8035L30.9824 12.7803L31.052 12.757L31.1449 12.7338L31.261 12.7106L31.377 12.6874L31.4931 12.6642L31.6092 12.641L31.7484 12.6178H31.8877L32.027 12.5945H32.1895H32.3288H32.4681H32.5842H32.7234V12.5481H32.5842L32.4681 12.5249H32.3288L32.1895 12.5481H32.027L31.8877 12.5713H31.7484L31.6092 12.5945L31.4931 12.6178L31.3538 12.641L31.2377 12.6642H31.1449L31.052 12.7106L30.9592 12.7338L30.8895 12.757L30.8431 12.7803L30.8895 12.8267L30.8199 12.8035Z" fill="white"/>
<path fill-rule="evenodd" clip-rule="evenodd" d="M31.1449 11.7358V11.7591L30.8199 12.8037L30.8895 12.8269L31.1913 11.7591L31.1681 11.7823L31.1449 11.7358V11.7591V11.7358Z" fill="white"/>
<path fill-rule="evenodd" clip-rule="evenodd" d="M33.0949 11.5265H32.9557L32.8164 11.5033H32.6771H32.5378H32.3985L32.2592 11.5265H32.1432H32.0271L31.911 11.5497L31.7717 11.5729H31.6789L31.5628 11.5962L31.4467 11.6194L31.3539 11.6426L31.261 11.689L31.1449 11.7354L31.1682 11.7819L31.261 11.7354L31.3771 11.7122L31.4699 11.6658L31.5628 11.6426H31.6789L31.7949 11.6194L31.911 11.5962H32.0271L32.1432 11.5729H32.2592H32.3985H32.5378H32.6771H32.8164H32.9557H33.0949V11.5265Z" fill="white"/>
<path fill-rule="evenodd" clip-rule="evenodd" d="M34.6039 13.0123L34.6272 12.8266V12.6641L34.6039 12.5248L34.5575 12.3623L34.4879 12.223L34.395 12.107L34.2789 11.9909L34.1861 11.898L34.0468 11.8284L33.9307 11.7355L33.7914 11.6891L33.6522 11.6195L33.4897 11.5963L33.3736 11.5498L33.2343 11.5266H33.095V11.573L33.2343 11.5963L33.3504 11.6195L33.4897 11.6427L33.6289 11.6891L33.7682 11.7355L33.8843 11.8052L34.0236 11.8748L34.1397 11.9445L34.2557 12.0373L34.3486 12.1534L34.4414 12.2695L34.5111 12.3855L34.5575 12.5248L34.5807 12.6641V12.8266L34.5575 13.0123H34.6039Z" fill="white"/>
<path fill-rule="evenodd" clip-rule="evenodd" d="M34.1394 15.3334L34.6036 13.012H34.5572L34.0929 15.3102L34.1394 15.3334Z" fill="white"/>
<path fill-rule="evenodd" clip-rule="evenodd" d="M33.0718 14.1728L33.0486 14.1496L33.0254 14.1264H33.0022L32.9557 14.1031H32.9093H32.8629H32.7932H32.7236H32.654L32.5843 14.1264H32.5147H32.445L32.3754 14.1496H32.3289L32.2593 14.1728H32.2361H32.1897L32.1664 14.196L32.12 14.2192H32.0736L32.004 14.2424L31.9575 14.2889L31.8879 14.3121L31.8415 14.3585L31.7718 14.3817L31.7254 14.4281L31.6789 14.4746L31.6325 14.5442L31.5861 14.6139L31.5629 14.6603L31.5397 14.7299L31.5164 14.8228V14.9621L31.5397 15.0782L31.5629 15.171L31.6325 15.2406L31.6789 15.2871L31.7718 15.3103H31.8415L31.9111 15.3335L32.0504 15.3103H32.1664L32.2825 15.2871L32.3754 15.2639L32.4682 15.2174L32.5611 15.171L32.6307 15.1246L32.7236 15.0782L32.77 15.0317L32.8165 14.9853L32.8629 14.9156L32.9093 14.8692L32.9557 14.8228V14.7532L32.9789 14.7067L33.0022 14.6603L33.0254 14.5442V14.4049L33.0486 14.2889L33.0718 14.1728Z" fill="#B4B4B4"/>
<path fill-rule="evenodd" clip-rule="evenodd" d="M42.102 15.705V15.5889L42.1484 15.4729L42.1949 15.38L42.2645 15.2872L42.3574 15.1943L42.4734 15.1479L42.5895 15.1247L42.7056 15.1014L42.8216 15.1247L42.9377 15.1479L43.0538 15.1943L43.1466 15.2872L43.2163 15.38L43.2859 15.4729L43.3091 15.5889L43.3324 15.705H43.1931V15.6122L43.1699 15.5193L43.1234 15.4264L43.0538 15.3568L42.9841 15.2872L42.9145 15.2639L42.7984 15.2175H42.7056H42.6127L42.5199 15.2639L42.427 15.2872L42.3574 15.3568L42.3109 15.4264L42.2645 15.5193L42.2413 15.6122L42.2181 15.705H42.102Z" fill="white"/>
<path fill-rule="evenodd" clip-rule="evenodd" d="M42.4966 15.7047V15.4261H42.7287H42.7751L42.8216 15.4494H42.868L42.8912 15.4726L42.9144 15.4958L42.9376 15.519V15.5654V15.5886V15.6351V15.6583L42.9144 15.6815V15.7047H42.7287L42.7519 15.6815H42.7751H42.7983L42.8216 15.6583H42.8448V15.6351L42.868 15.6119V15.5886V15.5654L42.8448 15.5422H42.8216L42.7983 15.519H42.7751H42.7519H42.7287H42.5894V15.7047H42.4966Z" fill="white"/>
<path fill-rule="evenodd" clip-rule="evenodd" d="M42.1022 15.7047L42.0789 15.7279L42.1022 15.844L42.1486 15.9601L42.195 16.0761L42.2647 16.169L42.3575 16.2386L42.4736 16.2851L42.5897 16.3315H42.7057H42.8218L42.9379 16.2851L43.0539 16.2386L43.1468 16.169L43.2165 16.0761L43.2861 15.9601L43.3093 15.844L43.3325 15.7279V15.7047H43.1932V15.7279V15.8208L43.17 15.9136L43.1236 16.0065L43.0539 16.0761L42.9843 16.1458L42.9147 16.1922L42.7986 16.2154L42.7057 16.2386L42.6129 16.2154L42.52 16.1922L42.4272 16.1458L42.3575 16.0761L42.3111 16.0065L42.2647 15.9136L42.2414 15.8208L42.2182 15.7279V15.7047H42.1022Z" fill="white"/>
<path fill-rule="evenodd" clip-rule="evenodd" d="M42.4966 15.7047V15.9601H42.5894V15.7511H42.7055L42.8448 15.9601H42.9376L42.7983 15.7511H42.8216L42.868 15.7279H42.8912L42.9144 15.7047H42.7287H42.7055H42.5894H42.4966Z" fill="white"/>
<path d="M42.0789 15.7282L42.1022 15.6122L42.1486 15.4961L42.2182 15.38L42.2879 15.2872L42.3807 15.2175L42.4968 15.1711L42.6129 15.1247L42.7289 15.1014L42.845 15.1247L42.9611 15.1711L43.0772 15.2175L43.17 15.2872L43.2397 15.38L43.3093 15.4961L43.3557 15.6122L43.379 15.7282L43.3557 15.8443L43.3093 15.9604L43.2397 16.0764L43.17 16.1693L43.0772 16.2389L42.9611 16.2854L42.845 16.3318L42.7289 16.355L42.6129 16.3318L42.4968 16.2854L42.3807 16.2389L42.2879 16.1693L42.2182 16.0764L42.1486 15.9604L42.1022 15.8443L42.0789 15.7282ZM42.5897 15.9604H42.4968V15.4264H42.7289H42.7754H42.8218L42.8682 15.4497L42.8914 15.4729L42.9147 15.4961L42.9379 15.5193V15.5425V15.5657V15.6122V15.6354L42.9147 15.6586L42.8914 15.6818L42.8682 15.705H42.845H42.8218H42.7986L42.9379 15.9139H42.845L42.7057 15.705H42.5897V15.9604V15.9604ZM42.7057 15.705H42.7522H42.7754H42.7986H42.8218L42.845 15.6818V15.6586V15.6354V15.5889V15.5657V15.5425H42.8218H42.7986H42.7754H42.7522H42.7289H42.5897V15.7282H42.7057V15.705ZM42.7057 16.2389H42.7986L42.8914 16.2157L42.9843 16.1693L43.0539 16.0997L43.1004 16.03L43.1468 15.9372L43.1932 15.8211V15.705V15.5889L43.17 15.4961L43.1236 15.4032L43.0772 15.3336L43.0075 15.2639L42.9147 15.2175L42.8218 15.1943H42.7289H42.6361L42.5432 15.2175L42.4504 15.2639L42.3807 15.3336L42.3343 15.4032L42.2879 15.4961L42.2647 15.5889V15.705V15.8211L42.2879 15.9139L42.3343 16.0068L42.3807 16.0764L42.4504 16.1461L42.5432 16.1925L42.6361 16.2157L42.7057 16.2389Z" stroke="white" stroke-width="0.216" stroke-miterlimit="2.6131"/>
<path fill-rule="evenodd" clip-rule="evenodd" d="M34.4414 16.2852H35.6949L36.136 13.8012L36.1592 13.7084L36.1825 13.6155L36.2057 13.5227L36.2289 13.4066L36.2753 13.3137L36.345 13.2209L36.3914 13.1512L36.461 13.0584L36.5307 12.9887L36.6235 12.9191L36.7396 12.8494L36.8325 12.803L36.9717 12.7566L37.111 12.7102L37.2735 12.6869H37.436H37.5057H37.5289H37.5521L37.7378 11.5494L37.6217 11.5727H37.5057L37.3896 11.5959L37.2735 11.6191L37.1807 11.6655L37.0878 11.7119L37.0182 11.7584L36.9253 11.8048L36.8557 11.8744L36.7628 11.9209L36.6932 11.9905L36.6235 12.0602L36.5771 12.153L36.5074 12.2227L36.4378 12.3155L36.3682 12.3852L36.5074 11.5959H35.2771L34.4414 16.2852Z" fill="white"/>
<path d="M34.4414 16.2852H35.6949L36.136 13.8012L36.1592 13.7084L36.1825 13.6155L36.2057 13.5227L36.2289 13.4066L36.2753 13.3137L36.345 13.2209L36.3914 13.1512L36.461 13.0584L36.5307 12.9887L36.6235 12.9191L36.7396 12.8494L36.8325 12.803L36.9717 12.7566L37.111 12.7102L37.2735 12.6869H37.436H37.5057H37.5289H37.5521L37.7378 11.5494L37.6217 11.5727H37.5057L37.3896 11.5959L37.2735 11.6191L37.1807 11.6655L37.0878 11.7119L37.0182 11.7584L36.9253 11.8048L36.8557 11.8744L36.7628 11.9209L36.6932 11.9905L36.6235 12.0602L36.5771 12.153L36.5074 12.2227L36.4378 12.3155L36.3682 12.3852L36.5074 11.5959H35.2771L34.4414 16.2852Z" stroke="white" stroke-width="0.216" stroke-miterlimit="2.6131"/>
<path fill-rule="evenodd" clip-rule="evenodd" d="M22.8342 16.2852H24.0878H24.111L24.5288 13.8012V13.7084L24.552 13.6155L24.5753 13.5227L24.6217 13.4298L24.6449 13.3369L24.6913 13.2673L24.7378 13.1744L24.8074 13.1048L24.877 13.0352L24.9467 12.9887L25.0628 12.9191L25.1556 12.8727L25.2717 12.8262L25.411 12.803L25.5735 12.7798L25.736 12.7566H25.7592V12.7798H25.7824H25.8056H25.8288H25.852H25.8753V12.7102L25.8985 12.6405L25.9217 12.5477L25.9449 12.4316L25.9913 12.3155L26.0145 12.1762L26.061 12.0602L26.1074 11.9673L26.1538 11.8977L26.177 11.8048L26.2235 11.7352L26.2699 11.6655L26.2931 11.6191L26.3163 11.5959L26.3395 11.5727H26.3163H26.2931H26.2467H26.2235L26.2003 11.5494H26.1538H26.1306L25.9913 11.5727H25.8753L25.7592 11.5959L25.6431 11.6191L25.5503 11.6655L25.4574 11.7119L25.3878 11.7352L25.2949 11.8048L25.2253 11.8512L25.1556 11.9209L25.086 11.9905L25.0163 12.0602L24.9467 12.1298L24.9003 12.2227L24.8306 12.3155L24.761 12.3852L24.9235 11.5959H23.6699L22.8342 16.2852Z" fill="white"/>
<path d="M22.8342 16.2852H24.0878H24.111L24.5288 13.8012V13.7084L24.552 13.6155L24.5753 13.5227L24.6217 13.4298L24.6449 13.3369L24.6913 13.2673L24.7378 13.1744L24.8074 13.1048L24.877 13.0352L24.9467 12.9887L25.0628 12.9191L25.1556 12.8727L25.2717 12.8262L25.411 12.803L25.5735 12.7798L25.736 12.7566H25.7592V12.7798H25.7824H25.8056H25.8288H25.852H25.8753V12.7102L25.8985 12.6405L25.9217 12.5477L25.9449 12.4316L25.9913 12.3155L26.0145 12.1762L26.061 12.0602L26.1074 11.9673L26.1538 11.8977L26.177 11.8048L26.2235 11.7352L26.2699 11.6655L26.2931 11.6191L26.3163 11.5959L26.3395 11.5727H26.3163H26.2931H26.2467H26.2235L26.2003 11.5494H26.1538H26.1306L25.9913 11.5727H25.8753L25.7592 11.5959L25.6431 11.6191L25.5503 11.6655L25.4574 11.7119L25.3878 11.7352L25.2949 11.8048L25.2253 11.8512L25.1556 11.9209L25.086 11.9905L25.0163 12.0602L24.9467 12.1298L24.9003 12.2227L24.8306 12.3155L24.761 12.3852L24.9235 11.5959H23.6699L22.8342 16.2852Z" stroke="white" stroke-width="0.216" stroke-miterlimit="2.6131"/>
</svg>
