<svg width="51" height="24" viewBox="0 0 51 24" fill="none" xmlns="http://www.w3.org/2000/svg">
<path d="M0.710938 1.59557C0.710938 0.738574 1.41065 0.0354004 2.2683 0.0354004H49.1536C50.009 0.0354004 50.7109 0.736376 50.7109 1.59557V21.5613C50.7109 22.4205 50.0112 23.1215 49.1536 23.1215H2.2683C1.41285 23.1215 0.710938 22.4205 0.710938 21.5613V1.59557Z" fill="#A8A8A8"/>
<path d="M0.710938 2.30103H50.7087V20.8538H0.710938V2.30103Z" fill="white"/>
<path d="M43.0819 7.11975C40.7941 7.11975 38.9297 8.98755 38.9297 11.2795C38.9297 13.5692 40.7941 15.4392 43.0819 15.4392C45.3697 15.4392 47.2341 13.5714 47.2341 11.2795C47.2341 8.98755 45.3697 7.11975 43.0819 7.11975ZM8.85947 7.11975C6.57169 7.11975 4.70724 8.98755 4.70724 11.2795C4.70724 13.5692 6.57169 15.4392 8.85947 15.4392C11.1473 15.4392 13.0117 13.5714 13.0117 11.2795C13.0095 8.98755 11.1451 7.11975 8.85947 7.11975Z" fill="#565656"/>
<path d="M42.7574 3.45886C38.9145 3.37097 37.1071 5.83866 34.4837 8.88428L32.0095 11.7563L35.927 16.4544C36.8592 17.8981 35.0781 19.3308 33.9726 18.0102L30.3512 13.6812L26.8219 17.7794C25.6967 19.0847 23.9375 17.6256 24.8895 16.1973L28.7215 11.7365L26.2121 8.73706L27.8265 6.73301L30.3797 9.805L32.5798 7.24062C33.659 5.98369 34.7601 4.31805 36.188 3.46106H0.710938V19.7H9.00662C12.8518 19.7 14.5956 17.3971 17.1488 14.2921L19.5572 11.363L15.5278 6.75279C14.5627 5.33106 16.3109 3.85879 17.4449 5.15307L21.165 9.39628L24.5999 5.2168C25.6923 3.88516 27.4865 5.30249 26.5675 6.75499L22.8386 11.3058L25.4181 14.246L23.7928 16.1731L21.2264 13.2725L19.0856 15.8875C18.0349 17.1685 16.9711 18.8034 15.5629 19.6934H50.7066V3.45447H42.7574V3.45886ZM15.4181 11.2795C15.4181 14.8986 12.4723 17.8519 8.85746 17.8519C5.24263 17.8519 2.29681 14.9008 2.29681 11.2795C2.29681 7.65813 5.24263 4.707 8.85746 4.707C12.4723 4.707 15.4181 7.66032 15.4181 11.2795ZM43.0821 17.8519C39.4694 17.8519 36.5214 14.9008 36.5214 11.2795C36.5214 7.65813 39.4694 4.707 43.0821 4.707C46.6969 4.707 49.6427 7.65813 49.6427 11.2795C49.6427 14.9008 46.6969 17.8519 43.0821 17.8519Z" fill="#565656"/>
</svg>
