<svg width="77" height="14" viewBox="0 0 77 14" fill="none" xmlns="http://www.w3.org/2000/svg">
<path d="M61.7332 8.19617C61.7332 7.89261 61.7332 7.57118 61.7332 7.26761C61.7332 5.51763 61.7332 3.7498 61.7332 1.99982C61.7332 1.28554 61.9626 0.76769 62.7388 0.714119C63.4797 0.660549 63.8855 1.07126 63.8855 1.92839C63.9031 5.10692 63.9208 8.28546 63.8679 11.4818C63.8679 11.8926 63.515 12.4461 63.1622 12.6604C62.6859 12.9461 62.1743 12.6783 61.8038 12.1783C60.269 10.0711 58.7165 7.98189 57.1641 5.89263C56.9876 5.64263 56.7759 5.42835 56.3702 5.28549C56.3525 5.58906 56.3173 5.91049 56.3173 6.21405C56.2996 7.96403 56.3173 9.73187 56.2996 11.4818C56.282 12.3568 55.8762 12.8033 55.1706 12.7497C54.3943 12.6961 54.1473 12.1961 54.1473 11.464C54.1473 8.30331 54.1297 5.16049 54.1826 1.99982C54.1826 1.58911 54.5002 0.99983 54.8354 0.803404C55.3646 0.499836 55.8939 0.803404 56.282 1.3034C57.7462 3.30337 59.2458 5.30335 60.71 7.30333C60.957 7.62475 61.204 7.94618 61.451 8.28546C61.5392 8.24974 61.6274 8.23189 61.7332 8.19617ZM6.42682 10.2319C9.32004 10.2676 11.7899 7.08904 11.1724 4.21408C10.5726 1.53554 8.56145 0.0176993 5.63294 0.0355562C3.4101 0.0534131 1.09905 1.92839 0.904995 4.16051C0.693296 6.67833 0.728579 9.19616 0.710938 11.7318C0.710938 12.4283 1.13434 12.9283 1.87528 12.9283C2.65151 12.9104 2.91614 12.3211 2.9867 11.6783C3.05727 11.0354 3.00435 10.3747 3.00435 9.8033C4.23926 9.94615 5.33304 10.214 6.42682 10.2319ZM5.95049 8.21403C4.30982 8.23189 2.82793 6.76762 2.82793 5.12478C2.84557 3.4998 4.2569 2.0891 5.87993 2.05339C7.52059 2.01768 8.96721 3.48194 8.96721 5.14264C8.96721 6.78548 7.57352 8.19617 5.95049 8.21403ZM66.9728 11.3033C66.9728 12.3926 67.308 12.7497 68.4017 12.7318C69.4602 12.714 70.5187 12.6961 71.5596 12.5533C74.4175 12.1783 76.7109 9.73187 76.7109 6.89262C76.7109 4.12479 75.229 1.74982 72.0888 0.94626C70.8716 0.642692 69.5308 0.76769 68.243 0.749833C67.255 0.731976 66.9904 1.03554 66.9904 2.03553C66.9728 3.60694 66.9904 5.17835 66.9904 6.76762C66.9728 8.28546 66.9728 9.8033 66.9728 11.3033ZM69.1603 3.69623C69.1251 2.92838 69.425 2.74981 70.1306 2.74981C72.5299 2.74981 74.0294 3.8748 74.3293 6.24977C74.6645 8.83902 72.5299 11.1247 69.6543 10.6069C69.4602 10.5711 69.2133 10.1604 69.1956 9.9283C69.1427 8.83902 69.178 7.73189 69.178 6.64262C69.178 5.64263 69.2133 4.6605 69.1603 3.69623ZM46.5791 3.57123C46.5262 2.96409 46.7379 2.7141 47.373 2.73195C48.3433 2.76767 49.3135 2.74981 50.2838 2.73195C50.9895 2.73195 51.5364 2.49981 51.5187 1.67839C51.5011 0.910546 50.9366 0.731976 50.2838 0.731976C48.7314 0.731976 47.1789 0.714119 45.6088 0.731976C44.7444 0.731976 44.2857 1.1784 44.268 2.03553C44.2504 5.16049 44.2504 8.28546 44.268 11.3926C44.268 12.1783 44.762 12.6783 45.45 12.714C47.126 12.7854 48.8019 12.7854 50.4779 12.714C51.0248 12.6961 51.554 12.3211 51.5364 11.6247C51.5187 10.8747 51.0071 10.714 50.3897 10.714C49.6487 10.714 48.9254 10.714 48.1845 10.714C46.6144 10.714 46.6144 10.714 46.5967 9.14259C46.5967 7.2319 46.5967 7.24976 48.5197 7.30333C49.1548 7.32118 49.8251 7.37475 50.425 7.2319C50.7249 7.16047 51.0953 6.69619 51.113 6.37477C51.1306 6.0712 50.8307 5.64263 50.5485 5.44621C50.3015 5.26764 49.8957 5.24978 49.5429 5.23192C48.6079 5.21407 47.6729 5.23192 46.5967 5.23192C46.5967 4.57122 46.632 4.07122 46.5791 3.57123ZM37.9171 12.8033C39.0285 12.8568 40.0164 12.4818 40.8103 11.7318C42.8744 9.82115 42.6274 6.9819 39.8576 6.03548C39.3284 5.85691 38.7991 5.71406 38.2699 5.53549C37.8289 5.37478 37.3878 5.21407 36.9821 4.99978C36.3999 4.69621 36.1705 4.10694 36.4175 3.57123C36.5939 3.19623 37.1232 2.83909 37.529 2.78552C38.1464 2.73195 38.7991 2.87481 39.399 3.07123C40.0517 3.28552 40.6339 3.3748 40.9691 2.66052C41.3572 1.87482 40.8809 1.3034 40.2458 1.10697C39.3108 0.803404 38.3052 0.571264 37.3525 0.606978C35.6942 0.660549 34.3358 1.99982 34.1594 3.51766C33.9301 5.39263 34.6181 6.48191 36.4881 7.16047C37.2643 7.44618 38.0582 7.62475 38.8168 7.92832C39.5401 8.21403 39.8047 8.83902 39.6636 9.58901C39.5225 10.339 38.9403 10.7319 38.2699 10.6961C37.5113 10.6426 36.7351 10.4104 36.0471 10.0712C35.3238 9.71401 34.5652 9.71401 34.1594 10.2854C33.8066 10.8033 33.9654 11.4997 34.7592 11.8926C35.7295 12.3747 36.8056 12.6604 37.8289 13.0354C37.8641 12.964 37.8994 12.8747 37.9171 12.8033ZM17.6116 5.32121C18.5819 7.46404 19.5522 9.62473 20.5401 11.7854C20.9459 12.6783 21.5104 12.964 22.1808 12.6604C22.8511 12.339 22.9923 11.839 22.5865 10.9104C21.2105 7.80332 19.8168 4.69621 18.3878 1.62482C18.2114 1.24983 17.7351 0.892689 17.3293 0.785547C16.6942 0.606978 16.3238 1.08912 16.0768 1.64268C15.4064 3.16052 14.7184 4.6605 14.0303 6.17834C13.2894 7.74975 12.5308 9.32116 11.8781 10.9461C11.7193 11.3568 11.7369 11.9461 11.9134 12.339C12.0368 12.589 12.6719 12.8033 12.9542 12.714C13.3423 12.589 13.7304 12.1783 13.9245 11.7854C14.6302 10.3211 15.2476 8.82117 15.918 7.33904C16.3061 6.46405 16.7295 5.60692 17.1882 4.58907C17.3999 4.92835 17.5234 5.12478 17.6116 5.32121ZM26.8734 5.01764C26.1325 3.83908 25.3915 2.66052 24.6506 1.48197C24.139 0.678406 23.4686 0.446266 22.8159 0.892689C22.2337 1.28554 22.1984 1.82125 22.7629 2.67838C23.7685 4.28551 24.827 5.85691 25.7973 7.4819C26.0619 7.92832 26.203 8.5176 26.256 9.05331C26.3265 9.85687 26.256 10.6604 26.2913 11.464C26.3265 12.2676 26.8911 12.8033 27.5791 12.7497C28.3553 12.6783 28.5847 12.1426 28.6023 11.4461C28.6199 10.6961 28.5317 9.94615 28.6199 9.21402C28.6905 8.62474 28.8316 7.99975 29.1316 7.49975C30.1371 5.80334 31.2662 4.16051 32.2718 2.44624C32.4658 2.10696 32.4658 1.39268 32.2365 1.08912C32.0424 0.821261 31.372 0.714119 30.9839 0.821261C30.6664 0.892689 30.3841 1.35697 30.1724 1.67839C29.2903 3.01766 28.4612 4.35693 27.4909 5.87477C27.2086 5.48192 27.0322 5.26764 26.8734 5.01764Z" fill="white"/>
</svg>
