<svg width="37" height="31" viewBox="0 0 37 31" fill="none" xmlns="http://www.w3.org/2000/svg">
<path d="M36.8873 10.435C35.7502 11.7179 34.5647 12.9494 33.4881 14.2965C32.1454 15.9642 30.8873 17.7218 29.6172 19.4537C29.4115 19.7359 29.2059 19.8514 28.8672 19.8514C20.7502 19.8386 12.6333 19.8386 4.51635 19.8386C3.30667 19.8386 2.10909 19.8386 0.899414 19.8386C0.899414 19.7872 0.899414 19.7359 0.899414 19.6846C0.996188 19.3126 1.08087 18.9405 1.21393 18.5813C1.90345 16.6313 3.27038 15.3998 5.03651 14.6172C6.68167 13.8988 8.38732 13.4498 10.1293 13.1419C13.1655 12.6159 16.2018 12.1156 19.2502 11.7179C22.3228 11.3202 25.4196 11.0379 28.5043 10.73C31.093 10.4735 33.6817 10.281 36.2704 10.0758C36.476 10.0629 36.6938 10.1656 36.8994 10.204C36.8873 10.281 36.8873 10.358 36.8873 10.435ZM19.7583 15.8872C19.7583 15.3869 19.4075 14.9892 18.9357 14.9764C18.476 14.9636 18.0768 15.3613 18.0647 15.8488C18.0526 16.3491 18.4397 16.7853 18.9115 16.7853C19.3833 16.7853 19.7583 16.3876 19.7583 15.8872ZM15.1252 16.1182C15.1252 15.6178 14.7502 15.2073 14.2905 15.2073C13.8309 15.1945 13.4438 15.605 13.4317 16.0925C13.4196 16.6057 13.7946 17.0162 14.2784 17.0162C14.7623 17.0162 15.1252 16.6313 15.1252 16.1182ZM9.63329 17.2728C10.093 17.2728 10.4801 16.8879 10.4922 16.3876C10.5043 15.8873 10.1413 15.4896 9.66957 15.4767C9.17361 15.4639 8.79861 15.8488 8.79861 16.3747C8.79861 16.8751 9.17361 17.2599 9.63329 17.2728ZM31.7462 9.08794C30.5365 8.69024 29.3389 8.26689 28.1293 7.92051C27.2462 7.66393 26.3268 7.38169 25.4196 7.34321C23.218 7.2534 21.0284 7.50998 18.8389 7.81788C17.6413 7.98465 16.3591 7.33038 15.9115 6.25275C18.7543 5.73959 21.597 5.29058 24.5849 5.31624C24.0889 4.62348 23.6655 3.98204 23.1938 3.39191C22.9155 3.04553 22.4922 2.89158 22.0567 2.90441C21.5365 2.91724 21.0284 2.9429 20.5204 3.00704C18.4276 3.28928 16.3712 3.71263 14.3389 4.32842C14.1212 4.39256 13.976 4.34124 13.8188 4.16164C12.9236 3.23796 12.0043 2.35277 11.1575 1.3906C10.6857 0.838956 10.1897 0.620865 9.52441 0.838956C9.47603 0.851785 9.42764 0.864614 9.39135 0.864614C8.99216 0.954416 8.95586 1.01856 9.13732 1.40343C9.54861 2.26296 9.9599 3.13533 10.3712 3.99486C10.5889 4.4567 10.8067 4.91855 11.0365 5.40604C10.9397 5.45736 10.8672 5.49585 10.7946 5.53433C9.83893 5.94486 8.88329 6.35538 7.93974 6.77874C7.51635 6.97117 7.10506 7.17643 6.71796 7.42018C6.5849 7.50998 6.47603 7.76656 6.50022 7.93334C6.51232 8.03597 6.77845 8.12577 6.9357 8.17708C7.03248 8.20274 7.16554 8.15143 7.27441 8.12577C8.32683 7.86919 9.36716 7.61261 10.4196 7.36886C10.722 7.29189 11.0244 7.24058 11.3994 7.1636C10.5768 8.88267 9.79054 10.4991 8.96796 12.1669C16.601 10.5761 24.2583 9.93464 31.9276 9.16491C31.8672 9.13925 31.8067 9.11359 31.7462 9.08794Z" fill="#0B8491"/>
<path d="M0.545861 26.4978C0.350599 26.693 0.350599 27.0096 0.545861 27.2049L3.72784 30.3869C3.9231 30.5821 4.23969 30.5821 4.43495 30.3869C4.63021 30.1916 4.63021 29.875 4.43495 29.6797L1.60652 26.8513L4.43495 24.0229C4.63021 23.8276 4.63021 23.511 4.43495 23.3158C4.23969 23.1205 3.9231 23.1205 3.72784 23.3158L0.545861 26.4978ZM35.9246 27.2049C36.1199 27.0096 36.1199 26.693 35.9246 26.4978L32.7426 23.3158C32.5474 23.1205 32.2308 23.1205 32.0355 23.3158C31.8403 23.511 31.8403 23.8276 32.0355 24.0229L34.864 26.8513L32.0355 29.6797C31.8403 29.875 31.8403 30.1916 32.0355 30.3869C32.2308 30.5821 32.5474 30.5821 32.7426 30.3869L35.9246 27.2049ZM0.899414 27.3513H35.5711V26.3513H0.899414V27.3513Z" fill="#0B8491"/>
</svg>
