<svg width="30" height="34" viewBox="0 0 30 34" fill="none" xmlns="http://www.w3.org/2000/svg">
<path d="M0.761719 19.3624C0.761719 17.246 0.761719 15.1297 0.761719 12.9769C0.795545 12.9039 0.829372 12.8309 0.829372 12.7944C1.26912 9.94831 2.72366 8.05091 5.193 6.99274C5.42979 6.88327 5.7004 6.81029 5.93719 6.73732C4.71943 4.58449 4.82091 2.68708 6.24163 1.26403C7.45939 -0.0130741 9.42133 -0.159028 10.842 0.862652C11.5524 1.40998 12.0598 2.10326 12.2966 3.01548C12.6349 4.36556 12.3642 5.60617 11.5524 6.73732C14.0894 7.50358 15.7469 9.14556 16.5249 11.8092C16.6602 12.3201 16.7279 12.8309 16.7955 13.3418C16.7955 15.2756 16.7955 17.2095 16.7955 19.107C16.7617 19.1799 16.7279 19.2529 16.7279 19.3624C16.4573 21.2963 15.5101 22.6463 13.8526 23.4126C13.6158 23.5221 13.5482 23.668 13.5482 23.9234C13.5482 25.9668 13.5482 28.0467 13.5482 30.09C13.5482 31.3306 12.804 32.4253 11.7554 32.8631C11.6201 32.9361 11.4848 32.9726 11.3494 33.0456C11.0112 33.0456 10.6391 33.0456 10.3008 33.0456C9.79342 32.7537 9.28602 32.4618 8.77863 32.2064C8.30505 32.4618 7.79765 32.7537 7.29025 33.0456C6.95199 33.0456 6.5799 33.0456 6.24163 33.0456C6.2078 33.0091 6.14015 32.9726 6.10632 32.9726C4.78709 32.5348 4.0429 31.4766 4.0429 30.017C4.0429 28.0102 4.0429 26.0398 4.0429 24.0329C4.0429 23.7045 3.97525 23.5586 3.67081 23.4126C2.48688 22.9018 1.64121 21.9531 1.13381 20.676C0.964678 20.2381 0.897025 19.8002 0.761719 19.3624ZM4.00907 21.9531C4.00907 21.6976 4.00907 21.5517 4.00907 21.4057C4.00907 19.4353 4.00907 17.5015 4.00907 15.5311C4.00907 15.0932 4.27969 14.8013 4.65178 14.7648C5.02387 14.7283 5.36214 15.0567 5.39596 15.4581C5.39596 15.5676 5.39596 15.677 5.39596 15.823C5.39596 20.457 5.39596 25.0911 5.39596 29.6886C5.39596 29.8346 5.39596 29.9806 5.39596 30.1265C5.42979 30.8563 6.00484 31.5131 6.68138 31.5496C7.32408 31.586 7.89913 31.0752 8.03444 30.3454C8.06827 30.09 8.10209 29.8711 8.10209 29.6157C8.10209 27.3534 8.10209 25.0546 8.10209 22.7923C8.10209 22.245 8.33888 21.9531 8.7448 21.9166C9.18454 21.9166 9.45516 22.245 9.45516 22.7558C9.45516 24.2154 9.45516 25.6749 9.45516 27.1344C9.45516 28.1196 9.45516 29.1048 9.45516 30.0535C9.45516 30.7833 9.99638 31.4036 10.6391 31.5131C11.2141 31.5861 11.823 31.1847 12.026 30.5279C12.0936 30.236 12.1275 29.9441 12.1275 29.6157C12.1275 27.7183 12.1275 25.7844 12.1275 23.887C12.1275 21.1138 12.1275 18.3042 12.1275 15.5311C12.1275 15.0202 12.3981 14.7283 12.804 14.7283C13.2099 14.7283 13.4805 15.0567 13.5144 15.5311C13.5144 15.604 13.5144 15.7135 13.5144 15.7865C13.5144 17.6474 13.5144 19.5083 13.5144 21.4057C13.5144 21.5517 13.5144 21.6976 13.5144 21.9166C14.6645 21.1868 15.3072 20.2016 15.341 18.8515C15.3748 17.1366 15.341 15.4216 15.341 13.6701C15.341 11.0795 13.6835 8.74419 11.3156 8.23335C9.65812 7.86846 7.96679 7.86846 6.30928 8.19686C4.0429 8.7077 2.41922 10.6416 2.21626 13.0863C2.08096 15.0567 2.11478 17.0271 2.18244 18.9975C2.21626 20.3111 2.8928 21.2598 4.00907 21.9531ZM8.77863 1.6654C7.49321 1.6654 6.44459 2.76006 6.47842 4.11014C6.47842 5.46022 7.52704 6.55487 8.77863 6.55487C10.0302 6.55487 11.045 5.42373 11.045 4.07365C11.0112 2.76006 9.99638 1.70189 8.77863 1.6654Z" fill="#0B8491"/>
<path d="M23.3061 10.5273C21.4857 10.5273 20.0544 9.00939 20.0613 7.07143C20.0683 5.16294 21.4926 3.65236 23.2992 3.65236C25.1196 3.65236 26.5509 5.17031 26.544 7.10827C26.537 9.01676 25.1126 10.5273 23.3061 10.5273ZM25.2724 7.0788C25.2655 5.95139 24.3483 4.99346 23.2922 5.00083C22.2291 5.0082 21.3259 5.98086 21.3328 7.1009C21.3398 8.22094 22.2569 9.1936 23.3131 9.17887C24.3692 9.1715 25.2794 8.19883 25.2724 7.0788ZM20.0405 10.2178C19.7903 10.041 19.5194 10.1368 19.3109 10.3505C18.9774 10.6894 18.6508 11.0358 18.3312 11.3895C18.0394 11.7137 18.0186 12.1263 18.2687 12.4063C18.5327 12.7011 18.9357 12.6864 19.2553 12.3548C19.568 12.0305 19.8876 11.7063 20.1794 11.3674C20.3045 11.22 20.374 11.0284 20.5129 10.7779C20.3462 10.5715 20.2211 10.3431 20.0405 10.2178ZM18.2062 2.60601C18.6091 3.0555 19.0121 3.51236 19.4499 3.91763C19.6722 4.12396 20.0335 4.03553 20.235 3.8071C20.4504 3.56394 20.4921 3.1955 20.2767 2.9376C19.9154 2.51022 19.5402 2.0902 19.1233 1.72914C18.9774 1.60387 18.6508 1.60387 18.4563 1.68493C18.2826 1.75861 18.1784 2.01652 18.0672 2.17126C18.1297 2.38495 18.1367 2.52496 18.2062 2.60601ZM27.475 1.72177C27.079 2.11231 26.6899 2.51022 26.3286 2.9376C26.1062 3.1955 26.1549 3.56394 26.3703 3.8071C26.5926 4.05764 26.9608 4.11659 27.2179 3.87342C27.6209 3.49025 28.017 3.09234 28.3574 2.65022C28.4755 2.49548 28.4755 2.14915 28.3991 1.94283C28.3296 1.75861 28.0864 1.64808 27.9266 1.51545C27.7182 1.61124 27.5653 1.63335 27.475 1.72177ZM28.3991 11.5663C28.0031 11.1242 27.607 10.6747 27.1762 10.2768C26.9261 10.0484 26.6204 10.1221 26.3911 10.3579C26.1618 10.5937 26.0854 10.9252 26.3008 11.1905C26.676 11.6474 27.079 12.0895 27.5236 12.48C27.6557 12.5979 27.9822 12.5832 28.1559 12.4948C28.3296 12.4063 28.4269 12.1558 28.5381 12.0011C28.4755 11.7874 28.4686 11.64 28.3991 11.5663ZM23.9523 1.55229C23.9523 1.31649 23.9662 1.08806 23.9523 0.852267C23.9245 0.439622 23.6605 0.189087 23.2992 0.189087C22.9379 0.189087 22.6738 0.454359 22.6599 0.867005C22.6391 1.31649 22.646 1.77335 22.6599 2.23021C22.6738 2.66496 22.9379 2.93023 23.3131 2.92286C23.6883 2.92286 23.9314 2.65022 23.9523 2.21547C23.9592 1.99441 23.9523 1.77335 23.9523 1.55229ZM18.7273 7.77882C19.1372 7.74934 19.3804 7.4767 19.3734 7.0788C19.3665 6.69562 19.1233 6.42298 18.7342 6.40825C18.3104 6.38614 17.8796 6.39351 17.4488 6.40825C17.0528 6.42298 16.8096 6.69562 16.7957 7.07143C16.7887 7.46933 17.0319 7.74934 17.4419 7.77882C17.6572 7.79356 17.8796 7.77882 18.1019 7.77882C18.3104 7.77882 18.5258 7.79356 18.7273 7.77882ZM28.5589 6.40088C28.3296 6.40088 28.0934 6.38614 27.8641 6.40088C27.475 6.43035 27.2249 6.68826 27.2249 7.07143C27.2179 7.46197 27.4542 7.74934 27.8363 7.77145C28.2879 7.79356 28.7396 7.79356 29.1912 7.77145C29.5734 7.74934 29.8096 7.4546 29.8026 7.07143C29.7957 6.70299 29.5595 6.43772 29.1843 6.40825C28.9828 6.38614 28.7674 6.40088 28.5589 6.40088ZM22.653 12.5979C22.653 12.8337 22.6391 13.0622 22.653 13.298C22.6808 13.7106 22.9309 13.9759 23.2853 13.9832C23.6466 13.9906 23.9245 13.7401 23.9453 13.3274C23.9662 12.8485 23.9662 12.3695 23.9453 11.8905C23.9245 11.4779 23.6466 11.2347 23.2853 11.2421C22.9379 11.2495 22.6877 11.5 22.6599 11.8905C22.6391 12.1337 22.653 12.3695 22.653 12.5979Z" fill="#0B8491"/>
</svg>
