<svg width="15" height="16" viewBox="0 0 15 16" fill="none" xmlns="http://www.w3.org/2000/svg">
<path d="M8.85243 6.27797C8.0345 6.39979 7.23396 6.50421 6.41602 6.62603C6.34641 6.64343 6.2768 6.76525 6.18978 6.85227C6.93811 6.97409 7.04253 7.09591 6.85109 7.80943C6.64226 8.55775 6.41602 9.28868 6.20719 10.037C6.05056 10.6113 5.85913 11.203 5.77211 11.7947C5.6851 12.3168 6.06796 12.6823 6.60745 12.7171C7.05993 12.7519 7.4602 12.5952 7.77345 12.2994C8.17372 11.8991 8.52178 11.4466 8.88724 11.029C8.71321 10.8027 8.6262 10.8201 8.50437 10.9942C8.31294 11.2552 8.10411 11.4989 7.87787 11.7251C7.82566 11.7773 7.66903 11.8121 7.61682 11.7773C7.54721 11.7425 7.51241 11.6207 7.51241 11.5337C7.51241 11.4292 7.52981 11.3422 7.56462 11.2378C7.80826 10.3851 8.0519 9.53232 8.29554 8.67958C8.52178 7.89644 8.74802 7.11331 8.97425 6.31277C8.90464 6.27797 8.86984 6.27797 8.85243 6.27797ZM8.57399 3.16284C8.01709 3.16284 7.58202 3.61532 7.58202 4.17221C7.58202 4.7117 8.0345 5.14678 8.57399 5.12937C9.13088 5.11197 9.54855 4.6943 9.54855 4.13741C9.54855 3.58051 9.13088 3.16284 8.57399 3.16284Z" fill="#0B8491"/>
<path fill-rule="evenodd" clip-rule="evenodd" d="M2.625 0.882812C1.52043 0.882812 0.625 1.77824 0.625 2.88281V13.0018C0.625 14.1063 1.52043 15.0018 2.625 15.0018H12.744C13.8485 15.0018 14.744 14.1063 14.744 13.0018V2.88281C14.744 1.77824 13.8485 0.882812 12.744 0.882812H2.625ZM2.92676 2.18384C2.37447 2.18384 1.92676 2.63155 1.92676 3.18384V12.7006C1.92676 13.2529 2.37447 13.7006 2.92676 13.7006H12.4435C12.9958 13.7006 13.4435 13.2529 13.4435 12.7006V3.18384C13.4435 2.63155 12.9958 2.18384 12.4435 2.18384H2.92676Z" fill="#0B8491"/>
</svg>
