<svg width="17" height="22" viewBox="0 0 17 22" fill="none" xmlns="http://www.w3.org/2000/svg">
<path d="M8.28259 21.7212C8.54251 21.4364 8.79148 21.1655 9.03499 20.8945C10.1567 19.6337 11.2347 18.3341 12.247 16.982C13.3469 15.5111 14.3838 13.9986 15.2128 12.3479C15.6451 11.488 16.0199 10.606 16.195 9.64933C16.3647 8.73135 16.2853 7.81891 16.0664 6.92306C15.4837 4.53688 14.102 2.76453 11.957 1.61153C11.0815 1.13872 10.1376 0.85946 9.14716 0.76545C6.55345 0.519367 4.32363 1.32121 2.50694 3.20693C1.20188 4.559 0.495998 6.20693 0.315424 8.08988C0.200512 9.25946 0.474111 10.3461 0.922812 11.4051C1.48095 12.7323 2.21966 13.9599 3.02131 15.1489C4.34826 17.1231 5.83663 18.9728 7.41255 20.7535C7.69436 21.0742 7.98163 21.3867 8.28259 21.7212ZM8.28259 19.877C8.2525 19.83 8.24429 19.8079 8.23061 19.7913C6.78054 18.1876 5.4317 16.5009 4.21146 14.712C3.40708 13.5314 2.6711 12.312 2.0856 10.9986C1.58218 9.86776 1.39066 8.712 1.64237 7.47605C2.32363 4.15255 5.45085 1.4484 9.43444 2.02075C11.0104 2.24748 12.3209 3.01061 13.3688 4.21891C14.3674 5.3719 14.9037 6.72674 15.0432 8.25025C15.1143 9.04932 14.9529 9.80416 14.6711 10.5452C14.2251 11.6982 13.6177 12.7627 12.9611 13.7996C12.0117 15.2954 10.9556 16.7083 9.82568 18.0687C9.33047 18.6687 8.81611 19.2549 8.28259 19.877Z" fill="#10ABBD"/>
<path d="M8.29725 12.7674C10.5107 12.7674 12.2261 11.0172 12.2261 8.7637C12.2261 6.55449 10.4806 4.80149 8.28905 4.80702C6.0729 4.81255 4.3465 6.55449 4.3465 8.78582C4.3465 11.031 6.0729 12.7674 8.29725 12.7674ZM5.58043 8.80241C5.56675 7.36186 6.73775 6.08167 8.22065 6.05679C9.74459 6.0319 10.984 7.25956 10.9922 8.76647C11.0004 10.2623 9.78289 11.5121 8.30273 11.5204C6.8253 11.5342 5.58864 10.2983 5.58043 8.80241Z" fill="#10ABBD"/>
</svg>
