<svg width="17" height="18" viewBox="0 0 17 18" fill="none" xmlns="http://www.w3.org/2000/svg">
<path d="M13.3787 17.5032C14.42 17.1422 15.2851 16.5351 16.054 15.7475C16.2943 15.5013 16.5186 15.2224 16.6788 14.8942C16.8551 14.5168 16.8551 14.1394 16.5987 13.7948C16.4225 13.5487 16.2303 13.3189 16.006 13.122C15.3812 12.5149 14.6603 12.0062 13.9234 11.5468C13.4748 11.2678 13.0102 10.9889 12.4976 10.8084C11.9048 10.595 11.4563 10.7591 11.1199 11.2842C11.0398 11.4155 10.9597 11.5632 10.8956 11.7108C10.7514 12.0062 10.6232 12.3016 10.4791 12.6133C10.447 12.679 10.399 12.6954 10.3349 12.6626C10.2067 12.5969 10.0625 12.5477 9.93437 12.4657C9.03725 11.957 8.23624 11.3334 7.49932 10.6279C6.77841 9.92227 6.16965 9.13465 5.64099 8.26497C5.46477 7.98602 5.33661 7.70707 5.19242 7.41171C5.12834 7.28044 5.12834 7.26403 5.27252 7.19839C5.44875 7.11634 5.62497 7.0343 5.80119 6.95226C6.07353 6.80458 6.36189 6.6733 6.61821 6.50921C6.98667 6.24667 7.1629 5.86927 7.06677 5.39341C7.01871 5.1965 6.95463 4.99959 6.85851 4.81909C6.36189 3.71969 5.70507 2.73516 4.95212 1.81626C4.6958 1.50449 4.42346 1.22553 4.11908 0.99581C3.75062 0.716858 3.36613 0.700449 2.96563 0.930174C2.77339 1.04504 2.58115 1.1599 2.42095 1.32399C1.63596 1.99676 1.04322 2.83361 0.626698 3.78533C0.418437 4.26119 0.274256 4.76987 0.290276 5.31136C0.306296 5.77081 0.418437 6.19744 0.562618 6.62408C0.89904 7.5758 1.37964 8.42906 1.92433 9.26592C3.49429 11.6452 5.40069 13.6635 7.6435 15.37C8.65276 16.1413 9.71009 16.8304 10.8956 17.3063C11.3922 17.5032 11.9048 17.6673 12.4335 17.6673C12.7699 17.6837 13.0743 17.6181 13.3787 17.5032ZM1.55586 4.12992C1.92433 3.32588 2.42095 2.62029 3.07777 2.02957C3.17389 1.94753 3.28603 1.88189 3.39817 1.79985C3.46225 1.75062 3.51031 1.76703 3.57439 1.81626C3.79868 2.02957 4.02296 2.22648 4.2152 2.47261C4.90406 3.29306 5.49681 4.19555 5.96139 5.18009C6.02547 5.29495 6.05751 5.42622 6.10557 5.5575C6.13761 5.62313 6.12159 5.67236 6.05751 5.70518C5.88129 5.80363 5.70507 5.91849 5.51283 6.00054C5.30456 6.09899 5.08028 6.19744 4.88804 6.2959C4.74386 6.37794 4.59968 6.4764 4.47152 6.59126C4.2152 6.82098 4.1351 7.13275 4.2152 7.47734C4.31132 7.90397 4.51958 8.26497 4.72784 8.64238C5.32059 9.62691 6.02547 10.5622 6.85851 11.3663C7.67554 12.1539 8.55664 12.8431 9.53387 13.3846C9.72611 13.483 9.93437 13.5815 10.1426 13.6471C10.5912 13.7948 10.9597 13.6799 11.232 13.2697C11.3922 13.0072 11.5204 12.7118 11.6645 12.4328C11.7607 12.2359 11.8568 12.0226 11.9689 11.8257C12.049 11.6944 12.065 11.6944 12.2092 11.7437C12.6738 11.9078 13.1063 12.1703 13.5229 12.4328C14.1797 12.8431 14.8045 13.3025 15.3812 13.844C15.5254 13.9753 15.6535 14.1394 15.7817 14.2871C15.8458 14.3691 15.8458 14.4347 15.7977 14.5332C15.6215 14.8286 15.3972 15.0583 15.1569 15.288C14.6763 15.731 14.1316 16.092 13.5389 16.3874C12.866 16.7156 12.2092 16.7484 11.5043 16.4859C10.7033 16.1741 9.95039 15.7639 9.22949 15.288C6.49005 13.4338 4.2152 11.0873 2.45299 8.23215C2.02045 7.54298 1.65198 6.83739 1.4277 6.04976C1.3476 5.78722 1.31556 5.52468 1.28352 5.39341C1.2675 4.85191 1.37964 4.49091 1.55586 4.12992Z" fill="#10ABBD"/>
</svg>
