<svg width="44" height="15" viewBox="0 0 44 15" fill="none" xmlns="http://www.w3.org/2000/svg">
<path d="M3.36031 14.738C3.55558 14.9332 3.87216 14.9332 4.06742 14.738L7.2494 11.556C7.44466 11.3607 7.44466 11.0441 7.2494 10.8489C7.05414 10.6536 6.73756 10.6536 6.54229 10.8489L3.71387 13.6773L0.88544 10.8489C0.690178 10.6536 0.373595 10.6536 0.178333 10.8489C-0.016929 11.0441 -0.016929 11.3607 0.178333 11.556L3.36031 14.738ZM4.06742 0.21212C3.87216 0.0168581 3.55558 0.0168581 3.36031 0.21212L0.178333 3.3941C-0.0169294 3.58936 -0.0169293 3.90595 0.178333 4.10121C0.373595 4.29647 0.690178 4.29647 0.88544 4.10121L3.71387 1.27278L6.54229 4.10121C6.73756 4.29647 7.05414 4.29647 7.2494 4.10121C7.44466 3.90595 7.44466 3.58936 7.2494 3.3941L4.06742 0.21212ZM4.21387 14.3844L4.21387 0.565674L3.21387 0.565674L3.21387 14.3844L4.21387 14.3844Z" fill="#0B8491"/>
<path d="M12.0802 9.40519C11.978 8.82963 11.8465 8.28605 11.7735 7.72648C11.6713 7.039 11.7005 6.35153 11.8611 5.68005C11.9488 5.29634 12.0072 4.91263 12.0948 4.51294C12.2701 4.52893 12.2847 4.40103 12.2847 4.20917C12.2847 3.6496 12.2993 3.09003 12.3139 2.54645C12.3285 2.01885 12.606 1.73107 13.0734 1.6991C13.9497 1.63515 14.8114 1.60317 15.6877 1.50725C16.2865 1.44329 16.8853 1.33138 17.4695 1.25144C18.4189 1.12354 19.3682 0.97965 20.3175 0.899711C21.7488 0.771809 23.1802 0.659895 24.6115 0.595944C25.6484 0.547981 26.7 0.563969 27.737 0.595944C30.7749 0.739834 33.7689 1.12354 36.6753 2.14676C38.8369 2.89818 40.8378 3.98535 42.5758 5.60011C42.8972 5.90388 43.2039 6.22363 43.5106 6.55937C43.7881 6.84715 43.7735 7.05499 43.5106 7.35876C42.1523 8.90957 40.5311 10.0447 38.7347 10.908C36.9674 11.7714 35.1126 12.3309 33.1993 12.6987C31.7388 12.9864 30.2491 13.1943 28.7739 13.2422C27.2112 13.2902 25.6338 13.3062 24.0711 13.2742C22.9027 13.2422 21.7342 13.1623 20.5658 13.0344C19.266 12.9065 17.9661 12.6827 16.6516 12.5228C15.6731 12.4109 14.6945 12.3309 13.716 12.235C13.4385 12.203 13.1464 12.203 12.8689 12.1391C12.4892 12.0592 12.3139 11.7554 12.2993 11.3397C12.2847 10.7482 12.2555 10.1566 12.2555 9.56507C12.2701 9.3892 12.1532 9.42118 12.0802 9.40519ZM23.9104 1.47527C23.9834 1.49126 24.0419 1.49126 24.1003 1.49126C24.7575 1.50725 25.4294 1.53922 26.0866 1.55521C27.0067 1.5712 27.9414 1.5712 28.8616 1.77904C29.8109 2.01885 30.5704 2.53046 31.0523 3.48973C31.3883 4.16121 31.5197 4.88066 31.5927 5.63208C31.7096 6.89512 31.695 8.15815 31.4175 9.40519C31.0962 10.8281 30.3075 11.7554 28.993 12.1071C28.2774 12.299 27.5471 12.315 26.8168 12.3469C25.9113 12.3789 25.0058 12.3949 24.1003 12.4269C24.0419 12.4269 23.998 12.4429 23.925 12.4588C24.0419 12.6347 24.1441 12.7147 24.407 12.7147C25.5316 12.7466 26.6562 12.7946 27.7808 12.7946C28.7301 12.7946 29.6649 12.6987 30.5996 12.4589C32.1916 11.9952 33.2577 10.972 33.6375 9.18136C33.9296 7.71049 33.9296 6.22363 33.6375 4.75276C33.4038 3.58565 32.8488 2.64238 31.8702 2.03484C31.1254 1.5712 30.3075 1.34737 29.475 1.26743C28.5841 1.18749 27.6786 1.13953 26.7876 1.12354C25.9844 1.10755 25.1957 1.1715 24.3924 1.21947C24.2171 1.23545 24.0273 1.25144 23.9104 1.47527ZM17.1774 9.3892C17.1774 9.88482 17.1774 10.3645 17.1774 10.8601C17.1774 11.2118 17.2651 11.2758 17.5718 11.1958C17.8785 11.1319 18.1852 11.0359 18.5065 11.004C18.9447 10.956 19.3828 10.972 19.821 10.94C20.0985 10.924 20.1569 10.8601 20.1569 10.5723C20.1569 9.72495 20.1569 8.89358 20.1569 8.04623C20.1569 7.72648 20.1131 7.66253 19.821 7.66253C19.0177 7.64654 18.229 7.63055 17.4257 7.61456C17.2212 7.61456 17.1628 7.6945 17.1628 7.90234C17.1774 8.39796 17.1774 8.89358 17.1774 9.3892ZM17.1774 4.51294C17.1774 4.99257 17.1774 5.47221 17.1774 5.95184C17.1774 6.28758 17.192 6.30357 17.4987 6.30357C18.2582 6.28758 19.0323 6.27159 19.7918 6.25561C20.1569 6.23962 20.1715 6.23962 20.1715 5.82394C20.1715 5.00856 20.1715 4.19319 20.1569 3.37781C20.1569 3.05806 20.0985 2.99411 19.8064 2.97812C19.6749 2.96213 19.5289 2.96213 19.3974 2.96213C18.7694 2.94614 18.156 2.93015 17.5572 2.72231C17.2651 2.62639 17.1774 2.72231 17.1774 3.05806C17.1774 3.53769 17.1774 4.01732 17.1774 4.51294ZM28.2043 8.66975C28.2774 8.36599 28.2335 8.30204 27.9707 8.30204C27.4887 8.31802 27.0067 8.33401 26.5247 8.35C25.9697 8.38197 25.5754 8.63778 25.5024 9.11741C25.444 9.51711 25.444 9.94877 25.5024 10.3485C25.5608 10.8121 25.9259 11.0839 26.4517 11.1159C26.9337 11.1479 27.4303 11.1638 27.9122 11.1798C28.0145 11.1798 28.1459 11.1798 28.1897 11.1159C28.2482 11.0519 28.2189 10.908 28.2335 10.7961C28.4526 10.7641 28.511 10.7002 28.5257 10.4444C28.5403 9.96476 28.5257 9.50112 28.5257 9.02148C28.5403 8.81364 28.4526 8.66975 28.2043 8.66975ZM28.2043 3.12201C28.2774 2.83423 28.2335 2.7383 28.0437 2.7383C27.4595 2.75429 26.8607 2.77028 26.2765 2.83423C25.7653 2.88219 25.4732 3.29787 25.4586 3.87343C25.4586 4.08127 25.4586 4.28911 25.4586 4.49695C25.4586 5.10449 25.7361 5.48819 26.2911 5.55214C26.8315 5.6161 27.3718 5.6161 27.9122 5.63208C28.2189 5.64807 28.2482 5.6161 28.2043 5.26436C28.4234 5.24838 28.511 5.12048 28.511 4.88066C28.511 4.40103 28.511 3.93738 28.511 3.45775C28.5257 3.24991 28.438 3.10602 28.2043 3.12201ZM26.1742 10.1726C26.1888 10.2366 26.2472 10.2845 26.2911 10.3325C26.3349 10.2845 26.4371 10.2366 26.4371 10.1726C26.4517 9.88482 26.4517 9.58106 26.4371 9.29328C26.4371 9.24531 26.3495 9.19735 26.2911 9.14939C26.2472 9.19735 26.1742 9.24531 26.1742 9.30926C26.1596 9.45315 26.1742 9.58106 26.1742 9.72495C26.1742 9.86884 26.1596 10.0287 26.1742 10.1726ZM26.1742 4.60887C26.1742 4.67282 26.2472 4.72078 26.2911 4.76875C26.3349 4.72078 26.4371 4.67282 26.4371 4.62486C26.4517 4.33708 26.4517 4.03331 26.4371 3.74553C26.4371 3.68158 26.3349 3.63362 26.2765 3.58565C26.2326 3.6496 26.1742 3.69757 26.1742 3.7775C26.1596 3.90541 26.1742 4.0493 26.1742 4.1772C26.1742 4.32109 26.1596 4.46498 26.1742 4.60887Z" fill="#0B8491"/>
</svg>
