<svg width="21" height="17" viewBox="0 0 21 17" fill="none" xmlns="http://www.w3.org/2000/svg">
<path d="M18.6367 9.46222C17.4575 8.55192 16.2575 7.62093 15.0783 6.71063C15.0162 6.66926 14.9748 6.62788 14.9128 6.56581C14.9748 6.50375 15.0369 6.46237 15.0783 6.42099C16.2782 5.36587 17.4988 4.33144 18.6988 3.27632C18.7608 3.21425 18.8436 3.15219 18.885 3.06943C19.0298 2.88324 18.9884 2.63497 18.8022 2.49015C18.616 2.34533 18.4091 2.34533 18.1816 2.55222C17.4781 3.15219 16.7954 3.75216 16.092 4.35213C15.0576 5.24174 14.0231 6.15204 12.9887 7.04165C12.906 7.12441 12.8439 7.16578 12.7198 7.06234C11.4371 5.94515 10.113 4.82797 8.8303 3.69009C8.39584 3.3177 7.96138 2.92461 7.50623 2.55222C7.25796 2.34533 7.0097 2.34533 6.8235 2.57291C6.65799 2.77979 6.69937 3.02806 6.96832 3.25563C7.79587 3.95904 8.60272 4.66246 9.43027 5.38656C9.90611 5.80033 10.3613 6.19342 10.8578 6.62788C10.3819 7.00027 9.9268 7.37267 9.49234 7.72438C9.07856 8.05539 8.66479 8.38641 8.25102 8.71743C7.98207 8.92432 7.96138 9.19327 8.16826 9.40016C8.33377 9.58635 8.58204 9.56566 8.8303 9.37947C9.67853 8.69674 10.5268 8.03471 11.375 7.35198C11.5198 7.22785 11.6026 7.24854 11.7267 7.37267C11.975 7.62093 12.2646 7.82782 12.5336 8.05539C12.8025 8.28297 12.968 8.28297 13.237 8.05539C13.5266 7.82782 13.7956 7.57956 14.0645 7.33129C14.1887 7.20716 14.2921 7.18647 14.4369 7.3106C15.6782 8.28297 16.9402 9.23465 18.1816 10.207C18.2436 10.2691 18.3264 10.3105 18.4091 10.3518C18.5953 10.4346 18.8022 10.3932 18.9057 10.2277C19.0298 10.0622 19.0298 9.8553 18.9057 9.6898C18.8022 9.58635 18.7195 9.52429 18.6367 9.46222ZM18.6367 9.46222C17.4575 8.55192 16.2575 7.62093 15.0783 6.71063C15.0162 6.66926 14.9748 6.62788 14.9128 6.56581C14.9748 6.50375 15.0369 6.46237 15.0783 6.42099C16.2782 5.36587 17.4988 4.33144 18.6988 3.27632C18.7608 3.21425 18.8436 3.15219 18.885 3.06943C19.0298 2.88324 18.9884 2.63497 18.8022 2.49015C18.616 2.34533 18.4091 2.34533 18.1816 2.55222C17.4781 3.15219 16.7954 3.75216 16.092 4.35213C15.0576 5.24174 14.0231 6.15204 12.9887 7.04165C12.906 7.12441 12.8439 7.16578 12.7198 7.06234C11.4371 5.94515 10.113 4.82797 8.8303 3.69009C8.39584 3.3177 7.96138 2.92461 7.50623 2.55222C7.25796 2.34533 7.0097 2.34533 6.8235 2.57291C6.65799 2.77979 6.69937 3.02806 6.96832 3.25563C7.79587 3.95904 8.60272 4.66246 9.43027 5.38656C9.90611 5.80033 10.3613 6.19342 10.8578 6.62788C10.3819 7.00027 9.9268 7.37267 9.49234 7.72438C9.07856 8.05539 8.66479 8.38641 8.25102 8.71743C7.98207 8.92432 7.96138 9.19327 8.16826 9.40016C8.33377 9.58635 8.58204 9.56566 8.8303 9.37947C9.67853 8.69674 10.5268 8.03471 11.375 7.35198C11.5198 7.22785 11.6026 7.24854 11.7267 7.37267C11.975 7.62093 12.2646 7.82782 12.5336 8.05539C12.8025 8.28297 12.968 8.28297 13.237 8.05539C13.5266 7.82782 13.7956 7.57956 14.0645 7.33129C14.1887 7.20716 14.2921 7.18647 14.4369 7.3106C15.6782 8.28297 16.9402 9.23465 18.1816 10.207C18.2436 10.2691 18.3264 10.3105 18.4091 10.3518C18.5953 10.4346 18.8022 10.3932 18.9057 10.2277C19.0298 10.0622 19.0298 9.8553 18.9057 9.6898C18.8022 9.58635 18.7195 9.52429 18.6367 9.46222ZM20.9538 2.32464C20.9538 2.035 20.8918 1.74536 20.7883 1.51779C20.4987 0.938503 19.9815 0.628174 19.2367 0.628174C17.0023 0.628174 14.7679 0.628174 12.5336 0.628174H6.43042C6.38904 0.628174 6.34766 0.628174 6.32697 0.628174C5.43736 0.669551 4.8167 1.26952 4.75464 2.13844C4.67188 2.11776 4.58913 2.11776 4.50637 2.11776C4.32018 2.11776 4.15467 2.17982 4.03054 2.2212L3.84434 2.28326C3.30643 2.51084 2.72715 2.7591 2.18925 3.00737C1.98236 3.11081 1.77547 3.25563 1.63065 3.44183C1.07206 4.14524 0.865175 5.01416 1.00999 6.02791C1.1755 7.16578 1.63065 8.24159 2.49958 9.54498C3.30643 10.7656 4.29949 11.9035 5.54081 13.0207C6.88557 14.2206 8.1062 15.0275 9.40958 15.5654C10.2371 15.9171 10.9199 16.0619 11.5612 16.0619C11.8095 16.0619 12.0577 16.0412 12.306 15.9791C12.9473 15.855 13.8163 15.5654 14.1887 14.4896C14.3128 14.0965 14.499 13.7034 14.6852 13.331L14.7266 13.2689C14.83 13.0414 14.9955 12.6896 14.9128 12.2759H17.4161C18.0367 12.2759 18.6574 12.2759 19.2987 12.2759C20.3332 12.2759 20.9952 11.6138 20.9952 10.5794C20.9538 8.07608 20.9745 5.20036 20.9538 2.32464ZM13.6714 12.7103C13.4646 13.1862 13.237 13.662 13.0508 14.1585C12.9473 14.4275 12.7611 14.593 12.5129 14.6964C11.8302 14.9861 11.1474 14.9033 10.4647 14.6964C9.07856 14.262 7.89931 13.4758 6.78212 12.5448C5.39599 11.3863 4.19604 10.0829 3.26506 8.53123C2.70646 7.66231 2.25131 6.73132 2.16856 5.6762C2.12718 5.15898 2.18925 4.64177 2.54095 4.20731C2.58233 4.16593 2.62371 4.10386 2.68577 4.08318C3.30643 3.81422 3.9064 3.56596 4.54775 3.29701C5.0029 4.0418 5.41667 4.78659 5.87182 5.51069C6.05802 5.82102 6.07871 6.0486 5.89251 6.35893C5.62356 6.7727 5.41667 7.20716 5.1891 7.64162C4.94084 8.11746 4.98221 8.44848 5.3753 8.82087C6.34766 9.79324 7.32003 10.7656 8.2924 11.738C8.62341 12.069 8.97512 12.1311 9.38889 11.9035C9.9268 11.6345 10.444 11.3449 10.9612 11.0552C11.106 10.9725 11.2095 10.9725 11.3543 11.0552C12.0991 11.5104 12.8646 11.9449 13.6094 12.4C13.7335 12.4828 13.7335 12.5655 13.6714 12.7103ZM19.7953 10.4346C19.7953 10.538 19.7953 10.6415 19.7746 10.7449C19.7332 10.9311 19.6091 11.0552 19.4022 11.0759C19.3401 11.0759 19.2574 11.0759 19.1953 11.0759C17.2299 11.0759 15.2645 11.0759 13.299 11.0759C13.1749 11.0759 13.0094 11.0346 12.906 10.9725C12.4922 10.7449 12.0784 10.4967 11.6853 10.2484C11.3336 10.0415 11.0026 10.0208 10.6509 10.2277C10.1337 10.5173 9.59578 10.7863 9.07856 11.0759C8.95443 11.138 8.89237 11.138 8.80961 11.0346C7.89931 10.1036 6.96832 9.17258 6.03733 8.26228C5.93389 8.15884 5.93389 8.09677 5.99596 7.99333C6.2856 7.47611 6.55455 6.93821 6.84419 6.42099C7.03039 6.06928 7.03039 5.73827 6.8235 5.40725C6.55455 4.97279 6.2856 4.51764 6.03733 4.06249C5.97527 3.97973 5.95458 3.8556 5.95458 3.75216C5.95458 3.29701 5.95458 2.84186 5.95458 2.38671C5.95458 1.97294 6.0994 1.82811 6.51317 1.82811C8.6441 1.82811 10.7543 1.82811 12.8853 1.82811C14.9748 1.82811 17.0851 1.82811 19.1746 1.82811C19.7125 1.82811 19.816 1.93156 19.816 2.46946V10.4346H19.7953ZM18.6988 3.27632C18.7608 3.21425 18.8436 3.15219 18.885 3.06943C19.0298 2.88324 18.9884 2.63497 18.8022 2.49015C18.616 2.34533 18.4091 2.34533 18.1816 2.55222C17.4781 3.15219 16.7954 3.75216 16.092 4.35213C15.0576 5.24174 14.0231 6.15204 12.9887 7.04165C12.906 7.12441 12.8439 7.16578 12.7198 7.06234C11.4371 5.94515 10.113 4.82797 8.8303 3.69009C8.39584 3.3177 7.96138 2.92461 7.50623 2.55222C7.25796 2.34533 7.0097 2.34533 6.8235 2.57291C6.65799 2.77979 6.69937 3.02806 6.96832 3.25563C7.79587 3.95904 8.60272 4.66246 9.43027 5.38656C9.90611 5.80033 10.3613 6.19342 10.8578 6.62788C10.3819 7.00027 9.9268 7.37267 9.49234 7.72438C9.07856 8.05539 8.66479 8.38641 8.25102 8.71743C7.98207 8.92432 7.96138 9.19327 8.16826 9.40016C8.33377 9.58635 8.58204 9.56566 8.8303 9.37947C9.67853 8.69674 10.5268 8.03471 11.375 7.35198C11.5198 7.22785 11.6026 7.24854 11.7267 7.37267C11.975 7.62093 12.2646 7.82782 12.5336 8.05539C12.8025 8.28297 12.968 8.28297 13.237 8.05539C13.5266 7.82782 13.7956 7.57956 14.0645 7.33129C14.1887 7.20716 14.2921 7.18647 14.4369 7.3106C15.6782 8.28297 16.9402 9.23465 18.1816 10.207C18.2436 10.2691 18.3264 10.3105 18.4091 10.3518C18.5953 10.4346 18.8022 10.3932 18.9057 10.2277C19.0298 10.0622 19.0298 9.8553 18.9057 9.6898C18.8436 9.60704 18.7608 9.54498 18.6574 9.48291C17.4781 8.57261 16.2782 7.64162 15.099 6.73132C15.0369 6.68994 14.9955 6.64857 14.9334 6.5865C14.9955 6.52443 15.0576 6.48306 15.099 6.44168C16.2782 5.36587 17.4781 4.33144 18.6988 3.27632ZM18.6367 9.46222C17.4575 8.55192 16.2575 7.62093 15.0783 6.71063C15.0162 6.66926 14.9748 6.62788 14.9128 6.56581C14.9748 6.50375 15.0369 6.46237 15.0783 6.42099C16.2782 5.36587 17.4988 4.33144 18.6988 3.27632C18.7608 3.21425 18.8436 3.15219 18.885 3.06943C19.0298 2.88324 18.9884 2.63497 18.8022 2.49015C18.616 2.34533 18.4091 2.34533 18.1816 2.55222C17.4781 3.15219 16.7954 3.75216 16.092 4.35213C15.0576 5.24174 14.0231 6.15204 12.9887 7.04165C12.906 7.12441 12.8439 7.16578 12.7198 7.06234C11.4371 5.94515 10.113 4.82797 8.8303 3.69009C8.39584 3.3177 7.96138 2.92461 7.50623 2.55222C7.25796 2.34533 7.0097 2.34533 6.8235 2.57291C6.65799 2.77979 6.69937 3.02806 6.96832 3.25563C7.79587 3.95904 8.60272 4.66246 9.43027 5.38656C9.90611 5.80033 10.3613 6.19342 10.8578 6.62788C10.3819 7.00027 9.9268 7.37267 9.49234 7.72438C9.07856 8.05539 8.66479 8.38641 8.25102 8.71743C7.98207 8.92432 7.96138 9.19327 8.16826 9.40016C8.33377 9.58635 8.58204 9.56566 8.8303 9.37947C9.67853 8.69674 10.5268 8.03471 11.375 7.35198C11.5198 7.22785 11.6026 7.24854 11.7267 7.37267C11.975 7.62093 12.2646 7.82782 12.5336 8.05539C12.8025 8.28297 12.968 8.28297 13.237 8.05539C13.5266 7.82782 13.7956 7.57956 14.0645 7.33129C14.1887 7.20716 14.2921 7.18647 14.4369 7.3106C15.6782 8.28297 16.9402 9.23465 18.1816 10.207C18.2436 10.2691 18.3264 10.3105 18.4091 10.3518C18.5953 10.4346 18.8022 10.3932 18.9057 10.2277C19.0298 10.0622 19.0298 9.8553 18.9057 9.6898C18.8022 9.58635 18.7195 9.52429 18.6367 9.46222ZM18.6367 9.46222C17.4575 8.55192 16.2575 7.62093 15.0783 6.71063C15.0162 6.66926 14.9748 6.62788 14.9128 6.56581C14.9748 6.50375 15.0369 6.46237 15.0783 6.42099C16.2782 5.36587 17.4988 4.33144 18.6988 3.27632C18.7608 3.21425 18.8436 3.15219 18.885 3.06943C19.0298 2.88324 18.9884 2.63497 18.8022 2.49015C18.616 2.34533 18.4091 2.34533 18.1816 2.55222C17.4781 3.15219 16.7954 3.75216 16.092 4.35213C15.0576 5.24174 14.0231 6.15204 12.9887 7.04165C12.906 7.12441 12.8439 7.16578 12.7198 7.06234C11.4371 5.94515 10.113 4.82797 8.8303 3.69009C8.39584 3.3177 7.96138 2.92461 7.50623 2.55222C7.25796 2.34533 7.0097 2.34533 6.8235 2.57291C6.65799 2.77979 6.69937 3.02806 6.96832 3.25563C7.79587 3.95904 8.60272 4.66246 9.43027 5.38656C9.90611 5.80033 10.3613 6.19342 10.8578 6.62788C10.3819 7.00027 9.9268 7.37267 9.49234 7.72438C9.07856 8.05539 8.66479 8.38641 8.25102 8.71743C7.98207 8.92432 7.96138 9.19327 8.16826 9.40016C8.33377 9.58635 8.58204 9.56566 8.8303 9.37947C9.67853 8.69674 10.5268 8.03471 11.375 7.35198C11.5198 7.22785 11.6026 7.24854 11.7267 7.37267C11.975 7.62093 12.2646 7.82782 12.5336 8.05539C12.8025 8.28297 12.968 8.28297 13.237 8.05539C13.5266 7.82782 13.7956 7.57956 14.0645 7.33129C14.1887 7.20716 14.2921 7.18647 14.4369 7.3106C15.6782 8.28297 16.9402 9.23465 18.1816 10.207C18.2436 10.2691 18.3264 10.3105 18.4091 10.3518C18.5953 10.4346 18.8022 10.3932 18.9057 10.2277C19.0298 10.0622 19.0298 9.8553 18.9057 9.6898C18.8022 9.58635 18.7195 9.52429 18.6367 9.46222Z" fill="#ffffff"/>
</svg>
