<svg width="24" height="14" viewBox="0 0 24 14" fill="none" xmlns="http://www.w3.org/2000/svg">
<path d="M5.63924 5.25129C5.95915 4.76202 6.26024 4.25393 6.61778 3.68939C6.20379 3.68939 5.86506 3.68939 5.52633 3.68939C5.41343 3.68939 5.2817 3.70821 5.16879 3.67057C4.96179 3.61412 4.84888 3.48239 4.84888 3.25657C4.84888 3.03076 4.98061 2.89903 5.16879 2.86139C5.31933 2.82376 5.46988 2.84257 5.62042 2.84257C6.44842 2.84257 7.27642 2.84257 8.12323 2.84257C8.23614 2.84257 8.36787 2.86139 8.48077 2.84257C9.12059 2.72967 9.55341 2.33449 9.28995 1.58176C9.2335 1.4124 9.12059 1.24304 9.04532 1.07367C8.87595 0.697311 9.0265 0.433858 9.4405 0.41504C9.8545 0.396222 10.2497 0.377404 10.6637 0.41504C10.8707 0.433858 11.0777 0.546767 11.247 0.678493C12.1503 1.31831 13.0348 1.95812 13.938 2.59794C14.0886 2.71085 14.2579 2.82376 14.4273 2.84257C15.7446 2.9743 16.8925 3.53884 18.0027 4.2163C18.4167 4.47975 18.8307 4.76202 19.2071 5.06311C19.4141 5.23247 19.6399 5.28893 19.9034 5.28893C20.976 5.28893 22.0486 5.28893 23.1024 5.28893C23.2153 5.28893 23.3471 5.28893 23.46 5.28893C23.8552 5.34538 24.0057 5.64647 23.7987 5.9852C23.6858 6.15456 23.5541 6.3051 23.4223 6.45565C22.6696 7.30246 21.7852 7.97991 20.7878 8.50682C20.6749 8.56328 20.562 8.63855 20.4491 8.75146C21.2206 8.75146 21.9922 8.75146 22.7449 8.75146C22.9331 8.75146 23.1213 8.73264 23.3094 8.77028C23.5353 8.80791 23.667 8.93964 23.6858 9.18427C23.7046 9.39127 23.5353 9.56064 23.3094 9.59827C23.1777 9.61709 23.046 9.61709 22.8954 9.61709C15.7822 9.61709 8.6125 9.61709 1.46162 9.61709C1.38635 9.61709 1.3299 9.61709 1.25463 9.61709C0.840627 9.59827 0.671264 9.42891 0.708901 8.99609C0.784173 8.281 1.02881 7.60355 1.46162 7.02019C2.15789 6.07929 3.13644 5.60884 4.26552 5.42065C4.69834 5.34538 5.13115 5.30775 5.63924 5.25129ZM22.5567 6.13574C22.3121 6.13574 22.1804 6.13574 22.0486 6.13574C18.492 6.13574 14.9166 6.13574 11.3599 6.13574C9.45932 6.13574 7.55869 6.13574 5.65806 6.13574C4.8677 6.13574 4.09616 6.22983 3.36225 6.54974C2.42135 6.96374 1.8568 7.69764 1.61217 8.75146C1.83799 8.75146 2.00735 8.75146 2.17671 8.75146C6.93769 8.75146 11.7175 8.75146 16.4785 8.75146C18.1721 8.75146 19.7152 8.24337 21.1265 7.3401C21.6158 7.02019 22.1051 6.68147 22.5567 6.13574ZM15.6505 4.08457C15.1236 3.8023 14.5778 3.70821 13.9945 3.70821C12.0186 3.70821 10.0239 3.70821 8.04796 3.70821C7.91623 3.70821 7.78451 3.72703 7.63396 3.72703C7.31405 4.23511 6.99415 4.7432 6.6366 5.28893C10.4567 5.28893 14.2015 5.28893 18.0027 5.28893C17.7581 5.04429 17.5323 4.91257 17.2124 4.93138C16.2903 4.9502 15.387 4.93138 14.4649 4.93138C14.1262 4.93138 13.938 4.78084 13.9192 4.5362C13.9004 4.27275 14.1074 4.10339 14.4649 4.10339C14.8789 4.06575 15.2741 4.08457 15.6505 4.08457ZM10.1744 2.80494C10.6449 2.88021 12.3385 2.86139 12.7148 2.7673C12.0562 2.29685 11.4164 1.8264 10.7766 1.35594C10.5884 1.22422 10.4002 1.22422 10.2685 1.28067C10.2309 1.80758 10.1932 2.31567 10.1744 2.80494ZM20.5244 11.4424C20.6373 11.4424 20.769 11.4424 20.8819 11.4424C21.1454 11.4048 21.3147 11.2354 21.2959 11.0096C21.2771 10.7838 21.1265 10.6333 20.9007 10.6144C20.8066 10.5956 20.6937 10.6144 20.5996 10.6144C14.9354 10.6144 9.27114 10.6144 3.60689 10.6144C3.53162 10.6144 3.47516 10.6144 3.39989 10.6144C3.0988 10.6521 2.92944 10.8026 2.94825 11.0473C2.94825 11.2731 3.11762 11.4236 3.38107 11.4424C3.5128 11.4613 3.64452 11.4424 3.79507 11.4424C6.56133 11.4424 9.32759 11.4424 12.0939 11.4424C14.8789 11.4424 17.7016 11.4424 20.5244 11.4424ZM12.075 13.2866C13.5993 13.2866 15.1236 13.2866 16.6478 13.2866C16.7796 13.2866 16.9301 13.2866 17.0618 13.2678C17.2876 13.2302 17.4382 13.042 17.4194 12.835C17.4006 12.628 17.2688 12.4963 17.0806 12.4586C16.9489 12.421 16.836 12.4398 16.7043 12.4398C13.6369 12.4398 10.5696 12.4398 7.50223 12.4398C7.38933 12.4398 7.2576 12.4398 7.14469 12.4586C6.93769 12.4963 6.80596 12.628 6.78715 12.835C6.76833 13.042 6.90005 13.2302 7.12587 13.2678C7.2576 13.2866 7.38933 13.2866 7.53987 13.2866C9.06414 13.2866 10.5696 13.2866 12.075 13.2866ZM4.4537 7.15192C4.4537 7.41537 4.64188 7.58473 4.96179 7.58473C5.26288 7.58473 5.4887 7.41537 5.4887 7.17074C5.4887 6.9261 5.2817 6.73792 4.98061 6.73792C4.6607 6.7191 4.4537 6.88847 4.4537 7.15192ZM6.09088 7.1331C6.09088 7.39655 6.27906 7.56592 6.59897 7.56592C6.91887 7.56592 7.12587 7.39655 7.12587 7.15192C7.12587 6.90728 6.91887 6.7191 6.61778 6.7191C6.29788 6.7191 6.09088 6.86965 6.09088 7.1331ZM8.74423 7.17074C8.76305 6.9261 8.55605 6.73792 8.25496 6.73792C7.93505 6.73792 7.72805 6.88847 7.72805 7.1331C7.70923 7.39655 7.91623 7.56592 8.21732 7.56592C8.51841 7.58473 8.74423 7.41537 8.74423 7.17074ZM10.3814 7.1331C10.3626 6.88847 10.1368 6.7191 9.83568 6.73792C9.53459 6.73792 9.32759 6.9261 9.34641 7.18955C9.36523 7.43419 9.57222 7.60355 9.89213 7.58473C10.1932 7.56592 10.4002 7.37774 10.3814 7.1331ZM8.27378 4.08457C7.80332 4.08457 7.59632 4.2163 7.61514 4.51739C7.61514 4.79966 7.80332 4.93138 8.25496 4.93138C9.47813 4.93138 10.6825 4.93138 11.9057 4.93138C11.9998 4.93138 12.1127 4.93138 12.2068 4.91257C12.3949 4.85611 12.5267 4.70557 12.5267 4.49857C12.5267 4.29157 12.3949 4.14102 12.1879 4.10339C12.075 4.08457 11.9433 4.08457 11.8304 4.08457C11.247 4.08457 10.6825 4.08457 10.0991 4.08457C9.49695 4.08457 8.89477 4.08457 8.27378 4.08457Z" fill="#ffffff"/>
</svg>
