<svg width="469" height="100" viewBox="0 0 469 100" fill="none" xmlns="http://www.w3.org/2000/svg">
<path d="M468.421 37.7054C465.167 37.7054 461.89 37.7054 458.519 37.7054C458.519 47.635 458.519 57.3305 458.519 67.1197C456.646 67.1197 454.867 67.1197 452.901 67.1197C452.901 66.6045 452.901 66.1127 452.901 65.6443C452.901 56.8153 452.877 48.0098 452.924 39.1808C452.924 38.0332 452.597 37.7288 451.473 37.7522C448.664 37.8225 445.878 37.7756 442.975 37.7756C442.975 36.0895 442.975 34.5204 442.975 32.8576C443.256 32.8108 443.537 32.7405 443.841 32.7405C451.847 32.7405 459.83 32.7405 467.836 32.7405C468.023 32.7405 468.234 32.7874 468.421 32.8108C468.421 34.4267 468.421 36.066 468.421 37.7054Z" fill="#30384E"/>
<path d="M315.909 67.4949C314.107 67.4949 312.562 67.5184 310.993 67.4715C310.712 67.4715 310.384 67.1905 310.197 66.9329C309.635 66.1835 309.167 65.3872 308.582 64.5207C308.207 64.7315 307.88 64.8954 307.552 65.0827C299.359 70.0242 288.52 67.6823 283.487 59.8603C278.712 52.4364 279.905 39.6026 289.012 34.5909C296.549 30.4223 306.709 32.0616 311.953 38.3848C316.728 44.1459 317.197 53.9352 312.936 60.1881C312.468 60.8673 312.398 61.3357 312.866 62.0382C313.755 63.3263 314.551 64.6612 315.347 65.9961C315.605 66.3942 315.698 66.886 315.909 67.4949ZM298.375 37.6822C292.71 37.6822 288.356 40.7502 287.116 45.9961C286.647 48.0335 286.554 50.2584 286.811 52.3427C287.373 56.8158 289.761 60.1413 294.138 61.5933C298.656 63.0921 302.94 62.5301 306.569 59.2279C309.097 56.9329 309.94 53.8649 310.057 50.5862C310.408 42.2958 305.094 37.6354 298.375 37.6822Z" fill="#30384E"/>
<path d="M128.166 32.998C133.316 32.998 138.42 32.5998 143.429 33.0916C150.639 33.7942 155.93 39.3211 157.03 46.5108C157.826 51.6162 157.03 56.3937 153.987 60.656C150.991 64.8481 146.753 66.8855 141.697 67.0963C137.226 67.2837 132.731 67.1431 128.143 67.1431C128.166 55.738 128.166 44.3329 128.166 32.998ZM133.808 61.827C136.711 61.827 139.473 61.9909 142.235 61.7801C144.974 61.5694 147.268 60.1876 149.001 58.0097C152.184 54.005 152.559 47.6115 149.89 43.1385C148.322 40.5155 146.075 38.6654 143.078 38.2439C140.058 37.8223 136.968 37.916 133.808 37.7989C133.808 45.9254 133.808 53.841 133.808 61.827Z" fill="#30384E"/>
<path d="M431.552 42.1541C429.749 42.1541 428.064 42.1541 426.331 42.1541C425.582 38.6881 422.984 37.7513 419.964 37.4469C417.974 37.2361 415.985 37.4 414.135 38.3134C412.216 39.2736 411.326 40.7256 411.513 42.8333C411.677 44.7771 412.918 45.9012 414.65 46.3228C416.874 46.8614 419.168 47.119 421.415 47.5406C423.171 47.8919 424.95 48.1963 426.636 48.735C430.522 49.9762 432.582 52.7397 432.722 56.8146C432.839 60.5383 431.435 63.5125 428.134 65.4329C424.693 67.4236 420.924 67.7983 417.038 67.4938C414.159 67.283 411.443 66.4634 409.102 64.7069C406.621 62.8568 405.38 60.3743 405.24 57.2127C407.089 57.2127 408.891 57.2127 410.764 57.2127C411.232 60.3041 413.456 61.5687 416.219 62.1776C418.7 62.7163 421.181 62.6226 423.616 61.8029C425.887 61.0301 427.01 59.4844 427.01 57.3064C427.01 55.0816 425.933 53.4891 423.569 52.9036C421.252 52.3181 418.817 52.1542 416.453 51.6858C414.674 51.3345 412.848 50.9364 411.162 50.3041C403.905 47.5406 404.795 38.4305 409.172 35.1518C411.232 33.6061 413.527 32.763 416.055 32.4586C419.519 32.037 422.914 32.2712 426.121 33.7466C429.585 35.3626 431.669 38.5476 431.552 42.1541Z" fill="#30384E"/>
<path d="M272.111 67.2591C270.098 67.2591 268.342 67.3059 266.61 67.2356C266.305 67.2122 265.907 66.8141 265.744 66.4862C264.831 64.6829 263.964 62.8563 263.122 61.0061C262.841 60.3972 262.513 60.1396 261.811 60.1396C257.129 60.163 252.447 60.1396 247.765 60.1865C247.391 60.1865 246.829 60.5378 246.665 60.889C245.729 62.7157 244.862 64.5893 244.02 66.4862C243.762 67.0717 243.434 67.3059 242.779 67.2825C241.117 67.2356 239.431 67.2591 237.582 67.2591C237.699 66.7438 237.746 66.3223 237.91 65.971C242.99 55.1045 248.116 44.2614 253.173 33.3715C253.664 32.2943 254.484 32.6924 255.233 32.5753C255.935 32.4816 256.333 32.7392 256.661 33.4184C261.67 44.238 266.727 55.0343 271.76 65.8305C271.924 66.252 271.971 66.6736 272.111 67.2591ZM254.928 41.5682C252.845 46.3223 250.902 50.7251 248.912 55.245C252.985 55.245 256.848 55.245 260.898 55.245C258.908 50.7485 256.988 46.3223 254.928 41.5682Z" fill="#30384E"/>
<path d="M200.525 67.2593C198.465 67.2593 196.685 67.3061 194.906 67.2124C194.602 67.189 194.228 66.7675 194.064 66.4396C193.174 64.6598 192.308 62.8799 191.489 61.0532C191.208 60.4209 190.857 60.1165 190.107 60.1165C185.472 60.1633 180.837 60.1399 176.179 60.1165C175.547 60.1165 175.219 60.3038 174.938 60.8893C174.095 62.7862 173.206 64.6363 172.293 66.4865C172.152 66.7909 171.801 67.189 171.52 67.189C169.694 67.2593 167.869 67.2124 165.832 67.2124C166.043 66.5801 166.16 66.0883 166.347 65.6668C171.357 54.9877 176.366 44.3086 181.352 33.606C181.774 32.7161 182.265 32.5288 183.131 32.5522C183.998 32.5756 184.606 32.6224 185.051 33.5826C189.99 44.3086 195 54.9877 199.963 65.6902C200.197 66.1586 200.314 66.6036 200.525 67.2593ZM189.218 55.2921C187.228 50.7254 185.285 46.2992 183.249 41.592C181.165 46.3226 179.222 50.7488 177.232 55.2921C181.306 55.2921 185.145 55.2921 189.218 55.2921Z" fill="#30384E"/>
<path d="M329.44 32.6236C331.383 32.6236 333.209 32.6236 335.152 32.6236C335.152 33.1622 335.152 33.6072 335.152 34.0755C335.152 40.7968 335.152 47.4947 335.152 54.216C335.152 60.2582 339.436 63.5603 345.335 62.038C348.753 61.1481 350.602 58.6891 350.602 54.8483C350.625 47.9865 350.602 41.1247 350.602 34.2395C350.602 33.7477 350.602 33.2325 350.602 32.647C352.475 32.647 354.254 32.647 356.22 32.647C356.22 33.0919 356.22 33.5369 356.22 33.9819C356.22 41.0545 356.22 48.1036 356.22 55.1762C356.22 61.6399 352.077 66.3472 345.639 67.2137C343.205 67.5415 340.817 67.4713 338.453 66.839C332.717 65.2933 329.44 61.1247 329.393 55.1762C329.346 47.9631 329.393 40.75 329.393 33.5369C329.393 33.2325 329.417 32.9748 329.44 32.6236Z" fill="#30384E"/>
<path d="M371.904 32.8099C378.833 32.8099 385.716 32.8099 392.692 32.8099C392.692 34.379 392.692 35.9481 392.692 37.6811C387.706 37.6811 382.719 37.6811 377.64 37.6811C377.64 40.7724 377.64 43.7232 377.64 46.838C382.345 46.838 387.074 46.838 391.873 46.838C391.873 48.6179 391.873 50.2338 391.873 51.9668C387.097 51.9668 382.415 51.9668 377.64 51.9668C377.64 55.3392 377.64 58.5944 377.64 61.9668C382.743 61.9668 387.799 61.9668 392.949 61.9668C392.949 63.7232 392.949 65.386 392.949 67.119C385.973 67.119 378.974 67.119 371.904 67.119C371.904 55.6904 371.904 44.2853 371.904 32.8099Z" fill="#30384E"/>
<path d="M231.753 32.8101C231.753 34.4495 231.753 36.042 231.753 37.7516C228.475 37.7516 225.245 37.7516 221.874 37.7516C221.874 47.611 221.874 57.3533 221.874 67.1191C219.954 67.1191 218.175 67.1191 216.232 67.1191C216.232 66.557 216.232 66.0652 216.232 65.5734C216.232 56.7444 216.209 47.9389 216.256 39.1099C216.256 38.056 215.998 37.6813 214.898 37.7281C212.487 37.7984 210.052 37.7516 207.641 37.7516C207.22 37.7516 206.798 37.7516 206.33 37.7516C206.33 36.042 206.33 34.4495 206.33 32.7867C214.781 32.8101 223.185 32.8101 231.753 32.8101Z" fill="#30384E"/>
<path d="M53.4576 0C55.9663 0.398126 58.4751 0.702576 60.9369 1.2178C80.1395 5.2459 95.8719 21.5223 99.1544 40.7728C102.015 57.6347 97.6304 72.4356 85.8135 84.8009C77.7245 93.2787 67.6426 98.1265 55.9663 99.5316C54.583 99.6956 53.1997 99.8361 51.8163 100C50.644 100 49.4717 100 48.2994 100C45.8375 99.6956 43.3522 99.4848 40.8904 99.0632C21.4065 95.644 5.22853 80.0703 1.19576 60.7728C0.679943 58.3372 0.398587 55.8548 0 53.3958C0 51.0539 0 48.7119 0 46.37C0.304802 44.3794 0.562711 42.3888 0.937852 40.3981C4.54858 20.726 20.75 4.54333 40.4449 0.936768C42.4378 0.58548 44.4307 0.30445 46.4237 0C48.7683 0 51.1129 0 53.4576 0ZM62.4141 70.1874C69.0494 64.5667 70.4796 54.2623 65.7669 46.6276C65.4386 46.1124 65.2511 45.4098 65.2511 44.8009C65.2511 43.0445 65.5559 41.2881 65.4621 39.555C64.9228 28.9696 60.3039 20.7963 51.0661 15.3396C50.2923 14.8712 49.7296 14.918 48.9324 15.3396C38.2878 21.2412 33.1765 33.3255 34.7474 44.6838C34.8178 45.1756 34.7709 45.808 34.513 46.2061C32.0745 50.0468 31.0898 54.192 31.6291 58.7119C32.1918 63.3021 34.3019 67.0726 37.6313 70.2342C45.9548 63.4192 54.2079 63.466 62.4141 70.1874ZM62.1562 79.1335C62.1562 79.1335 62.1796 79.1335 62.1562 79.1335C62.1562 78.0328 62.1562 76.9555 62.1562 75.8548C62.1562 75.7845 62.1562 75.6909 62.1562 75.6206C62.0389 74.1218 61.1011 73.2318 59.6708 73.2553C58.2406 73.2787 57.2793 74.2155 57.2559 75.6909C57.209 77.986 57.209 80.281 57.2559 82.5761C57.2793 84.0047 58.311 85.0117 59.6943 85.0117C61.1011 85.0117 62.0858 84.0984 62.1562 82.5995C62.203 81.4754 62.1562 80.3045 62.1562 79.1335ZM37.772 79.1101C37.772 80.281 37.7486 81.452 37.772 82.6229C37.8189 84.0047 38.8036 84.918 40.187 84.9415C41.5 84.9415 42.5785 84.0515 42.6254 82.7635C42.6957 80.3981 42.6957 78.0094 42.6254 75.644C42.6019 74.2857 41.4765 73.3489 40.1401 73.3724C38.8036 73.3958 37.8189 74.3794 37.772 75.7377C37.7251 76.8384 37.772 77.9625 37.772 79.1101ZM52.4728 73.3724C52.4728 72.6229 52.5197 71.897 52.4494 71.1475C52.3556 69.8361 51.3474 68.9696 50.0344 68.9461C48.7449 68.9227 47.6663 69.8127 47.596 71.1007C47.5257 72.5293 47.5257 73.9813 47.596 75.4098C47.6663 76.7682 48.7449 77.7283 50.0579 77.7049C51.3708 77.6815 52.4025 76.6979 52.4728 75.3396C52.5197 74.6838 52.4728 74.0281 52.4728 73.3724ZM47.5725 82.2482C47.5491 83.6768 48.487 84.7307 49.8937 84.7775C51.324 84.8244 52.4728 83.7705 52.4963 82.3653C52.5197 80.9368 51.4646 79.8361 50.0344 79.8361C48.6042 79.8361 47.596 80.8197 47.5725 82.2482Z" fill="#30384E"/>
<path d="M62.5473 70.2655C54.2132 63.5149 45.8791 63.4679 37.4738 70.3125C34.1021 67.1607 31.9652 63.3503 31.3953 58.7401C30.8492 54.2241 31.8465 50.0374 34.3158 46.1799C34.577 45.78 34.6245 45.145 34.5533 44.651C32.9862 33.2433 38.1386 21.1065 48.9183 15.1792C49.7018 14.7558 50.2954 14.7087 51.079 15.1792C60.4103 20.6596 65.1116 28.8684 65.6577 39.4999C65.7527 41.2405 65.444 43.0046 65.444 44.7686C65.444 45.3802 65.634 46.0858 65.9664 46.6033C70.7151 54.2711 69.2668 64.5969 62.5473 70.2655ZM38.5185 38.6532C38.5185 48.5791 42.1513 56.0587 48.2535 60.5748C49.3694 61.398 50.7228 61.4215 51.815 60.5277C58.2021 55.4002 61.5263 48.7437 61.5025 40.6289C61.4788 32.0673 58.0359 25.0815 50.9603 19.9775C50.2954 19.507 49.8205 19.4365 49.0845 19.9304C41.9376 25.011 38.7559 32.0438 38.5185 38.6532ZM43.3622 61.9155C40.323 59.0224 37.9724 55.5883 36.2866 51.4251C34.7432 56.341 35.3368 60.6218 37.9961 64.5498C39.8481 63.6325 41.5814 62.7858 43.3622 61.9155ZM63.6395 51.8014C62.0011 55.6824 59.6505 59.0694 56.6113 61.986C58.4396 62.8563 60.1966 63.7031 62.0249 64.5734C64.5892 60.5748 65.254 56.3645 63.6395 51.8014Z" fill="white"/>
<path d="M38.2812 38.5162C38.5153 31.9396 41.6516 24.9418 48.6965 19.8865C49.3987 19.3716 49.8902 19.4418 50.5455 19.9333C57.5202 25.012 60.914 31.9396 60.9374 40.4822C60.9608 48.5566 57.7075 55.2034 51.3881 60.2821C50.3115 61.148 48.9774 61.148 47.8773 60.3289C41.8622 55.8353 38.2812 48.3928 38.2812 38.5162ZM56.2096 33.9056C56.1861 33.9056 56.1627 33.9056 56.1627 33.9056C56.1627 33.3907 56.1627 32.8992 56.1627 32.3843C56.1159 29.1311 53.7754 26.4865 50.5689 26.0652C47.2688 25.6439 44.1325 27.6801 43.4538 30.9099C43.1495 32.3843 43.1963 33.929 43.2197 35.4503C43.2431 38.68 45.7007 41.3247 48.9072 41.6992C52.2307 42.097 55.3202 40.0141 56.0223 36.8077C56.1861 35.8715 56.1393 34.8886 56.2096 33.9056Z" fill="#30384E"/>
<path d="M43.75 62.178C41.9952 63.0586 40.2872 63.9155 38.4389 64.8438C35.8184 60.8689 35.2569 56.537 36.7543 51.5625C38.4389 55.7754 40.7552 59.2504 43.75 62.178Z" fill="#30384E"/>
<path d="M63.206 51.5625C64.7987 56.3076 64.1195 60.7102 61.59 64.8438C59.7866 63.9388 58.0768 63.0582 56.25 62.1533C59.2713 59.1203 61.59 55.5982 63.206 51.5625Z" fill="#30384E"/>
<path d="M56.25 34.4014C56.1826 35.3541 56.25 36.3533 56.0479 37.2828C55.3519 40.4662 52.4107 42.5343 49.2225 42.1393C46.169 41.7675 43.8116 39.1185 43.7667 35.935C43.7442 34.4247 43.6993 32.891 43.9912 31.4271C44.6423 28.2204 47.6509 26.1988 50.8166 26.6171C53.915 27.0354 56.1602 29.6611 56.1826 32.891C56.1826 33.4022 56.1826 33.8902 56.1826 34.4014C56.2051 34.4014 56.2275 34.4014 56.25 34.4014ZM52.276 34.3549C52.276 33.8902 52.2984 33.4255 52.276 32.9607C52.2311 31.7059 51.4228 30.823 50.3002 30.7068C48.998 30.5906 47.9877 31.1947 47.808 32.4495C47.6509 33.6811 47.6509 34.9823 47.7856 36.2371C47.9203 37.4222 49.0429 38.189 50.1206 38.0961C51.3106 38.0031 52.1862 37.0736 52.2535 35.8421C52.2984 35.3541 52.276 34.8662 52.276 34.3549Z" fill="white"/>
<path d="M52.3209 33.9237C52.3209 34.4084 52.3437 34.8711 52.3209 35.3558C52.2522 36.5454 51.3364 37.4047 50.1459 37.4928C49.047 37.5809 47.9024 36.8539 47.765 35.7303C47.6276 34.5406 47.6047 33.3289 47.7879 32.1392C47.9481 30.9495 49.0013 30.3547 50.3291 30.4869C51.4738 30.597 52.298 31.4342 52.3438 32.6239C52.3438 33.0425 52.3209 33.4831 52.3209 33.9237Z" fill="#30384E"/>
</svg>
