<svg width="76" height="76" viewBox="0 0 76 76" fill="none" xmlns="http://www.w3.org/2000/svg">
<path d="M75.0468 37.9503C74.9001 58.7918 58.3883 75.1568 38.2073 75.4503C16.8521 75.7439 0.193619 58.8652 0.0468484 38.3172C-0.0999227 17.1822 16.7787 0.00998613 38.4275 0.450299C58.6085 0.890613 74.9735 17.1088 75.0468 37.9503ZM64.1124 54.9757C63.9656 54.7556 63.8922 54.6088 63.8189 54.462C63.1584 53.5814 62.5713 52.7742 61.9108 51.8936C59.6359 48.8114 57.4343 45.7292 55.1594 42.647C53.178 40.0051 51.1966 37.2898 49.2885 34.648C49.0684 34.3544 48.9216 34.3544 48.6281 34.5746C45.2523 37.4366 41.8032 40.2253 38.3541 43.0873C37.767 43.601 37.3267 43.601 36.7396 43.0873C33.8776 40.739 31.0155 38.3906 28.1535 36.0423C27.4196 35.4552 26.6124 34.7947 25.8052 34.1343C20.8149 41.0325 15.8981 47.9307 10.8345 54.9024C28.7406 54.9757 46.3531 54.9757 64.1124 54.9757ZM11.8619 20.0442C11.8619 20.1176 11.8619 20.1176 11.7885 20.191C12.0087 20.4112 12.2288 20.5579 12.449 20.7781C14.2836 22.3192 16.1183 23.7869 17.9529 25.328C20.448 27.3828 22.9431 29.4376 25.4382 31.4924C27.86 33.4738 30.2817 35.4552 32.7768 37.4366C34.2445 38.6842 35.7856 39.8583 37.2533 41.1059C37.4735 41.326 37.6202 41.326 37.8404 41.1059C38.1339 40.8857 38.4275 40.6656 38.6476 40.4454C40.8492 38.6108 43.1241 36.7761 45.3257 34.9415C46.3531 34.0609 47.3805 33.1802 48.4813 32.2996C49.5821 31.419 50.6829 30.5384 51.7836 29.6577C53.8384 27.9699 55.9666 26.2086 58.0214 24.5208C59.5625 23.1998 61.1036 21.9523 62.7181 20.6313C62.8648 20.5579 62.9382 20.4112 63.085 20.191C45.9128 20.0442 28.8874 20.0442 11.8619 20.0442ZM64.993 52.8476C65.2132 52.1871 65.1398 21.3652 64.993 21.0716C64.9196 21.145 64.7729 21.2184 64.6995 21.2918C62.3512 23.1998 60.0028 25.1812 57.7279 27.0892C55.4529 28.9973 53.178 30.9053 50.903 32.7399C50.6095 32.9601 50.6095 33.1802 50.8296 33.4004C51.3433 34.0609 51.7836 34.648 52.2239 35.3084C53.9852 37.7301 55.7465 40.0785 57.5077 42.5002C59.6359 45.3622 61.7641 48.2977 63.8922 51.1597C64.1858 51.7468 64.5527 52.2605 64.993 52.8476ZM10.2474 52.4073C10.2474 52.4073 10.3208 52.4073 10.3208 52.4806C10.541 52.2605 10.6877 51.9669 10.9079 51.7468C12.0821 50.0589 13.3296 48.3711 14.5038 46.6832C16.1917 44.3348 17.9529 41.9131 19.6408 39.5648C21.1085 37.51 22.6496 35.3818 24.1173 33.327C24.2641 33.1069 24.2641 32.9601 24.0439 32.7399C22.6496 31.5658 21.1819 30.465 19.7876 29.2908C16.7054 26.7957 13.6966 24.3006 10.6144 21.8055C10.541 21.7321 10.3942 21.6587 10.174 21.5119C10.2474 31.8593 10.2474 42.1333 10.2474 52.4073Z" fill="#0B8491"/>
</svg>
