<svg width="76" height="76" viewBox="0 0 76 76" fill="none" xmlns="http://www.w3.org/2000/svg">
<circle cx="38.1357" cy="37.9275" r="37.5" fill="#0B8491"/>
<path d="M45.2173 56.6458C41.5094 56.4015 37.8015 54.691 34.588 52.7362C28.6554 49.071 23.7115 44.4283 20.9924 37.8308C19.7564 34.8986 19.5092 31.722 20.7452 28.5455C21.2396 27.3237 21.9812 26.3463 22.7227 25.6133C24.2059 24.3915 25.4419 24.3915 26.925 25.8576C28.6554 27.3237 30.1385 28.7898 31.6217 30.5003C32.8576 31.722 32.6104 32.9438 31.3745 34.1656C29.1497 36.6091 29.1497 36.6091 31.1273 39.2969C33.352 42.4735 36.0711 45.1613 39.5318 46.8718C40.2734 47.3605 40.7678 47.1162 41.5094 46.6275C44.9701 43.2065 45.2173 43.2065 48.6779 46.6275C49.6667 47.6049 50.9027 48.8266 51.8914 49.804C53.1274 51.0258 53.1274 52.7362 51.8914 53.958C50.1611 55.9128 47.9364 56.4015 45.2173 56.6458ZM53.1274 40.2743C53.1274 41.7404 53.6218 42.2291 54.8578 42.4735C56.3409 42.4735 56.3409 41.4961 56.3409 40.5187C56.3409 34.1656 53.869 28.7898 48.9251 24.8802C45.4644 21.948 41.5094 20.4819 37.3071 20.2375C36.0711 20.2375 35.5767 20.7263 35.5767 21.948C35.5767 23.4141 36.5655 23.4141 37.5543 23.4141C46.206 24.1472 52.633 30.989 52.8802 39.5413C53.1274 39.5413 53.1274 40.03 53.1274 40.2743ZM37.3071 25.6133C35.3296 25.6133 34.588 25.8576 34.588 27.0794C34.588 28.7898 35.8239 28.5455 37.0599 28.7898C42.9925 29.2785 47.442 33.9212 47.442 39.7856C47.442 41.7404 47.9364 42.4735 48.9251 42.4735C50.1611 42.4735 50.6555 41.7404 50.4083 39.5413C50.6555 32.2107 44.4757 26.102 37.3071 25.6133ZM34.588 32.4551C34.588 33.6769 35.3296 34.1656 36.5655 34.1656C39.779 34.4099 42.0037 36.6091 42.0037 39.7856C42.0037 41.0074 42.4981 41.7404 43.7341 41.7404C44.9701 41.7404 45.2173 41.0074 45.2173 39.7856C45.2173 35.3873 41.2622 31.2333 36.5655 31.2333C35.5767 30.989 34.8352 31.2333 34.588 32.4551Z" fill="white"/>
</svg>
