<svg width="1053" height="1213" viewBox="0 0 1053 1213" fill="none" xmlns="http://www.w3.org/2000/svg">
<g clip-path="url(#clip0_4_28)">
<g clip-path="url(#clip1_4_28)">
<path d="M61.9507 526.326C61.9507 526.326 33.9453 386.615 96.2743 360.061C158.603 333.506 135.095 292.963 135.095 292.963C135.095 292.963 146.991 181.115 227.649 154.276C308.307 127.437 382.874 125.958 382.874 125.958C382.874 125.958 456.245 48.3981 514.988 48.3981C573.731 48.3981 635.889 90.1352 635.889 90.1352C635.889 90.1352 694.462 79.843 749.334 122.205C804.206 164.568 856.802 290.689 856.802 290.689C856.802 290.689 926.075 283.353 971.726 354.09C1017.38 424.827 1026.2 448.084 1006.79 498.009C987.379 547.934 947.079 588.249 947.079 588.249L67.1304 574.83L61.9507 526.326Z" fill="#FA5E78"/>
<path d="M1011 587H49.5V687.5L146 895L316.5 1041.5L530.5 1089.5L685.5 1054L814 1142H866V946C903 892.167 980.3 776.6 993.5 745C1006.7 713.4 1010.67 626.5 1011 587Z" fill="white"/>
<path d="M828.398 939.943C820.599 946.653 816.957 956.888 818.607 967.067L845.531 1125.6L692.071 1033.14C684.785 1028.76 675.905 1027.74 667.822 1030.41C621.773 1045.37 573.504 1052.93 524.323 1052.93C275.121 1052.93 71.0011 856.356 59.1615 610.312H64.4551H64.5121H989.542C983.338 737.286 925.392 856.356 828.398 939.943ZM87.8499 394.52C103.333 376.494 122.743 363.473 145.511 355.796C192.927 339.818 246.262 350.053 275.235 363.245C246.547 413.966 247.572 471.454 247.685 474.468C248.084 490.674 261.574 503.468 277.797 503.013C293.962 502.558 306.713 488.968 306.371 472.99C306.371 471.966 305.631 408.223 341.492 371.661C358.739 354.09 381.678 345.561 411.733 345.561C427.956 345.561 441.104 332.426 441.104 316.22C441.104 300.014 427.956 286.879 411.733 286.879C373.254 286.879 340.581 297.171 314.283 317.528C281.496 298.422 222.128 282.387 161.848 291.712C160.766 249.634 174.029 215.346 201.522 189.644C276.317 119.476 376.499 147.509 380.711 148.76C395.055 152.911 410.367 145.69 416.116 131.872C417.197 129.37 444.69 66.9923 508.67 59.2022C541.628 55.1649 577.545 71.655 604.981 94.5706C580.619 108.672 565.079 123.059 564.111 123.968C552.272 135.056 551.703 153.594 562.802 165.421C573.902 177.248 592.458 177.817 604.298 166.786C604.469 166.615 629.969 143.245 664.008 131.758C693.778 121.637 719.393 123.684 742.503 138.013C786.674 165.421 817.754 214.095 835.058 282.842C816.387 287.448 799.595 293.702 785.763 299.9C765.613 289.779 745.805 285.23 731.631 284.32C715.409 283.24 701.463 295.522 700.381 311.671C699.186 327.82 711.481 341.694 727.59 342.832C731.119 343.116 748.423 345.106 766.353 355.796C767.947 357.047 769.655 358.127 771.42 359.037C786.447 369.443 801.075 386.502 807.451 414.364C811.094 430.172 826.861 440.009 842.685 436.37C856.289 433.243 865.453 421.188 865.453 407.825C865.453 405.665 865.226 403.447 864.713 401.229C859.306 377.631 849.743 358.469 837.96 342.945C848.832 339.647 860.843 336.861 873.252 335.553C894.711 333.335 914.065 335.894 930.686 343.23C961.309 356.706 984.761 386.672 991.99 421.586C998.195 451.495 995.348 497.781 949.527 551.687H588.36C592.743 533.491 594.678 515.977 594.678 499.43C594.678 419.709 552.044 362.392 549.597 359.151C539.806 346.243 521.364 343.741 508.442 353.522C495.521 363.302 493.017 381.669 502.75 394.52C505.198 397.818 555.46 466.905 527.283 551.63H83.2963C65.7076 506.311 49.8833 438.758 87.8499 394.52ZM1048.8 587.567C1048.8 584.951 1048.8 582.279 1048.68 579.777C1048.11 564.765 1036.27 552.71 1021.48 551.63C1042.31 516.944 1053.07 480.723 1053.07 445.07C1053.07 433.129 1051.87 421.302 1049.42 409.588C1038.44 356.422 1001.95 310.363 954.251 289.438C935.638 281.25 915.374 276.871 893.744 276.189C873.138 188.166 832.724 124.935 773.412 88.1451C740.966 68.0727 703.797 62.1589 664.919 70.6883C626.042 28.4396 564.453 -6.70142 501.555 0.974997C431.94 9.44749 391.754 58.1785 373.596 87.3489C330.392 80.298 236.927 75.8629 161.279 146.827C108.455 196.297 99.6327 259.016 104.073 309.453C80.7917 320.712 60.3569 336.406 43.2235 356.308C-7.77805 415.9 2.41079 494.597 21.4225 552.654C9.46904 556.009 0.532497 566.755 0.020204 579.72C-0.0936388 582.279 -0.09375 584.895 -0.09375 587.567C-0.09375 876.485 235.163 1111.5 524.38 1111.5C575.154 1111.5 625.074 1104.28 673.059 1090.12L870.064 1208.79C879.912 1214.7 892.264 1214.36 901.769 1207.94C911.275 1201.51 916.114 1190.08 914.178 1178.77L879.285 973.208C987.265 874.153 1048.8 734.556 1048.8 587.567Z" fill="black"/>
<path d="M387.029 183.389C279.163 159.223 231.292 214.607 229.3 216.995C218.883 229.448 220.534 247.928 233 258.334C245.295 268.569 263.51 267.091 273.983 255.15C275.919 253.159 304.265 224.956 374.165 240.65C389.989 244.175 405.699 234.281 409.229 218.473C409.741 216.312 409.969 214.152 409.969 211.991C409.969 198.572 400.69 186.46 387.029 183.389Z" fill="white"/>
<path d="M176.192 373.366C143.405 381.953 119.897 398.67 106.178 423.121C85.8575 459.399 96.5588 497.497 97.868 501.705C102.592 517.228 118.986 525.928 134.525 521.265C149.951 516.603 158.717 500.34 154.163 484.93C153.936 484.021 149.268 465.938 157.692 451.382C163.328 441.544 174.598 434.38 191.105 430.058C204.311 426.59 213.02 414.705 213.02 401.684C213.02 399.239 212.735 396.737 212.052 394.235C207.954 378.655 191.902 369.272 176.192 373.366Z" fill="white"/>
<path d="M710.115 170.197C620.464 170.197 578.399 243.379 568.666 282.046C564.681 297.74 574.244 313.718 590.011 317.641C605.721 321.565 621.602 312.126 625.587 296.488C627.465 289.438 645.51 228.822 710.115 228.822C726.338 228.822 739.487 215.687 739.487 199.481C739.487 183.332 726.338 170.197 710.115 170.197Z" fill="white"/>
<path d="M295.841 782.719C295.841 754.515 318.723 731.656 346.9 731.656C375.133 731.656 397.958 754.515 397.958 782.719C397.958 810.865 375.076 833.724 346.9 833.724C318.667 833.724 295.841 810.865 295.841 782.719Z" fill="black"/>
<path d="M480.608 782.719C480.608 754.515 503.49 731.656 531.723 731.656C559.956 731.656 582.782 754.515 582.782 782.719C582.782 810.865 559.899 833.724 531.723 833.724C503.49 833.724 480.608 810.865 480.608 782.719Z" fill="black"/>
<path d="M665.375 782.719C665.375 754.515 688.257 731.656 716.49 731.656C744.723 731.656 767.549 754.515 767.549 782.719C767.549 810.865 744.666 833.724 716.49 833.724C688.257 833.724 665.375 810.865 665.375 782.719Z" fill="black"/>
</g>
</g>
<defs>
<clipPath id="clip0_4_28">
<rect width="1053" height="1213" fill="white"/>
</clipPath>
<clipPath id="clip1_4_28">
<rect width="1053" height="1213" fill="white"/>
</clipPath>
</defs>
</svg>
