<svg width="100" height="100" viewBox="0 0 100 100" fill="none" xmlns="http://www.w3.org/2000/svg">
<circle cx="50" cy="50" r="50" fill="#15A5F4"/>
<path d="M24.2228 43.2L17.8228 57.6H16.8628L23.2628 43.2H24.2228ZM31.1753 56.224C30.0553 56.224 29.1113 55.984 28.3433 55.504C27.5753 55.0133 27.026 54.3307 26.6953 53.456L28.9033 52.176C29.3513 53.2107 30.1353 53.728 31.2553 53.728C32.2686 53.728 32.7753 53.424 32.7753 52.816C32.7753 52.4747 32.61 52.2187 32.2793 52.048C31.938 51.8453 31.33 51.6267 30.4553 51.392C29.5593 51.1467 28.802 50.7947 28.1833 50.336C27.5006 49.7813 27.1593 48.9973 27.1593 47.984C27.1593 46.9493 27.5273 46.1227 28.2633 45.504C29.01 44.8853 29.8953 44.576 30.9193 44.576C31.8366 44.576 32.6473 44.7947 33.3513 45.232C34.0553 45.6587 34.61 46.2827 35.0153 47.104L32.8553 48.368C32.45 47.504 31.8046 47.072 30.9193 47.072C30.546 47.072 30.2526 47.152 30.0393 47.312C29.826 47.472 29.7193 47.6747 29.7193 47.92C29.7193 48.1867 29.8473 48.4267 30.1033 48.64C30.3806 48.8533 30.9246 49.0773 31.7353 49.312L32.7753 49.648C33.042 49.7333 33.3513 49.8773 33.7033 50.08C34.0873 50.272 34.3753 50.48 34.5673 50.704C35.0793 51.2587 35.3353 51.952 35.3353 52.784C35.3353 53.84 34.9513 54.6827 34.1833 55.312C33.4153 55.92 32.4126 56.224 31.1753 56.224ZM37.0084 44.8H45.3284V47.264H42.4484V56H39.8884V47.264H37.0084V44.8ZM57.1722 56H54.3722L53.8122 54.24H49.6522L49.0922 56H46.2922L50.1002 44.8H53.3642L57.1722 56ZM51.7322 47.728L50.4202 51.84H53.0442L51.7322 47.728ZM68.3672 56H65.6152L63.5032 52.32H62.2872V56H59.7272V44.8H64.2072C65.2739 44.8 66.1805 45.1733 66.9272 45.92C67.6739 46.6667 68.0472 47.5733 68.0472 48.64C68.0472 49.312 67.8552 49.9413 67.4712 50.528C67.0979 51.1147 66.6019 51.568 65.9832 51.888L68.3672 56ZM64.2072 47.2H62.2872V50.08H64.2072C64.5592 50.08 64.8579 49.9413 65.1032 49.664C65.3592 49.3867 65.4872 49.0453 65.4872 48.64C65.4872 48.2347 65.3592 47.8933 65.1032 47.616C64.8579 47.3387 64.5592 47.2 64.2072 47.2ZM70.1366 44.8H78.4566V47.264H75.5766V56H73.0166V47.264H70.1366V44.8Z" fill="white"/>
</svg>
