<svg width="180" height="53" viewBox="0 0 180 53" fill="none" xmlns="http://www.w3.org/2000/svg">
<g clip-path="url(#clip0_349_95)">
<path d="M2.66455 22.628C2.66455 22.628 1.46002 16.6215 4.14083 15.4799C6.82164 14.3382 5.81054 12.5952 5.81054 12.5952C5.81054 12.5952 6.3222 7.7866 9.79136 6.63273C13.2605 5.47887 16.4677 5.41528 16.4677 5.41528C16.4677 5.41528 19.6234 2.08081 22.15 2.08081C24.6766 2.08081 27.3501 3.87518 27.3501 3.87518C27.3501 3.87518 29.8693 3.4327 32.2294 5.25393C34.5895 7.07521 36.8517 12.4974 36.8517 12.4974C36.8517 12.4974 39.8312 12.182 41.7947 15.2232C43.7583 18.2643 44.1376 19.2642 43.3028 21.4106C42.4679 23.557 40.7346 25.2902 40.7346 25.2902L2.88733 24.7133L2.66455 22.628Z" fill="#FA5E78"/>
<path d="M35.63 40.4102C35.2946 40.6987 35.1379 41.1387 35.2089 41.5763L36.3669 48.392L29.7665 44.4169C29.4531 44.2286 29.0712 44.1848 28.7235 44.2996C26.7429 44.9427 24.6668 45.2678 22.5515 45.2678C11.8332 45.2678 3.05381 36.8166 2.54458 26.2386H2.77227H2.77472H42.5609C42.2941 31.6975 39.8018 36.8166 35.63 40.4102ZM3.77849 16.9613C4.44443 16.1863 5.27927 15.6265 6.25854 15.2964C8.29794 14.6095 10.5919 15.0495 11.8381 15.6167C10.6042 17.7973 10.6483 20.2688 10.6531 20.3984C10.6703 21.0951 11.2505 21.6452 11.9483 21.6256C12.6435 21.606 13.192 21.0218 13.1773 20.3349C13.1773 20.2908 13.1454 17.5504 14.6878 15.9785C15.4296 15.2231 16.4163 14.8564 17.7089 14.8564C18.4067 14.8564 18.9722 14.2917 18.9722 13.595C18.9722 12.8982 18.4067 12.3335 17.7089 12.3335C16.0539 12.3335 14.6486 12.776 13.5176 13.6512C12.1074 12.8298 9.5539 12.1404 6.96121 12.5413C6.91467 10.7323 7.48512 9.25817 8.66762 8.15318C11.8846 5.13651 16.1935 6.34171 16.3747 6.39549C16.9916 6.57395 17.6502 6.2635 17.8975 5.66944C17.944 5.56187 19.1265 2.88012 21.8783 2.5452C23.2958 2.37163 24.8406 3.08058 26.0207 4.06577C24.9729 4.67202 24.3045 5.29055 24.2628 5.32963C23.7536 5.80632 23.7292 6.60331 24.2065 7.11178C24.684 7.62025 25.4821 7.64471 25.9913 7.17047C25.9987 7.16312 27.0954 6.15839 28.5595 5.66454C29.8399 5.22941 30.9416 5.31742 31.9356 5.93345C33.8354 7.11178 35.1722 9.20439 35.9165 12.16C35.1134 12.358 34.3912 12.6269 33.7963 12.8933C32.9296 12.4582 32.0776 12.2626 31.468 12.2235C30.7703 12.1771 30.1705 12.7051 30.1239 13.3994C30.0725 14.0937 30.6013 14.6901 31.2942 14.7391C31.446 14.7513 32.1902 14.8368 32.9614 15.2964C33.03 15.3502 33.1034 15.3966 33.1794 15.4358C33.8257 15.8831 34.4548 16.6165 34.7291 17.8144C34.8858 18.494 35.5639 18.9169 36.2445 18.7605C36.8296 18.626 37.2238 18.1078 37.2238 17.5333C37.2238 17.4404 37.214 17.345 37.192 17.2497C36.9594 16.2352 36.5481 15.4113 36.0413 14.7439C36.5089 14.6021 37.0255 14.4824 37.5592 14.4261C38.4822 14.3308 39.3146 14.4408 40.0295 14.7562C41.3466 15.3355 42.3553 16.6239 42.6662 18.1249C42.9331 19.4107 42.8107 21.4007 40.8399 23.7182H25.3058C25.4943 22.9359 25.5775 22.183 25.5775 21.4716C25.5775 18.0442 23.7438 15.58 23.6386 15.4407C23.2175 14.8857 22.4243 14.7782 21.8685 15.1987C21.3127 15.6191 21.205 16.4088 21.6237 16.9613C21.7289 17.103 23.8908 20.0732 22.6788 23.7158H3.58264C2.82614 21.7674 2.14552 18.8631 3.77849 16.9613ZM45.1097 25.2608C45.1097 25.1483 45.1097 25.0334 45.1045 24.9259C45.08 24.2805 44.5708 23.7622 43.9346 23.7158C44.8305 22.2245 45.2933 20.6673 45.2933 19.1345C45.2933 18.6211 45.2417 18.1127 45.1363 17.6091C44.6641 15.3233 43.0946 13.3432 41.0431 12.4435C40.2425 12.0915 39.3709 11.9033 38.4406 11.8739C37.5543 8.08964 35.8161 5.3712 33.265 3.78952C31.8695 2.92657 30.2708 2.67232 28.5987 3.03902C26.9265 1.22265 24.2775 -0.288139 21.5723 0.0418868C18.5781 0.406138 16.8496 2.50119 16.0686 3.75529C14.2104 3.45216 10.1904 3.26148 6.93673 6.31239C4.66473 8.43921 4.28528 11.1356 4.47626 13.304C3.47492 13.7881 2.596 14.4628 1.85908 15.3184C-0.334536 17.8804 0.103694 21.2638 0.921402 23.7598C0.407274 23.904 0.022907 24.366 0.000872927 24.9234C-0.00402354 25.0334 -0.00402832 25.1459 -0.00402832 25.2608C-0.00402832 37.682 10.1145 47.7858 22.554 47.7858C24.7378 47.7858 26.8849 47.4754 28.9488 46.8666L37.4221 51.9685C37.8457 52.2226 38.3769 52.208 38.7858 51.932C39.1946 51.6555 39.4028 51.1641 39.3195 50.6779L37.8187 41.8403C42.463 37.5817 45.1097 31.5802 45.1097 25.2608Z" fill="black"/>
<path d="M16.6464 7.88417C12.007 6.84522 9.94803 9.2263 9.86236 9.32897C9.41431 9.86435 9.48532 10.6588 10.0215 11.1062C10.5503 11.5462 11.3338 11.4827 11.7842 10.9693C11.8675 10.8837 13.0867 9.67123 16.0931 10.3459C16.7737 10.4975 17.4494 10.0721 17.6012 9.39251C17.6233 9.2996 17.6331 9.20674 17.6331 9.11383C17.6331 8.53692 17.234 8.0162 16.6464 7.88417Z" fill="white"/>
<path d="M7.57817 16.0518C6.16798 16.4209 5.15688 17.1396 4.56682 18.1909C3.69282 19.7505 4.15309 21.3885 4.2094 21.5694C4.41258 22.2367 5.1177 22.6108 5.78604 22.4103C6.44952 22.2099 6.82656 21.5107 6.63069 20.8482C6.62092 20.8091 6.42015 20.0317 6.78247 19.4059C7.02488 18.9829 7.50961 18.6749 8.21959 18.4891C8.78759 18.34 9.16217 17.829 9.16217 17.2692C9.16217 17.1641 9.14991 17.0565 9.12053 16.949C8.94428 16.2792 8.25387 15.8758 7.57817 16.0518Z" fill="white"/>
<path d="M30.5426 7.31714C26.6866 7.31714 24.8774 10.4634 24.4587 12.1258C24.2873 12.8005 24.6987 13.4874 25.3768 13.6561C26.0525 13.8248 26.7356 13.419 26.907 12.7467C26.9877 12.4436 27.7639 9.83756 30.5426 9.83756C31.2403 9.83756 31.8059 9.27285 31.8059 8.57612C31.8059 7.88184 31.2403 7.31714 30.5426 7.31714Z" fill="white"/>
<path d="M12.7244 33.6509C12.7244 32.4383 13.7085 31.4556 14.9205 31.4556C16.1348 31.4556 17.1165 32.4383 17.1165 33.6509C17.1165 34.8609 16.1323 35.8437 14.9205 35.8437C13.7061 35.8437 12.7244 34.8609 12.7244 33.6509Z" fill="black"/>
<path d="M20.6713 33.6509C20.6713 32.4383 21.6555 31.4556 22.8698 31.4556C24.0841 31.4556 25.0659 32.4383 25.0659 33.6509C25.0659 34.8609 24.0817 35.8437 22.8698 35.8437C21.6555 35.8437 20.6713 34.8609 20.6713 33.6509Z" fill="black"/>
<path d="M28.6183 33.6509C28.6183 32.4383 29.6025 31.4556 30.8168 31.4556C32.0311 31.4556 33.0129 32.4383 33.0129 33.6509C33.0129 34.8609 32.0287 35.8437 30.8168 35.8437C29.6025 35.8437 28.6183 34.8609 28.6183 33.6509Z" fill="black"/>
<path d="M63.1613 16.8616C63.9097 17.1067 64.5033 17.5194 64.942 18.0998C65.3807 18.6673 65.6 19.3767 65.6 20.2279C65.6 21.4016 65.1484 22.3109 64.2452 22.9558C63.342 23.5878 62.0258 23.9037 60.2968 23.9037H53.5613V10.3612H59.9097C61.5097 10.3612 62.742 10.6772 63.6065 11.3092C64.471 11.9283 64.9033 12.786 64.9033 13.8823C64.9033 14.5529 64.7484 15.1462 64.4387 15.6621C64.1291 16.1781 63.7033 16.5779 63.1613 16.8616ZM56.0775 12.3345V16.0684H59.6387C60.5162 16.0684 61.1871 15.9137 61.6516 15.6041C62.1291 15.2817 62.3678 14.8173 62.3678 14.2112C62.3678 13.5921 62.1291 13.1278 61.6516 12.8182C61.1871 12.4958 60.5162 12.3345 59.6387 12.3345H56.0775ZM60.142 21.9304C62.0904 21.9304 63.0645 21.2791 63.0645 19.9764C63.0645 18.6737 62.0904 18.0224 60.142 18.0224H56.0775V21.9304H60.142ZM70.5497 15.0818C71.2465 13.9983 72.4723 13.4566 74.2271 13.4566V15.7589C74.0207 15.7202 73.8336 15.7008 73.6658 15.7008C72.7239 15.7008 71.9884 15.9781 71.4594 16.5327C70.9304 17.0744 70.6658 17.8612 70.6658 18.893V23.9037H68.2465V13.5727H70.5497V15.0818ZM80.3648 13.4566C81.8873 13.4566 83.0486 13.8242 83.8486 14.5594C84.6615 15.2817 85.068 16.378 85.068 17.8483V23.9037H82.7841V22.6462C82.4873 23.0976 82.0615 23.4459 81.5067 23.6909C80.9648 23.9231 80.3067 24.0392 79.5325 24.0392C78.7583 24.0392 78.0809 23.9102 77.5002 23.6522C76.9196 23.3814 76.468 23.0138 76.1454 22.5495C75.8357 22.0723 75.6809 21.537 75.6809 20.9437C75.6809 20.0151 76.0228 19.2735 76.7067 18.7189C77.4035 18.1514 78.4938 17.8676 79.9777 17.8676H82.6486V17.7129C82.6486 16.9906 82.4293 16.436 81.9906 16.0491C81.5648 15.6621 80.9261 15.4687 80.0744 15.4687C79.4938 15.4687 78.9196 15.559 78.3519 15.7395C77.797 15.9201 77.3261 16.1716 76.939 16.494L75.9906 14.7335C76.5325 14.3208 77.1841 14.0048 77.9454 13.7855C78.7067 13.5663 79.5131 13.4566 80.3648 13.4566ZM80.0357 22.2786C80.6422 22.2786 81.1777 22.1432 81.6422 21.8724C82.1196 21.5886 82.4551 21.1888 82.6486 20.6729V19.4734H80.1519C78.7583 19.4734 78.0615 19.9313 78.0615 20.847C78.0615 21.2855 78.2357 21.6338 78.5841 21.8917C78.9325 22.1497 79.4164 22.2786 80.0357 22.2786ZM88.3665 13.5727H90.7858V23.9037H88.3665V13.5727ZM89.5858 11.8702C89.1471 11.8702 88.7794 11.7348 88.4826 11.464C88.1858 11.1802 88.0375 10.832 88.0375 10.4192C88.0375 10.0065 88.1858 9.66473 88.4826 9.39388C88.7794 9.11014 89.1471 8.96826 89.5858 8.96826C90.0246 8.96826 90.3923 9.10369 90.6891 9.37454C90.9858 9.63249 91.1342 9.96138 91.1342 10.3612C91.1342 10.7868 90.9858 11.148 90.6891 11.4446C90.4052 11.7284 90.0375 11.8702 89.5858 11.8702ZM100.019 13.4566C101.323 13.4566 102.368 13.8371 103.155 14.5981C103.942 15.3591 104.336 16.4876 104.336 17.9837V23.9037H101.916V18.2933C101.916 17.3904 101.703 16.7133 101.277 16.2619C100.852 15.7976 100.245 15.5654 99.4581 15.5654C98.5678 15.5654 97.8646 15.8363 97.3484 16.378C96.8323 16.9068 96.5742 17.6742 96.5742 18.6802V23.9037H94.1549V13.5727H96.4581V14.9076C96.8581 14.4304 97.3613 14.0693 97.9678 13.8242C98.5742 13.5792 99.2581 13.4566 100.019 13.4566ZM59.3871 43.4437C57.5162 43.4437 56.0581 42.9213 55.0129 41.8766C53.9678 40.819 53.4452 39.31 53.4452 37.3496V29.7077H55.9613V37.2528C55.9613 39.9097 57.1097 41.2382 59.4065 41.2382C61.6904 41.2382 62.8323 39.9097 62.8323 37.2528V29.7077H65.3097V37.3496C65.3097 39.31 64.7871 40.819 63.742 41.8766C62.7097 42.9213 61.2581 43.4437 59.3871 43.4437ZM74.6594 32.8031C75.9626 32.8031 77.0078 33.1836 77.7949 33.9446C78.582 34.7055 78.9755 35.8341 78.9755 37.3302V43.2502H76.5562V37.6398C76.5562 36.7369 76.3433 36.0598 75.9174 35.6084C75.4916 35.1441 74.8852 34.9119 74.0981 34.9119C73.2078 34.9119 72.5045 35.1828 71.9884 35.7245C71.4723 36.2533 71.2142 37.0207 71.2142 38.0267V43.2502H68.7949V32.9192H71.0981V34.2541C71.4981 33.7769 72.0013 33.4158 72.6078 33.1707C73.2142 32.9257 73.8981 32.8031 74.6594 32.8031ZM82.2379 32.9192H84.6572V43.2502H82.2379V32.9192ZM83.4572 31.2167C83.0185 31.2167 82.6508 31.0813 82.354 30.8104C82.0572 30.5267 81.9089 30.1785 81.9089 29.7657C81.9089 29.353 82.0572 29.0112 82.354 28.7404C82.6508 28.4566 83.0185 28.3147 83.4572 28.3147C83.8959 28.3147 84.2637 28.4502 84.5605 28.721C84.8572 28.979 85.0056 29.3079 85.0056 29.7077C85.0056 30.1333 84.8572 30.4945 84.5605 30.7911C84.2766 31.0748 83.9089 31.2167 83.4572 31.2167ZM97.7037 32.9192L93.2714 43.2502H90.7747L86.3424 32.9192H88.8585L92.0714 40.5804L95.3811 32.9192H97.7037ZM108.842 38.1428C108.842 38.3104 108.829 38.549 108.803 38.8586H100.694C100.836 39.6195 101.203 40.2257 101.797 40.6772C102.403 41.1157 103.152 41.3349 104.042 41.3349C105.178 41.3349 106.113 40.9609 106.849 40.2128L108.145 41.7025C107.681 42.2571 107.094 42.6763 106.384 42.96C105.674 43.2438 104.874 43.3857 103.984 43.3857C102.849 43.3857 101.849 43.16 100.984 42.7085C100.12 42.2571 99.4486 41.6316 98.9712 40.8319C98.5067 40.0194 98.2744 39.1036 98.2744 38.0847C98.2744 37.0787 98.5002 36.1759 98.9519 35.3762C99.4164 34.5637 100.055 33.9317 100.868 33.4803C101.681 33.0288 102.597 32.8031 103.616 32.8031C104.623 32.8031 105.52 33.0288 106.307 33.4803C107.107 33.9188 107.726 34.5443 108.165 35.3569C108.616 36.1565 108.842 37.0852 108.842 38.1428ZM103.616 34.7378C102.842 34.7378 102.184 34.9699 101.642 35.4343C101.113 35.8857 100.791 36.4919 100.674 37.2528H106.539C106.436 36.5048 106.12 35.8986 105.591 35.4343C105.062 34.9699 104.403 34.7378 103.616 34.7378ZM113.663 34.4282C114.36 33.3448 115.585 32.8031 117.34 32.8031V35.1054C117.134 35.0667 116.947 35.0473 116.779 35.0473C115.837 35.0473 115.102 35.3246 114.573 35.8792C114.043 36.4209 113.779 37.2077 113.779 38.2395V43.2502H111.36V32.9192H113.663V34.4282ZM122.818 43.3857C121.979 43.3857 121.16 43.276 120.36 43.0568C119.56 42.8375 118.921 42.5602 118.443 42.2249L119.373 40.387C119.837 40.6965 120.392 40.948 121.037 41.1415C121.695 41.322 122.34 41.4123 122.973 41.4123C124.418 41.4123 125.14 41.0318 125.14 40.2709C125.14 39.9097 124.953 39.6582 124.579 39.5164C124.218 39.3745 123.631 39.2391 122.818 39.1101C121.966 38.9811 121.269 38.8328 120.727 38.6651C120.198 38.4974 119.734 38.2073 119.334 37.7945C118.947 37.3689 118.753 36.7821 118.753 36.034C118.753 35.0538 119.16 34.2735 119.973 33.6931C120.798 33.0998 121.908 32.8031 123.302 32.8031C124.011 32.8031 124.721 32.887 125.431 33.0546C126.14 33.2094 126.721 33.4222 127.173 33.6931L126.243 35.531C125.366 35.0151 124.379 34.7571 123.282 34.7571C122.573 34.7571 122.031 34.8668 121.656 35.086C121.295 35.2924 121.114 35.5697 121.114 35.9179C121.114 36.3048 121.308 36.5821 121.695 36.7498C122.095 36.9046 122.708 37.0529 123.534 37.1948C124.36 37.3238 125.037 37.4721 125.566 37.6398C126.095 37.8074 126.547 38.0912 126.921 38.491C127.308 38.8908 127.502 39.4583 127.502 40.1935C127.502 41.1608 127.082 41.9347 126.243 42.5151C125.405 43.0955 124.263 43.3857 122.818 43.3857ZM129.779 32.9192H132.198V43.2502H129.779V32.9192ZM130.998 31.2167C130.559 31.2167 130.191 31.0813 129.895 30.8104C129.598 30.5267 129.449 30.1785 129.449 29.7657C129.449 29.353 129.598 29.0112 129.895 28.7404C130.191 28.4566 130.559 28.3147 130.998 28.3147C131.437 28.3147 131.804 28.4502 132.101 28.721C132.398 28.979 132.546 29.3079 132.546 29.7077C132.546 30.1333 132.398 30.4945 132.101 30.7911C131.817 31.0748 131.449 31.2167 130.998 31.2167ZM141.78 42.6892C141.496 42.9213 141.148 43.0955 140.735 43.2115C140.335 43.3276 139.909 43.3857 139.457 43.3857C138.322 43.3857 137.444 43.089 136.825 42.4957C136.206 41.9024 135.896 41.0383 135.896 39.9033V34.9312H134.193V32.9966H135.896V30.6363H138.315V32.9966H141.083V34.9312H138.315V39.8453C138.315 40.3483 138.438 40.7352 138.683 41.006C138.928 41.264 139.283 41.393 139.748 41.393C140.289 41.393 140.741 41.2511 141.102 40.9674L141.78 42.6892ZM153.452 32.9192L148.613 44.0821C148.161 45.2042 147.613 45.991 146.968 46.4424C146.323 46.9067 145.542 47.1389 144.626 47.1389C144.11 47.1389 143.6 47.055 143.097 46.8874C142.594 46.7197 142.181 46.4876 141.858 46.1909L142.826 44.411C143.058 44.6303 143.329 44.8044 143.639 44.9334C143.961 45.0624 144.284 45.1268 144.606 45.1268C145.032 45.1268 145.381 45.0172 145.652 44.798C145.936 44.5787 146.194 44.2111 146.426 43.6952L146.6 43.2889L142.09 32.9192H144.606L147.858 40.5611L151.129 32.9192H153.452Z" fill="black"/>
<path d="M155.932 43.3855C155.493 43.3855 155.119 43.2372 154.809 42.9405C154.499 42.631 154.345 42.2441 154.345 41.7797C154.345 41.3025 154.493 40.9156 154.79 40.619C155.099 40.3223 155.48 40.174 155.932 40.174C156.383 40.174 156.757 40.3223 157.054 40.619C157.364 40.9156 157.519 41.3025 157.519 41.7797C157.519 42.2441 157.364 42.631 157.054 42.9405C156.745 43.2372 156.37 43.3855 155.932 43.3855ZM162.379 34.4281C163.076 33.3447 164.302 32.803 166.057 32.803V35.1052C165.85 35.0665 165.663 35.0472 165.495 35.0472C164.554 35.0472 163.818 35.3245 163.289 35.8791C162.76 36.4208 162.495 37.2075 162.495 38.2393V43.2501H160.076V32.9191H162.379V34.4281ZM178.404 32.9191V43.2501H176.101V41.9345C175.714 42.3988 175.23 42.76 174.649 43.0179C174.068 43.263 173.443 43.3855 172.772 43.3855C171.391 43.3855 170.301 43.005 169.501 42.2441C168.714 41.4702 168.32 40.3288 168.32 38.8197V32.9191H170.739V38.4908C170.739 39.4195 170.946 40.116 171.359 40.5803C171.785 41.0317 172.385 41.2574 173.159 41.2574C174.023 41.2574 174.707 40.993 175.21 40.4642C175.726 39.9225 175.985 39.1486 175.985 38.1426V32.9191H178.404Z" fill="#FA5E78"/>
</g>
<defs>
<clipPath id="clip0_349_95">
<rect width="180" height="52.1495" fill="white"/>
</clipPath>
</defs>
</svg>
