<svg width="46" height="45" viewBox="0 0 46 45" fill="none" xmlns="http://www.w3.org/2000/svg">
<path d="M15.928 0.647748C16.1327 0.341574 16.4396 0.188487 16.7722 0.0609149C17.9104 0.0481576 19.0359 0.0481576 20.1742 0.0354004C22.1055 0.0354004 24.0239 0.0354004 25.9552 0.0354004C27.2725 0.0354004 28.577 0.150215 29.856 0.494661C30.4571 0.660505 31.0199 0.941164 31.5954 1.15804C32.2733 1.57903 32.9127 2.0638 33.322 2.75269C33.6034 3.21195 33.8208 3.69673 34.0638 4.16874C34.1278 4.47492 34.1789 4.78109 34.2429 5.08726C34.2557 5.50825 34.2812 5.92924 34.294 6.33747C34.2557 6.69468 34.2173 7.06463 34.1789 7.42184C34.1661 7.42184 34.1406 7.42184 34.1278 7.43459C33.8464 7.30702 33.5778 7.14118 33.2836 7.03912C32.0175 6.60537 30.7001 6.49056 29.37 6.46504C28.3468 6.45229 27.3364 6.46504 26.3133 6.46504C25.0215 6.46504 23.7425 6.46504 22.4508 6.46504C21.8497 6.46504 21.402 6.82225 21.2741 7.39632C21.223 7.63871 21.1846 7.8811 21.1462 8.12349C20.9288 9.41197 20.7114 10.7004 20.494 12.0017C20.2765 13.3157 20.0719 14.6424 19.8673 15.9692C19.8289 16.2498 19.8161 16.5305 19.7905 16.8112C19.701 17.2194 19.5859 17.6404 19.5092 18.0614C19.3557 18.9289 19.2406 19.7964 19.0999 20.6766C19.0104 21.2379 18.908 21.7992 18.8185 22.3606C18.665 23.3556 18.5116 24.3507 18.3709 25.3457C18.3325 25.6392 18.2174 25.7412 17.9104 25.7285C16.8873 25.7157 15.8769 25.7285 14.8537 25.7412C14.2014 25.7412 13.5364 25.754 12.8841 25.7285C12.6411 25.7157 12.4109 25.5881 12.1679 25.5116C11.9121 25.2692 12.0144 24.9375 11.9888 24.6441C12.0528 24.2869 12.1039 23.9169 12.1679 23.5597C12.2318 23.1643 12.2958 22.756 12.3597 22.3606C12.5004 21.5186 12.6539 20.6766 12.7946 19.8346C12.8457 19.5412 12.8713 19.235 12.9097 18.9416C12.9608 18.5589 13.0248 18.1762 13.0759 17.7935C13.1399 17.4107 13.191 17.028 13.255 16.6581C13.2678 16.6198 13.2934 16.5943 13.2934 16.556C13.4852 15.3568 13.6771 14.1577 13.8689 12.9585C13.9201 12.6651 13.9456 12.3844 13.984 12.091C14.048 11.7083 14.0991 11.3256 14.1631 10.9556C14.2142 10.5729 14.2782 10.1902 14.3293 9.80744C14.3677 9.55229 14.4189 9.28439 14.4572 9.02925C14.5468 8.4169 14.6491 7.80455 14.7514 7.17945C14.9177 6.14611 15.0839 5.12554 15.2502 4.10496C15.3013 3.72224 15.3653 3.33952 15.4165 2.96956C15.4548 2.79096 15.506 2.5996 15.5443 2.421C15.685 1.7959 15.8129 1.22182 15.928 0.647748Z" fill="#3F3F3F"/>
<path d="M17.9232 44.0344C17.8849 44.0089 17.8465 43.9961 17.8081 43.9706C17.5651 43.7793 17.6419 43.6007 17.7953 43.3838C18.1918 42.8352 18.5755 42.2867 18.9592 41.7254C18.9976 41.6743 19.0359 41.6105 19.0743 41.5595C19.3045 41.3171 19.5092 41.1003 19.3173 40.7048C19.1127 40.3093 18.9976 39.8628 18.8441 39.4418C18.729 39.0591 18.6011 38.6764 18.486 38.3064C18.2174 37.541 17.9616 36.7883 17.693 36.0229C17.6802 35.9591 17.6547 35.8953 17.6419 35.8315C17.5523 35.4233 17.6291 35.3212 18.0511 35.3212C18.5371 35.3212 19.0232 35.3212 19.5092 35.3212C19.765 35.3212 19.9312 35.4233 20.008 35.6784C20.1486 36.176 20.3149 36.6607 20.4556 37.1583C20.6219 37.7196 20.7881 38.2809 20.98 38.906C21.7218 37.8089 22.4252 36.8011 23.1031 35.7677C23.2949 35.4743 23.4868 35.283 23.8705 35.3085C24.1774 35.334 24.4972 35.2957 24.8041 35.283C24.8808 35.283 24.9576 35.2957 25.0343 35.2957C25.7122 35.3212 25.7761 35.4233 25.4692 36.0101C24.9448 36.7628 24.4076 37.5027 23.8832 38.2554C23.5507 38.7274 23.231 39.1867 22.8984 39.6587C22.4252 40.3476 21.952 41.0365 21.4788 41.7254C21.3637 41.8784 21.2358 42.0315 21.1207 42.1974C20.8137 42.6566 20.5068 43.1159 20.1998 43.5879C19.9696 43.9579 19.6243 43.9706 19.2406 43.9579C18.8057 43.9706 18.3581 44.0089 17.9232 44.0344Z" fill="#3F3F3F"/>
<path d="M34.1276 7.44684C34.1404 7.44684 34.166 7.43408 34.1788 7.43408C34.2683 7.47235 34.3579 7.51063 34.4346 7.5489C35.3043 8.07194 35.9054 8.81186 36.2379 9.76866C36.3275 10.1514 36.4298 10.5341 36.5193 10.9168C36.5449 11.2995 36.5577 11.6822 36.5833 12.0522C36.5449 12.4349 36.5065 12.8176 36.4682 13.2004C36.3914 13.5831 36.3147 13.953 36.2379 14.3357C35.9694 15.1012 35.688 15.8539 35.4194 16.6193C34.7799 17.844 33.9102 18.8646 32.7208 19.5917C32.3755 19.8086 32.0046 19.9744 31.6464 20.1658C31.007 20.3444 30.3803 20.5485 29.728 20.6889C29.2292 20.8037 28.7176 20.8419 28.206 20.9185C27.6689 20.9312 27.1189 20.9185 26.5817 20.944C25.9039 20.9695 25.5586 21.2374 25.4051 21.9008C25.29 22.3728 25.2388 22.8703 25.1621 23.3551C25.0853 23.8016 25.0214 24.2354 24.9446 24.6819C24.8935 25.0391 24.8295 25.409 24.7784 25.7662C24.6761 26.4169 24.561 27.0547 24.4842 27.7053C24.3947 28.4963 23.9087 28.9555 23.1029 28.9555C22.2844 28.9555 21.4658 28.9555 20.6473 28.9555C19.995 28.9555 19.33 28.9555 18.6777 28.9555C18.1661 28.9555 17.8336 28.509 17.9487 28.0625C18.0382 27.7053 18.051 27.3354 18.0894 26.9654C18.1405 26.6848 18.1917 26.4169 18.2428 26.1362C18.3196 25.7535 18.3068 25.7407 17.9103 25.7662C17.5266 25.7662 17.1429 25.7662 16.772 25.7662C16.3883 25.7662 16.0046 25.7662 15.621 25.7662C15.378 25.7662 15.1349 25.7662 14.8792 25.7535C14.8792 25.7407 14.8664 25.728 14.8664 25.7152C15.8895 25.7152 16.8999 25.6897 17.9231 25.7024C18.2301 25.7024 18.3452 25.6004 18.3835 25.3197C18.5242 24.3247 18.6777 23.3296 18.8312 22.3345C18.9207 21.7732 19.023 21.2119 19.1125 20.6506C19.2532 19.7831 19.3811 18.9028 19.5218 18.0353C19.5986 17.6144 19.7137 17.2061 19.8032 16.7851C20.0846 16.3004 20.4938 16.0707 21.0694 16.0835C21.9902 16.109 22.9239 16.1218 23.8447 16.0835C25.1877 16.0325 26.5178 15.9049 27.8095 15.4967C30.0477 14.7823 31.7488 13.43 32.8487 11.3633C33.5137 10.1386 33.9102 8.81186 34.1276 7.44684Z" fill="#909090"/>
<path d="M34.1278 7.44788C33.9104 8.82566 33.5139 10.1524 32.8616 11.3771C31.7617 13.4438 30.0607 14.796 27.8225 15.5104C26.5307 15.9187 25.2006 16.0463 23.8577 16.0973C22.9368 16.1356 22.0032 16.1228 21.0823 16.0973C20.5068 16.0845 20.0975 16.3142 19.8161 16.7989C19.8417 16.5183 19.8417 16.2376 19.8929 15.957C20.0975 14.6302 20.3021 13.3162 20.5195 11.9895C20.7242 10.701 20.9544 9.41249 21.1718 8.11125C21.2102 7.86887 21.2486 7.62648 21.2997 7.38409C21.4276 6.81002 21.8625 6.45281 22.4764 6.45281C23.7681 6.45281 25.0471 6.45281 26.3389 6.45281C27.362 6.45281 28.3852 6.44006 29.3956 6.45281C30.7257 6.47833 32.0431 6.6059 33.3092 7.02689C33.565 7.1417 33.8464 7.30755 34.1278 7.44788Z" fill="#2F2F2F"/>
<path d="M25.9296 41.7898C25.8401 41.777 25.7505 41.7515 25.661 41.7387C25.6226 41.5984 25.5587 41.4453 25.5459 41.305C25.5331 41.1136 25.5715 40.9223 25.5971 40.7309C25.6738 40.3099 25.7377 39.8889 25.8145 39.4679C25.8528 39.1745 25.904 38.8683 25.9424 38.5749C26.0319 38.0264 26.1342 37.4906 26.2237 36.942C26.2749 36.6486 26.3005 36.3424 26.3389 36.049C26.4028 35.7045 26.4667 35.3729 26.5179 35.0284C26.5819 34.6074 26.6586 34.1864 26.7225 33.7527C26.7865 33.37 26.8377 33 26.9016 32.6173C26.9655 32.4897 27.0167 32.3494 27.0807 32.2218C27.4643 32.1963 27.848 32.1708 28.2189 32.158C28.6026 32.158 28.9863 32.158 29.37 32.158C29.92 32.158 30.4827 32.1708 31.0327 32.158C31.6594 32.1453 32.2477 32.2473 32.8104 32.5152C32.8872 32.5663 32.9767 32.6173 33.0534 32.6683C33.2325 32.8724 33.4499 33.051 33.6034 33.2679C33.9487 33.7527 33.9743 34.3268 33.9615 34.9008C33.9359 35.0157 33.8976 35.1177 33.8848 35.2325C33.7825 35.9342 33.5522 36.5848 33.1558 37.1844C33.0023 37.363 32.8488 37.5543 32.6698 37.7074C31.9663 38.2943 31.135 38.5367 30.2269 38.5622C29.92 38.5622 29.6002 38.5622 29.2933 38.5622C28.3852 38.5622 28.3724 38.6515 28.2829 39.4679C28.1934 40.0293 28.0783 40.6033 28.0015 41.1646C27.9376 41.6622 27.8352 41.7898 27.3364 41.8025C26.8632 41.7898 26.39 41.7898 25.9296 41.7898ZM28.8456 35.8576C28.8073 36.0873 28.7817 36.3169 28.7433 36.572C29.2165 36.572 29.6642 36.6103 30.099 36.5593C30.4699 36.521 30.828 36.3934 31.0327 36.0362C31.1222 35.7939 31.2501 35.5642 31.3013 35.3218C31.4164 34.7605 31.1989 34.2885 30.6746 34.1737C30.2269 34.0716 29.7537 34.1099 29.2933 34.1099C29.2293 34.1099 29.1142 34.212 29.1014 34.2885C28.9991 34.8115 28.9224 35.3346 28.8456 35.8576Z" fill="#909090"/>
<path d="M38.5272 41.7392C38.2842 41.5479 38.4121 41.3055 38.4377 41.1014C38.0796 41.3055 37.7343 41.4968 37.3889 41.701C36.8518 41.9306 36.289 41.854 35.7263 41.8668C35.5217 41.8413 35.3042 41.8285 35.0996 41.803C34.5113 41.5606 34.0764 41.1269 33.7183 40.6038C33.7183 40.5783 33.7183 40.54 33.7055 40.5145C33.373 39.8129 33.2579 39.0857 33.4753 38.333C33.5904 37.9503 33.7183 37.5676 33.8462 37.1849C34.2043 36.6746 34.5752 36.1771 35.0868 35.8199C35.1507 35.7816 35.2147 35.7433 35.2786 35.7051C36.3146 35.0927 37.4145 35.0034 38.54 35.4244C38.783 35.5137 38.9877 35.7178 39.2179 35.8837C39.2435 35.7816 39.2818 35.7051 39.2946 35.6158C39.333 35.4116 39.4609 35.3223 39.6527 35.3223C40.1643 35.3223 40.6887 35.3096 41.2003 35.3223C41.4177 35.3223 41.5584 35.4371 41.5456 35.6795C41.5328 35.8454 41.52 35.9985 41.4944 36.1643C41.4433 36.5088 41.3793 36.8532 41.3282 37.1976C41.2642 37.5804 41.2131 37.9631 41.1491 38.3458C41.098 38.7285 41.034 39.1112 40.9828 39.4812C40.8677 40.1191 40.7526 40.7442 40.6375 41.382C40.5992 41.6117 40.4713 41.752 40.241 41.7647C39.7295 41.7903 39.2179 41.803 38.7063 41.8158C38.6551 41.7903 38.5912 41.752 38.5272 41.7392ZM38.5272 37.2869C38.4761 37.2487 38.4121 37.2104 38.361 37.1721C37.8238 36.8404 37.2738 36.8787 36.7367 37.1466C35.9693 37.5293 35.6623 38.18 35.7263 39.0219C35.7519 39.4429 35.9309 39.7746 36.3146 39.966C36.9541 40.2849 37.568 40.2084 38.1563 39.8384C38.7319 39.4684 38.9877 38.9071 38.9877 38.2437C38.9621 37.8865 38.8598 37.5166 38.5272 37.2869Z" fill="#909090"/>
<path d="M45.3954 32.6055C45.2547 33.4857 45.1012 34.3532 44.9733 35.2335C44.871 35.8713 44.7943 36.522 44.7048 37.1726C44.6536 37.5553 44.5897 37.938 44.5385 38.308C44.4618 38.6907 44.385 39.0734 44.3211 39.4561C44.2315 40.0557 44.1548 40.6553 44.0397 41.2549C44.0141 41.408 43.8862 41.5483 43.7967 41.6886C43.5665 41.7269 43.3363 41.7524 43.106 41.7907C42.8375 41.7779 42.5817 41.7652 42.3131 41.7524C42.1724 41.7397 42.0317 41.7142 41.891 41.7014C41.8654 41.5738 41.8143 41.4335 41.8143 41.3059C41.8271 41.0763 41.8654 40.8339 41.891 40.6043C41.9806 40.043 42.0829 39.4944 42.1724 38.9331C42.2108 38.729 42.2491 38.5249 42.2747 38.3207C42.3131 37.9763 42.3642 37.6446 42.4026 37.3002C42.4794 36.8792 42.5433 36.4582 42.62 36.0372C42.684 35.6545 42.7351 35.2718 42.7991 34.9018C42.8503 34.5191 42.9142 34.1364 42.9654 33.7536C43.0037 33.3709 43.0421 33.001 43.0933 32.6183C43.2723 32.159 43.2723 32.159 43.8095 32.159C43.9502 32.159 44.0909 32.159 44.2315 32.1462C44.6152 32.1718 44.9989 32.1973 45.3698 32.2228C45.3954 32.3504 45.3954 32.4779 45.3954 32.6055Z" fill="#909090"/>
<path d="M15.9793 40.6027C15.9537 40.8324 15.9409 41.0492 15.9025 41.2789C15.8641 41.5723 15.6339 41.7764 15.3014 41.7891C15.02 41.8019 14.7514 41.8019 14.4701 41.8019C14.3294 41.8019 14.1887 41.7891 14.048 41.7891C13.6643 41.7764 13.5364 41.6361 13.6132 41.2533C13.626 41.1896 13.6387 41.1258 13.6515 41.0747C13.2551 41.2916 12.8714 41.5212 12.4749 41.7381C12.3854 41.7636 12.283 41.7891 12.1935 41.8019C11.7714 41.8147 11.3494 41.8402 10.9273 41.8529C9.7251 41.8402 8.70192 40.8068 8.62518 39.4418C8.65076 39.0463 8.66355 38.6381 8.68913 38.2426C8.74029 38.064 8.75308 37.8727 8.82982 37.6941C9.57162 35.8826 11.2087 34.8492 13.2167 35.2192C13.7027 35.334 14.1375 35.5126 14.4445 35.9974C14.4829 35.7933 14.4957 35.6529 14.5212 35.4998C14.6363 35.4361 14.7514 35.3212 14.8666 35.3212C15.3142 35.2957 15.7618 35.3212 16.1967 35.3212C16.7594 35.3212 16.7722 35.334 16.7594 35.8953C16.6827 36.2653 16.5932 36.6352 16.542 37.0052C16.4397 37.592 16.3629 38.1789 16.2734 38.7657C16.1839 39.3908 16.0816 40.0031 15.9793 40.6027ZM14.1503 38.3192C14.1759 37.6941 13.8817 37.2476 13.3446 37.0435C12.4493 36.7245 11.5157 37.171 11.1064 37.9492C10.8634 38.434 10.7611 38.9443 11.0552 39.4546C11.1831 39.6077 11.2726 39.799 11.4389 39.8883C12.0145 40.2583 12.6284 40.22 13.2167 39.8883C13.805 39.5566 14.1759 39.0463 14.1503 38.3192Z" fill="#3F3F3F"/>
<path d="M1.5909 36.0365C1.62927 35.6793 1.68043 35.3221 1.7188 34.9649C1.78274 34.5567 1.8339 34.1612 1.89785 33.753C1.97459 33.3958 2.05133 33.0386 2.10249 32.6686C2.16644 32.2349 2.25596 32.1456 2.69081 32.1456C2.80592 32.1456 2.92103 32.1456 3.03613 32.1328C4.18721 32.1328 5.32549 32.1328 6.47656 32.1328C6.86025 32.1966 7.24394 32.2476 7.61484 32.3114C7.72995 32.3752 7.84506 32.4262 7.96017 32.49C8.51012 32.7452 8.81708 33.2172 9.04729 33.7402C9.08566 34.0847 9.11124 34.4164 9.14961 34.7608C9.07287 35.1818 8.99613 35.6028 8.9066 36.0238C8.88102 36.062 8.85544 36.1003 8.84266 36.1513C8.47175 37.376 7.61484 38.0904 6.39982 38.4094C6.01613 38.4604 5.63244 38.5114 5.24875 38.5369C4.86506 38.5625 4.46858 38.5369 4.08489 38.5497C3.84188 38.5497 3.63725 38.639 3.56051 38.8941C3.50935 39.0728 3.48377 39.2641 3.45819 39.4555C3.41983 39.7999 3.36867 40.1316 3.3303 40.476C3.29193 40.6674 3.24077 40.8588 3.21519 41.0629C3.17682 41.5987 3.01056 41.7645 2.47339 41.7773C2.28154 41.7773 2.0897 41.79 1.89785 41.79C1.64206 41.79 1.38626 41.8028 1.13047 41.79C0.810728 41.79 0.670041 41.5732 0.7212 41.267C0.836307 40.6674 0.925835 40.0551 1.02815 39.4555C1.22 38.3201 1.41184 37.1719 1.5909 36.0365ZM5.32549 34.0974C5.22317 34.0847 5.12085 34.0847 5.01854 34.0719C4.27673 34.0719 4.27673 34.0719 4.22558 34.8118C4.12326 35.3987 4.00815 35.9727 3.89304 36.5851C4.00815 36.5851 4.09768 36.5851 4.17442 36.5851C4.45579 36.5851 4.74995 36.6234 5.03133 36.5851C5.87545 36.4958 6.36145 36.2534 6.47656 35.2966C6.48935 35.2583 6.51493 35.2328 6.51493 35.1945C6.57888 34.6205 6.24635 34.0209 5.32549 34.0974Z" fill="#3F3F3F"/>
</svg>
