<svg width="50" height="16" viewBox="0 0 50 16" fill="none" xmlns="http://www.w3.org/2000/svg">
<path d="M17.998 15.4124L20.4835 0.687622H24.4492L21.9636 15.4124H17.998Z" fill="#373737"/>
<path d="M36.374 1.05442C35.5921 0.744129 34.3633 0.433838 32.8273 0.433838C28.8895 0.433838 26.1247 2.43663 26.1247 5.28566C26.0968 7.40129 28.1075 8.58603 29.6156 9.29124C31.1516 10.0247 31.6822 10.476 31.6822 11.1248C31.6822 12.1121 30.4534 12.5634 29.3084 12.5634C27.7165 12.5634 26.8787 12.3377 25.5661 11.8018L25.0076 11.5479L24.4491 14.8483C25.3707 15.2714 27.1021 15.6099 28.8895 15.6381C33.0786 15.6381 35.7875 13.6635 35.8155 10.617C35.8434 8.95274 34.7822 7.65516 32.4921 6.61145C31.0958 5.93446 30.2579 5.48312 30.2579 4.77792C30.2579 4.15733 30.984 3.50854 32.5201 3.50854C33.8326 3.48033 34.7542 3.76242 35.4803 4.07271L35.8434 4.24196L36.374 1.05442Z" fill="#373737"/>
<path d="M46.5676 0.715942H43.4956C42.5461 0.715942 41.82 0.969817 41.4011 1.9289L35.5084 15.4125H39.6696C39.6696 15.4125 40.3398 13.6071 40.5074 13.2122C40.9542 13.2122 45.0037 13.2122 45.5902 13.2122C45.7019 13.72 46.0649 15.4125 46.0649 15.4125H49.7513L46.5676 0.715942ZM41.6803 10.1939C42.0155 9.34768 43.2722 6.07552 43.2722 6.07552C43.2443 6.10373 43.6073 5.22927 43.8028 4.6651L44.0821 5.93448C44.0821 5.93448 44.8361 9.46051 45.0037 10.1939H41.6803Z" fill="#373737"/>
<path d="M14.6746 0.687622L10.7647 10.7298L10.3458 8.69878C9.64764 6.35749 7.38553 3.79053 4.87207 2.52116L8.41884 15.4124H12.6359L18.8916 0.687622H14.6746Z" fill="#373737"/>
<path d="M7.16215 0.687622H0.766792L0.710938 0.997913C5.70993 2.21087 9.00536 5.17274 10.3738 8.69878L8.97743 1.92879C8.72608 0.997913 8.0279 0.71583 7.16215 0.687622Z" fill="#A7A7A7"/>
</svg>
